COMMENT @(#)34	1.3  src/bos/usr/lpp/kls/fonts/HGPRT24.bdf, cmdkr, bos411, 9428A410j 2/24/94 11:14:25
COMMENT
COMMENT   COMPONENT_NAME: cmdkr
COMMENT
COMMENT   FUNCTIONS: none
COMMENT
COMMENT   ORIGINS: 27
COMMENT
COMMENT   IBM CONFIDENTIAL -- (IBM Confidential Restricted when
COMMENT   combined with the aggregated modules for this product)
COMMENT                    SOURCE MATERIALS
COMMENT
COMMENT   (C) COPYRIGHT International Business Machines Corp. 1992
COMMENT   All Rights Reserved
COMMENT   US Government Users Restricted Rights - Use, duplication or
COMMENT   disclosure restricted by GSA ADP Schedule Contract with IBM Corp.
COMMENT
STARTFONT 2.1  
COMMENT IBM Hangul & Hanja fonts 
FONT -IBM_AIX-HGPRT24-Medium-R-Normal--27-20-100-100-M-260-ksc5601.1987-0
SIZE 24 75 75  
FONTBOUNDINGBOX 24 24 0 -2
STARTPROPERTIES 4 
FONT_ASCENT 21 
FONT_DESCENT 3 
DEFAULT_CHAR 41377 
Copyright "Copyright (c) 1992 IBM Korea, Inc."
ENDPROPERTIES 
CHARS 9782
STARTCHAR a1a1
ENCODING 41377 
SWIDTH 96 0
DWIDTH 24 0
BBX 24 24 0 -2
BITMAP 
000000
000000
000000
000000
000000
000000
000000
000000
000000
000000
000000
000000
000000
000000
000000
000000
000000
000000
000000
000000
000000
000000
000000
000000
ENDCHAR
STARTCHAR a1a2
ENCODING 41378 
SWIDTH 96 0
DWIDTH 24 0
BBX 24 24 0 -2
BITMAP 
000000
000000
000000
000000
000000
000000
000000
000000
000000
000000
000000
000000
000000
000000
000000
000000
000000
600000
180000
0c0000
060000
070000
030000
030000
ENDCHAR
STARTCHAR a1a3
ENCODING 41379 
SWIDTH 96 0
DWIDTH 24 0
BBX 24 24 0 -2
BITMAP 
000000
000000
000000
000000
000000
000000
000000
000000
000000
000000
000000
000000
000000
000000
000000
000000
0f0000
108000
204000
204000
204000
204000
108000
0f0000
ENDCHAR
STARTCHAR a1a4
ENCODING 41380 
SWIDTH 96 0
DWIDTH 24 0
BBX 24 24 0 -2
BITMAP 
000000
000000
000000
000000
000000
000000
000000
000000
000000
001800
003c00
007e00
007e00
003c00
001800
000000
000000
000000
000000
000000
000000
000000
000000
000000
ENDCHAR
STARTCHAR a1a5
ENCODING 41381 
SWIDTH 96 0
DWIDTH 24 0
BBX 24 24 0 -2
BITMAP 
000000
000000
000000
000000
000000
000000
000000
000000
000000
0300c0
0781e0
0300c0
000000
000000
000000
000000
000000
000000
000000
000000
000000
000000
000000
000000
ENDCHAR
STARTCHAR a1a6
ENCODING 41382 
SWIDTH 96 0
DWIDTH 24 0
BBX 24 24 0 -2
BITMAP 
000000
000000
000000
000000
000000
000000
000000
000000
000000
30180c
783c1e
30180c
000000
000000
000000
000000
000000
000000
000000
000000
000000
000000
000000
000000
ENDCHAR
STARTCHAR a1a7
ENCODING 41383 
SWIDTH 96 0
DWIDTH 24 0
BBX 24 24 0 -2
BITMAP 
000000
0300c0
0781e0
0781e0
0300c0
000000
000000
000000
000000
000000
000000
000000
000000
000000
000000
000000
000000
000000
000000
000000
000000
000000
000000
000000
ENDCHAR
STARTCHAR a1a8
ENCODING 41384 
SWIDTH 96 0
DWIDTH 24 0
BBX 24 24 0 -2
BITMAP 
000000
000000
000000
000000
000000
000000
00c180
00e1c0
00c180
00c180
00c180
018300
018300
010200
030600
020400
040800
081000
000000
000000
000000
000000
000000
000000
ENDCHAR
STARTCHAR a1a9
ENCODING 41385 
SWIDTH 96 0
DWIDTH 24 0
BBX 24 24 0 -2
BITMAP 
000000
000000
000000
000000
000000
000000
000000
000000
000000
000000
000000
00ff00
00ff00
000000
000000
000000
000000
000000
000000
000000
000000
000000
000000
000000
ENDCHAR
STARTCHAR a1aa
ENCODING 41386 
SWIDTH 96 0
DWIDTH 24 0
BBX 24 24 0 -2
BITMAP 
000000
000000
000000
000000
000000
000000
000000
000000
000000
000000
000000
0ffff0
0ffff0
000000
000000
000000
000000
000000
000000
000000
000000
000000
000000
000000
ENDCHAR
STARTCHAR a1ab
ENCODING 41387 
SWIDTH 96 0
DWIDTH 24 0
BBX 24 24 0 -2
BITMAP 
006600
006600
006600
006600
006600
006600
006600
006600
006600
006600
006600
006600
006600
006600
006600
006600
006600
006600
006600
006600
006600
006600
006600
006600
ENDCHAR
STARTCHAR a1ac
ENCODING 41388 
SWIDTH 96 0
DWIDTH 24 0
BBX 24 24 0 -2
BITMAP 
c00000
600000
300000
180000
0c0000
060000
030000
018000
00c000
006000
003000
001800
000c00
000600
000300
000180
0000c0
000060
000030
000018
00000c
000006
000003
000001
ENDCHAR
STARTCHAR a1ad
ENCODING 41389 
SWIDTH 96 0
DWIDTH 24 0
BBX 24 24 0 -2
BITMAP 
000000
000000
000000
000000
000000
000000
000000
000000
000000
0f8000
3fe000
607803
c01e06
0007fc
0001f0
000000
000000
000000
000000
000000
000000
000000
000000
000000
ENDCHAR
STARTCHAR a1ae
ENCODING 41390 
SWIDTH 96 0
DWIDTH 24 0
BBX 24 24 0 -2
BITMAP 
00000c
000030
000060
0000c0
0000f0
0000f8
0000f8
000070
000000
000000
000000
000000
000000
000000
000000
000000
000000
000000
000000
000000
000000
000000
000000
000000
ENDCHAR
STARTCHAR a1af
ENCODING 41391 
SWIDTH 96 0
DWIDTH 24 0
BBX 24 24 0 -2
BITMAP 
0e0000
1f0000
1f0000
0f0000
030000
060000
0c0000
300000
000000
000000
000000
000000
000000
000000
000000
000000
000000
000000
000000
000000
000000
000000
000000
000000
ENDCHAR
STARTCHAR a1b0
ENCODING 41392 
SWIDTH 96 0
DWIDTH 24 0
BBX 24 24 0 -2
BITMAP 
000186
00030c
000618
000e38
000f3c
000f3c
000618
000000
000000
000000
000000
000000
000000
000000
000000
000000
000000
000000
000000
000000
000000
000000
000000
000000
ENDCHAR
STARTCHAR a1b1
ENCODING 41393 
SWIDTH 96 0
DWIDTH 24 0
BBX 24 24 0 -2
BITMAP 
186000
3cf000
3cf000
1c7000
186000
30c000
618000
000000
000000
000000
000000
000000
000000
000000
000000
000000
000000
000000
000000
000000
000000
000000
000000
000000
ENDCHAR
STARTCHAR a1b2
ENCODING 41394 
SWIDTH 96 0
DWIDTH 24 0
BBX 24 24 0 -2
BITMAP 
00001c
000070
0001c0
000100
000100
000100
000100
000100
000100
000100
000100
000100
000100
000100
000100
000100
000100
000100
000100
000100
000100
0001c0
000070
00001c
ENDCHAR
STARTCHAR a1b3
ENCODING 41395 
SWIDTH 96 0
DWIDTH 24 0
BBX 24 24 0 -2
BITMAP 
380000
0e0000
038000
008000
008000
008000
008000
008000
008000
008000
008000
008000
008000
008000
008000
008000
008000
008000
008000
008000
008000
038000
0e0000
380000
ENDCHAR
STARTCHAR a1b4
ENCODING 41396 
SWIDTH 96 0
DWIDTH 24 0
BBX 24 24 0 -2
BITMAP 
000004
00000c
000008
000018
000010
000030
000020
000060
000040
0000c0
000080
000100
000100
000080
0000c0
000040
000060
000020
000030
000010
000018
000008
00000c
000004
ENDCHAR
STARTCHAR a1b5
ENCODING 41397 
SWIDTH 96 0
DWIDTH 24 0
BBX 24 24 0 -2
BITMAP 
200000
300000
100000
180000
080000
0c0000
040000
060000
020000
030000
010000
008000
008000
010000
030000
020000
060000
040000
0c0000
080000
180000
100000
300000
200000
ENDCHAR
STARTCHAR a1b6
ENCODING 41398 
SWIDTH 96 0
DWIDTH 24 0
BBX 24 24 0 -2
BITMAP 
000044
0000cc
000088
000198
000110
000330
000220
000660
000440
000cc0
000880
001100
001100
000880
000cc0
000440
000660
000220
000330
000110
000198
000088
0000cc
000044
ENDCHAR
STARTCHAR a1b7
ENCODING 41399 
SWIDTH 96 0
DWIDTH 24 0
BBX 24 24 0 -2
BITMAP 
220000
330000
110000
198000
088000
0cc000
044000
066000
022000
033000
011000
008800
008800
011000
033000
022000
066000
044000
0cc000
088000
198000
110000
330000
220000
ENDCHAR
STARTCHAR a1b8
ENCODING 41400 
SWIDTH 96 0
DWIDTH 24 0
BBX 24 24 0 -2
BITMAP 
0007fc
000400
000400
000400
000400
000400
000400
000400
000400
000400
000400
000400
000400
000400
000400
000000
000000
000000
000000
000000
000000
000000
000000
000000
ENDCHAR
STARTCHAR a1b9
ENCODING 41401 
SWIDTH 96 0
DWIDTH 24 0
BBX 24 24 0 -2
BITMAP 
000000
000000
000000
000000
000000
000000
000000
000000
000000
002000
002000
002000
002000
002000
002000
002000
002000
002000
002000
002000
002000
002000
002000
3fe000
ENDCHAR
STARTCHAR a1ba
ENCODING 41402 
SWIDTH 96 0
DWIDTH 24 0
BBX 24 24 0 -2
BITMAP 
0007fc
000404
000404
0004fc
000480
000480
000480
000480
000480
000480
000480
000480
000480
000480
000480
000480
000780
000000
000000
000000
000000
000000
000000
000000
ENDCHAR
STARTCHAR a1bb
ENCODING 41403 
SWIDTH 96 0
DWIDTH 24 0
BBX 24 24 0 -2
BITMAP 
000000
000000
000000
000000
000000
000000
000000
01e000
012000
012000
012000
012000
012000
012000
012000
012000
012000
012000
012000
012000
3f2000
202000
202000
3fe000
ENDCHAR
STARTCHAR a1bc
ENCODING 41404 
SWIDTH 96 0
DWIDTH 24 0
BBX 24 24 0 -2
BITMAP 
0003fc
0003f8
0003f0
0003e0
0003c0
0003c0
000380
000380
000380
000300
000300
000300
000300
000300
000300
000380
000380
000380
0003c0
0003c0
0003e0
0003f0
0003f8
0003fc
ENDCHAR
STARTCHAR a1bd
ENCODING 41405 
SWIDTH 96 0
DWIDTH 24 0
BBX 24 24 0 -2
BITMAP 
3fc000
1fc000
0fc000
07c000
03c000
03c000
01c000
01c000
01c000
00c000
00c000
00c000
00c000
00c000
00c000
01c000
01c000
01c000
03c000
03c000
07c000
0fc000
1fc000
3fc000
ENDCHAR
STARTCHAR a1be
ENCODING 41406 
SWIDTH 96 0
DWIDTH 24 0
BBX 24 24 0 -2
BITMAP 
000000
000000
001800
001800
001800
001800
001800
001800
001800
001800
1ffff8
1ffff8
001800
001800
001800
001800
001800
001800
001800
000000
1ffff8
1ffff8
000000
000000
ENDCHAR
STARTCHAR a1bf
ENCODING 41407 
SWIDTH 96 0
DWIDTH 24 0
BBX 24 24 0 -2
BITMAP 
000000
000000
000000
000000
0c0030
060060
0300c0
018180
00c300
006600
003c00
001800
003c00
006600
00c300
018180
0300c0
060060
0c0030
000000
000000
000000
000000
000000
ENDCHAR
STARTCHAR a1c0
ENCODING 41408 
SWIDTH 96 0
DWIDTH 24 0
BBX 24 24 0 -2
BITMAP 
000000
000000
000000
001800
003c00
003c00
001800
000000
000000
000000
000000
3ffffc
3ffffc
000000
000000
000000
000000
001800
003c00
003c00
001800
000000
000000
000000
ENDCHAR
STARTCHAR a1c4
ENCODING 41412 
SWIDTH 96 0
DWIDTH 24 0
BBX 24 24 0 -2
BITMAP 
000000
000000
000000
000000
000000
000000
000000
0f00f0
108108
204204
402402
401802
401802
402402
204204
108108
0f00f0
000000
000000
000000
000000
000000
000000
000000
ENDCHAR
STARTCHAR a1c5
ENCODING 41413 
SWIDTH 96 0
DWIDTH 24 0
BBX 24 24 0 -2
BITMAP 
000000
000000
000000
001800
003c00
003c00
001800
000000
000000
000000
000000
000000
000000
000000
000000
000000
180018
3c003c
3c003c
180018
000000
000000
000000
000000
ENDCHAR
STARTCHAR a1c6
ENCODING 41414 
SWIDTH 96 0
DWIDTH 24 0
BBX 24 24 0 -2
BITMAP 
000000
1e0000
210000
210000
210000
210000
1e0000
000000
000000
000000
000000
000000
000000
000000
000000
000000
000000
000000
000000
000000
000000
000000
000000
000000
ENDCHAR
STARTCHAR a1c7
ENCODING 41415 
SWIDTH 96 0
DWIDTH 24 0
BBX 24 24 0 -2
BITMAP 
000000
180000
180000
180000
300000
300000
200000
400000
000000
000000
000000
000000
000000
000000
000000
000000
000000
000000
000000
000000
000000
000000
000000
000000
ENDCHAR
STARTCHAR a1c8
ENCODING 41416 
SWIDTH 96 0
DWIDTH 24 0
BBX 24 24 0 -2
BITMAP 
000000
330000
330000
330000
660000
660000
440000
880000
000000
000000
000000
000000
000000
000000
000000
000000
000000
000000
000000
000000
000000
000000
000000
000000
ENDCHAR
STARTCHAR a1c9
ENCODING 41417 
SWIDTH 96 0
DWIDTH 24 0
BBX 24 24 0 -2
BITMAP 
000000
1e0000
210000
210780
211864
213034
1e601c
00c00c
00c00c
01c004
018004
018000
018000
018000
018000
018000
01c000
00c004
00c004
006008
003010
001860
000780
000000
ENDCHAR
STARTCHAR a1cb
ENCODING 41419 
SWIDTH 96 0
DWIDTH 24 0
BBX 24 24 0 -2
BITMAP 
000080
000080
000080
003fc0
006320
00c230
018270
030670
030420
060400
060c00
060800
060800
061800
061000
061000
063040
032040
036080
01c300
00fc00
008000
018000
010000
ENDCHAR
STARTCHAR a1cc
ENCODING 41420 
SWIDTH 96 0
DWIDTH 24 0
BBX 24 24 0 -2
BITMAP 
000000
000000
001f80
0070c0
00c0e0
00c1e0
01c1e0
0180c0
018000
018000
1ffe00
018000
01c000
00c000
00c000
0fc000
18e008
30f008
30d810
30ce30
18c7e0
0f81c0
000000
000000
ENDCHAR
STARTCHAR a1cd
ENCODING 41421 
SWIDTH 96 0
DWIDTH 24 0
BBX 24 24 0 -2
BITMAP 
000000
000000
3f00fc
0c0030
0c0030
060060
0300c0
0300c0
018180
00c300
006600
1ffff8
001800
001800
001800
1ffff8
001800
001800
001800
001800
001800
00ff00
000000
000000
ENDCHAR
STARTCHAR a7a2
ENCODING 42914 
SWIDTH 96 0
DWIDTH 24 0
BBX 24 24 0 -2
BITMAP 
000000
000000
000070
0000d8
000198
00018c
00030c
00030c
00030c
19830c
3fc30c
66630c
66630c
666198
666198
6661b0
6660e0
6660c0
666180
666660
666032
e6601c
000000
000000
ENDCHAR
STARTCHAR a7a3
ENCODING 42915 
SWIDTH 96 0
DWIDTH 24 0
BBX 24 24 0 -2
BITMAP 
000000
000000
00e070
0060d8
006198
00618c
00630c
00630c
00630c
0f630c
19e30c
30630c
30630c
606318
606198
606198
6061b0
6060e0
3061b0
306619
19e00e
0f6000
000000
000000
ENDCHAR
STARTCHAR a7a4
ENCODING 42916 
SWIDTH 96 0
DWIDTH 24 0
BBX 24 24 0 -2
BITMAP 
000000
000000
001c00
003600
006600
006300
00c300
00c300
00c300
00c300
00c300
00c300
00c300
00c600
006600
006c00
006c00
003800
006000
019840
000c80
000700
000000
000000
ENDCHAR
STARTCHAR a7a6
ENCODING 42918 
SWIDTH 96 0
DWIDTH 24 0
BBX 24 24 0 -2
BITMAP 
000000
000000
000000
000000
000000
000000
000000
000000
0f80f8
18c18c
30e30e
306306
600600
600600
600600
600600
600600
300300
306306
18c18c
0f80f8
000000
000000
000000
ENDCHAR
STARTCHAR a7ae
ENCODING 42926 
SWIDTH 96 0
DWIDTH 24 0
BBX 24 24 0 -2
BITMAP 
000000
000000
000000
000000
000000
000000
000000
000000
198198
3fc3fc
666666
666666
666666
666666
666666
666666
666666
666666
666666
666666
666666
000000
000000
000000
ENDCHAR
STARTCHAR a7af
ENCODING 42927 
SWIDTH 96 0
DWIDTH 24 0
BBX 24 24 0 -2
BITMAP 
000000
000000
000000
000000
000000
000000
000000
000000
0f8198
18c3fc
306666
300666
600666
600666
600666
600666
600666
300666
306666
18c666
0f8e66
000000
000000
000000
ENDCHAR
STARTCHAR a7b0
ENCODING 42928 
SWIDTH 96 0
DWIDTH 24 0
BBX 24 24 0 -2
BITMAP 
000000
000000
e00000
600000
600000
600000
600000
600000
600000
60e198
60c3fc
618666
630666
660666
6c0666
780666
6c0666
660666
630666
618666
60c666
f0e666
000000
000000
ENDCHAR
STARTCHAR a7b7
ENCODING 42935 
SWIDTH 96 0
DWIDTH 24 0
BBX 24 24 0 -2
BITMAP 
000000
000000
000000
000000
000000
000000
000000
000000
1981f3
3fc31e
66660c
66660c
66660c
666318
6661f0
666300
6663c0
666338
66660c
666606
e66606
00030c
0001f8
000000
ENDCHAR
STARTCHAR a7b8
ENCODING 42936 
SWIDTH 96 0
DWIDTH 24 0
BBX 24 24 0 -2
BITMAP 
000000
000000
e00000
600000
600000
600000
600000
600000
600000
60e1f3
60c31e
61860c
63060c
66060c
6c0318
7801f0
6c0300
6603e0
630338
61860c
60c606
e0e606
00030c
0001f8
ENDCHAR
STARTCHAR a1d7
ENCODING 41431 
SWIDTH 96 0
DWIDTH 24 0
BBX 24 24 0 -2
BITMAP 
000000
003c00
004200
008300
008700
008600
00c000
007000
003800
00ce00
010700
010180
018080
00e080
007100
001e00
000e00
000300
000100
004100
00e100
00e100
006200
003c00
ENDCHAR
STARTCHAR a1d8
ENCODING 41432 
SWIDTH 96 0
DWIDTH 24 0
BBX 24 24 0 -2
BITMAP 
000000
000000
000000
000000
181818
0c3c30
063c60
0318c0
018180
00c300
0c6630
1e3c78
1e1878
0c3c30
006600
00c300
018180
0318c0
063c60
0c3c30
181818
000000
000000
000000
ENDCHAR
STARTCHAR a1d9
ENCODING 41433 
SWIDTH 96 0
DWIDTH 24 0
BBX 24 24 0 -2
BITMAP 
001000
001000
001000
003800
002800
006c00
004400
004400
00c600
ffc3ff
600006
38001c
0c0030
0700e0
018180
030080
0310c0
023840
026c40
06c740
0781e0
0600e0
0c0060
080020
ENDCHAR
STARTCHAR a1da
ENCODING 41434 
SWIDTH 96 0
DWIDTH 24 0
BBX 24 24 0 -2
BITMAP 
001000
001000
001000
003800
003800
007c00
007c00
007c00
00fe00
ffffff
7ffffe
3ffffc
0ffff0
07ffe0
01ff80
03ff80
03ffc0
03ffc0
03efc0
07c7c0
0781e0
0600e0
0c0060
080020
ENDCHAR
STARTCHAR a1db
ENCODING 41435 
SWIDTH 96 0
DWIDTH 24 0
BBX 24 24 0 -2
BITMAP 
000000
000000
007e00
01c380
0700e0
0c0030
080010
180018
100008
30000c
200004
200004
200004
200004
30000c
100008
180018
080010
0c0030
0700e0
01c380
007e00
000000
000000
ENDCHAR
STARTCHAR a1dc
ENCODING 41436 
SWIDTH 96 0
DWIDTH 24 0
BBX 24 24 0 -2
BITMAP 
000000
000000
007e00
01ff80
07ffe0
0ffff0
0ffff0
1ffff8
1ffff8
3ffffc
3ffffc
3ffffc
3ffffc
3ffffc
3ffffc
1ffff8
1ffff8
1ffff0
0ffff0
07ffe0
01ff80
007e00
000000
000000
ENDCHAR
STARTCHAR a1dd
ENCODING 41437 
SWIDTH 96 0
DWIDTH 24 0
BBX 24 24 0 -2
BITMAP 
000000
000000
007e00
01c380
0700e0
0c3c30
08c310
198198
1300c8
32004c
240024
240024
240024
240024
32004c
1300c8
198198
08c310
0c3c30
0700e0
01c380
007e00
000000
000000
ENDCHAR
STARTCHAR a1de
ENCODING 41438 
SWIDTH 96 0
DWIDTH 24 0
BBX 24 24 0 -2
BITMAP 
000800
001c00
003600
006300
00c180
0180c0
030060
060030
0c0018
18000c
300006
600003
300006
18000c
0c0018
060030
030060
0180c0
00c180
006300
003600
001c00
000800
000000
ENDCHAR
STARTCHAR a1df
ENCODING 41439 
SWIDTH 96 0
DWIDTH 24 0
BBX 24 24 0 -2
BITMAP 
000800
001c00
003e00
007f00
00ff80
01ffc0
03ffe0
07fff0
0ffff8
1ffffc
3ffffe
7fffff
3ffffe
1ffffc
0ffff8
07fff0
03ffe0
01ffc0
00ff80
007f00
003e00
001c00
000800
000000
ENDCHAR
STARTCHAR a1e0
ENCODING 41440 
SWIDTH 96 0
DWIDTH 24 0
BBX 24 24 0 -2
BITMAP 
000000
000000
3ffffc
200004
200004
200004
200004
200004
200004
200004
200004
200004
200004
200004
200004
200004
200004
200004
200004
200004
200004
3ffffc
000000
000000
ENDCHAR
STARTCHAR a1e1
ENCODING 41441 
SWIDTH 96 0
DWIDTH 24 0
BBX 24 24 0 -2
BITMAP 
000000
000000
3ffffc
3ffffc
3ffffc
3ffffc
3ffffc
3ffffc
3ffffc
3ffffc
3ffffc
3ffffc
3ffffc
3ffffc
3ffffc
3ffffc
3ffffc
3ffffc
3ffffc
3ffffc
3ffffc
3ffffc
000000
000000
ENDCHAR
STARTCHAR a1e2
ENCODING 41442 
SWIDTH 96 0
DWIDTH 24 0
BBX 24 24 0 -2
BITMAP 
000000
001000
003800
006c00
004400
00c600
008200
018300
030180
020080
0600c0
040040
0c0060
180030
100010
300018
200008
60000c
400004
fffffe
000000
000000
000000
000000
ENDCHAR
STARTCHAR a1e3
ENCODING 41443 
SWIDTH 96 0
DWIDTH 24 0
BBX 24 24 0 -2
BITMAP 
000000
001000
003800
007c00
007c00
00fe00
00fe00
01ff00
03ff80
03ff80
07ffc0
07ffc0
0fffe0
1ffff0
1ffff0
3ffff8
3ffff8
7ffffc
7ffffc
fffffe
000000
000000
000000
000000
ENDCHAR
STARTCHAR a1e4
ENCODING 41444 
SWIDTH 96 0
DWIDTH 24 0
BBX 24 24 0 -2
BITMAP 
000000
000000
000000
000000
fffffe
400004
60000c
200008
300018
100010
180030
0c0060
040040
0600c0
020080
030180
018300
008200
00c600
004400
006c00
003800
001000
000000
ENDCHAR
STARTCHAR a1e5
ENCODING 41445 
SWIDTH 96 0
DWIDTH 24 0
BBX 24 24 0 -2
BITMAP 
000000
000000
000000
000000
fffffe
7ffffc
7ffffc
3ffff8
3ffff8
1ffff0
1ffff0
0fffe0
07ffc0
07ffc0
03ff80
03ff80
01ff00
00fe00
00fe00
007c00
007c00
003800
001000
000000
ENDCHAR
STARTCHAR a1e6
ENCODING 41446 
SWIDTH 96 0
DWIDTH 24 0
BBX 24 24 0 -2
BITMAP 
000000
000000
000000
000200
000300
000180
0000c0
000060
000030
000018
00000c
7ffffe
7ffffe
00000c
000018
000030
000060
0000c0
000180
000300
000200
000000
000000
000000
ENDCHAR
STARTCHAR a1e7
ENCODING 41447 
SWIDTH 96 0
DWIDTH 24 0
BBX 24 24 0 -2
BITMAP 
000000
000000
000000
004000
00c000
018000
030000
060000
0c0000
180000
300000
7ffffe
7ffffe
300000
180000
0c0000
060000
030000
018000
00c000
004000
000000
000000
000000
ENDCHAR
STARTCHAR a1e8
ENCODING 41448 
SWIDTH 96 0
DWIDTH 24 0
BBX 24 24 0 -2
BITMAP 
000000
001800
003c00
007e00
00db00
019980
0318c0
061860
0c1830
181818
001800
001800
001800
001800
001800
001800
001800
001800
001800
001800
001800
001800
001800
000000
ENDCHAR
STARTCHAR a1e9
ENCODING 41449 
SWIDTH 96 0
DWIDTH 24 0
BBX 24 24 0 -2
BITMAP 
000000
001800
001800
001800
001800
001800
001800
001800
001800
001800
001800
001800
001800
001800
181818
0c1830
061860
0318c0
019980
00db00
007e00
003c00
001800
000000
ENDCHAR
STARTCHAR a1ea
ENCODING 41450 
SWIDTH 96 0
DWIDTH 24 0
BBX 24 24 0 -2
BITMAP 
000000
000000
000000
000000
000000
020080
0600c0
0c0060
180030
300018
60000c
fffffe
fffffe
60000c
300018
180030
0c0060
0600c0
020080
000000
000000
000000
000000
000000
ENDCHAR
STARTCHAR a1eb
ENCODING 41451 
SWIDTH 96 0
DWIDTH 24 0
BBX 24 24 0 -2
BITMAP 
000000
000000
000000
000000
000000
7ffffe
7ffffe
7ffffe
7ffffe
7ffffe
000000
000000
000000
000000
7ffffe
7ffffe
7ffffe
7ffffe
7ffffe
000000
000000
000000
000000
000000
ENDCHAR
STARTCHAR a1fe
ENCODING 41470 
SWIDTH 96 0
DWIDTH 24 0
BBX 24 24 0 -2
BITMAP 
000000
000000
7ffffc
7ffffc
00000c
00000c
00000c
00000c
00000c
00000c
00000c
000000
000000
000000
000000
000000
000000
000000
000000
000000
000000
000000
000000
000000
ENDCHAR
STARTCHAR a1c1
ENCODING 41409 
SWIDTH 96 0
DWIDTH 24 0
BBX 24 24 0 -2
BITMAP 
000000
000000
100000
080000
040000
020000
010000
008000
3ffff8
3ffff8
002000
001000
000800
000400
3ffff8
3ffff8
000100
000080
000040
000020
000010
000000
000000
000000
ENDCHAR
STARTCHAR a1c2
ENCODING 41410 
SWIDTH 96 0
DWIDTH 24 0
BBX 24 24 0 -2
BITMAP 
000000
000000
000000
000000
000070
000380
001c00
006000
018000
060000
180000
600000
180000
060000
018000
006000
001c00
000380
000070
000000
000000
000000
7ffffc
000000
ENDCHAR
STARTCHAR a1c3
ENCODING 41411 
SWIDTH 96 0
DWIDTH 24 0
BBX 24 24 0 -2
BITMAP 
000000
000000
000000
000000
070000
00e000
001c00
000300
0000c0
000030
00000c
000003
00000c
000030
0000c0
000300
001c00
00e000
070000
000000
000000
000000
1fffff
000000
ENDCHAR
STARTCHAR a1ca
ENCODING 41418 
SWIDTH 96 0
DWIDTH 24 0
BBX 24 24 0 -2
BITMAP 
003000
004800
008400
008400
004800
003000
000000
000000
001000
002800
006c00
004400
00c600
018300
018300
030180
03ff80
0600c0
0600c0
0c0060
080020
180030
300018
78003c
ENDCHAR
STARTCHAR a1ce
ENCODING 41422 
SWIDTH 96 0
DWIDTH 24 0
BBX 24 24 0 -2
BITMAP 
000000
001800
003c00
007e00
00db00
019980
0318c0
061860
0c1830
181818
001800
001800
001800
003c00
00ff00
01c380
018180
0300c0
0300c0
0300c0
018180
01c380
00ff00
003c00
ENDCHAR
STARTCHAR a1cf
ENCODING 41423 
SWIDTH 96 0
DWIDTH 24 0
BBX 24 24 0 -2
BITMAP 
000000
003c00
00ff00
01c380
018180
0300c0
0300c0
0300c0
0300c0
018180
01c380
00ff00
003c00
001800
001800
3ffffc
3ffffc
001800
001800
001800
001800
001800
001800
001800
ENDCHAR
STARTCHAR a1d0
ENCODING 41424 
SWIDTH 96 0
DWIDTH 24 0
BBX 24 24 0 -2
BITMAP 
000000
000000
000000
000010
000020
000040
000080
000100
000200
000400
000800
001000
002000
004000
008000
010000
020000
040000
080000
1ffff8
000000
000000
000000
000000
ENDCHAR
STARTCHAR a1d1
ENCODING 41425 
SWIDTH 96 0
DWIDTH 24 0
BBX 24 24 0 -2
BITMAP 
000000
000000
000000
001000
001000
001000
001000
001000
001000
001000
001000
001000
001000
001000
001000
001000
001000
001000
001000
3ffff8
000000
000000
000000
000000
ENDCHAR
STARTCHAR a1d2
ENCODING 41426 
SWIDTH 96 0
DWIDTH 24 0
BBX 24 24 0 -2
BITMAP 
000000
000000
000000
000000
000000
000000
000000
01ff80
07ffe0
1e0078
30000c
400002
800001
000000
000000
000000
000000
000000
000000
000000
000000
000000
000000
000000
ENDCHAR
STARTCHAR a1d3
ENCODING 41427 
SWIDTH 96 0
DWIDTH 24 0
BBX 24 24 0 -2
BITMAP 
000000
000000
001f00
006080
008040
000040
000040
000040
000040
007880
018480
020280
040100
040100
080200
080200
080400
080800
081000
046000
038000
000000
000000
000000
ENDCHAR
STARTCHAR a1d4
ENCODING 41428 
SWIDTH 96 0
DWIDTH 24 0
BBX 24 24 0 -2
BITMAP 
000000
000000
3ffffc
200004
100008
100008
080010
080010
040020
040020
020040
020040
010080
010080
008100
008100
004200
004200
002400
002400
001800
001800
000000
000000
ENDCHAR
STARTCHAR a1d5
ENCODING 41429 
SWIDTH 96 0
DWIDTH 24 0
BBX 24 24 0 -2
BITMAP 
000000
000000
000000
000000
1ffff8
000000
000000
000000
000000
000000
000000
1ffff8
000000
000000
000000
000000
000000
000000
1ffff8
000000
000000
000000
000000
000000
ENDCHAR
STARTCHAR a1d6
ENCODING 41430 
SWIDTH 96 0
DWIDTH 24 0
BBX 24 24 0 -2
BITMAP 
000000
000000
000000
070000
0f8000
070000
000000
000000
1ffff8
000000
000000
000000
000000
000000
000000
1ffff8
000000
000000
0000e0
0001f0
0000e0
000000
000000
000000
ENDCHAR
STARTCHAR a1ec
ENCODING 41452 
SWIDTH 96 0
DWIDTH 24 0
BBX 24 24 0 -2
BITMAP 
000000
000000
000804
001008
002010
004020
008040
010080
020100
040200
080400
301800
080400
040200
020100
010080
008040
004020
002010
001008
000804
000000
000000
000000
ENDCHAR
STARTCHAR a1ed
ENCODING 41453 
SWIDTH 96 0
DWIDTH 24 0
BBX 24 24 0 -2
BITMAP 
000000
000000
201000
100800
080400
040200
020100
010080
008040
004020
002010
00180c
002010
004020
008040
010080
020100
040200
080400
100800
201000
000000
000000
000000
ENDCHAR
STARTCHAR a1ee
ENCODING 41454 
SWIDTH 96 0
DWIDTH 24 0
BBX 24 24 0 -2
BITMAP 
000fff
000800
000800
001000
001000
001000
002000
002000
002000
004000
004000
004000
008000
008000
008000
210000
210000
510000
920000
0a0000
0a0000
040000
040000
040000
ENDCHAR
STARTCHAR a1ef
ENCODING 41455 
SWIDTH 96 0
DWIDTH 24 0
BBX 24 24 0 -2
BITMAP 
000000
000000
000000
000000
000000
000000
0381c0
0c0230
100408
200404
200804
200804
201004
201004
202004
102008
0c4030
0381c0
000000
000000
000000
000000
000000
000000
ENDCHAR
STARTCHAR a3a1
ENCODING 41889 
SWIDTH 96 0
DWIDTH 24 0
BBX 24 24 0 -2
BITMAP 
000000
001000
003800
003800
003800
003800
003800
003800
003800
003800
001000
001000
001000
001000
001000
001000
001000
000000
000000
001000
003800
003800
001000
000000
ENDCHAR
STARTCHAR a3a3
ENCODING 41891 
SWIDTH 96 0
DWIDTH 24 0
BBX 24 24 0 -2
BITMAP 
000000
000180
018180
018180
018180
018180
0181f0
01ff80
0f8180
018180
018180
018180
018180
018180
018180
0181f0
01ff80
0f8180
018180
018180
018180
018180
018000
000000
ENDCHAR
STARTCHAR a3a4
ENCODING 41892 
SWIDTH 96 0
DWIDTH 24 0
BBX 24 24 0 -2
BITMAP 
001800
001800
00ff00
019980
0318c0
0319c0
0319c0
031880
039800
01d800
00fc00
003f00
001b80
0019c0
0018e0
021860
071860
071860
0618c0
0318c0
019980
00ff00
001800
001800
ENDCHAR
STARTCHAR a3a5
ENCODING 41893 
SWIDTH 96 0
DWIDTH 24 0
BBX 24 24 0 -2
BITMAP 
000003
078006
18c00c
306018
606030
606060
c060c0
c06180
c0c300
c0c600
c18c00
631878
3c318c
006306
00c606
018606
030c06
060c06
0c0c0c
180c0c
300c18
600630
c003c0
800000
ENDCHAR
STARTCHAR a3a6
ENCODING 41894 
SWIDTH 96 0
DWIDTH 24 0
BBX 24 24 0 -2
BITMAP 
000000
000000
01f000
031800
060c00
060c00
060c00
060c00
033800
01e000
038000
06c000
0e61f0
0c7040
1c3840
1818c0
180c80
1c0f80
0c0700
0e0380
078dc0
01f878
000000
000000
ENDCHAR
STARTCHAR a3a7
ENCODING 41895 
SWIDTH 96 0
DWIDTH 24 0
BBX 24 24 0 -2
BITMAP 
000000
000000
003800
003800
003800
003800
001000
001000
001000
000000
000000
000000
000000
000000
000000
000000
000000
000000
000000
000000
000000
000000
000000
000000
ENDCHAR
STARTCHAR a3a8
ENCODING 41896 
SWIDTH 96 0
DWIDTH 24 0
BBX 24 24 0 -2
BITMAP 
000002
000004
000008
000018
000010
000030
000030
000060
000060
000060
000060
000060
000060
000060
000060
000060
000060
000030
000030
000010
000018
000008
000004
000002
ENDCHAR
STARTCHAR a3a9
ENCODING 41897 
SWIDTH 96 0
DWIDTH 24 0
BBX 24 24 0 -2
BITMAP 
400000
200000
100000
180000
080000
0c0000
0c0000
060000
060000
060000
060000
060000
060000
060000
060000
060000
060000
0c0000
0c0000
080000
180000
100000
200000
400000
ENDCHAR
STARTCHAR a3aa
ENCODING 41898 
SWIDTH 96 0
DWIDTH 24 0
BBX 24 24 0 -2
BITMAP 
000000
000000
000000
001000
003800
003800
0c3860
0e10e0
0711c0
031180
008200
000000
000000
008200
031180
0711c0
0e10e0
0c3860
003800
003800
001000
000000
000000
000000
ENDCHAR
STARTCHAR a3ab
ENCODING 41899 
SWIDTH 96 0
DWIDTH 24 0
BBX 24 24 0 -2
BITMAP 
000000
000000
000000
001800
001800
001800
001800
001800
001800
001800
001800
1ffff8
1ffff8
001800
001800
001800
001800
001800
001800
001800
001800
000000
000000
000000
ENDCHAR
STARTCHAR a3ac
ENCODING 41900 
SWIDTH 96 0
DWIDTH 24 0
BBX 24 24 0 -2
BITMAP 
000000
000000
000000
000000
000000
000000
000000
000000
000000
000000
000000
000000
000000
000000
000000
000000
000000
060000
0f0000
0f0000
070000
030000
060000
0c0000
ENDCHAR
STARTCHAR a3ad
ENCODING 41901 
SWIDTH 96 0
DWIDTH 24 0
BBX 24 24 0 -2
BITMAP 
000000
000000
000000
000000
000000
000000
000000
000000
000000
000000
000000
1ffff8
1ffff8
000000
000000
000000
000000
000000
000000
000000
000000
000000
000000
000000
ENDCHAR
STARTCHAR a3ae
ENCODING 41902 
SWIDTH 96 0
DWIDTH 24 0
BBX 24 24 0 -2
BITMAP 
000000
000000
000000
000000
000000
000000
000000
000000
000000
000000
000000
000000
000000
000000
000000
000000
000000
000000
060000
0f0000
0f0000
060000
000000
000000
ENDCHAR
STARTCHAR a3af
ENCODING 41903 
SWIDTH 96 0
DWIDTH 24 0
BBX 24 24 0 -2
BITMAP 
000003
000006
00000c
000018
000030
000060
0000c0
000180
000300
000600
000c00
001800
003000
006000
00c000
018000
030000
060000
0c0000
180000
300000
600000
c00000
800000
ENDCHAR
STARTCHAR a3b0
ENCODING 41904 
SWIDTH 96 0
DWIDTH 24 0
BBX 24 24 0 -2
BITMAP 
000000
000000
00ff00
018180
0300c0
0300c0
060060
060060
0c0030
0c0030
0c0030
0c0030
0c0030
0c0030
0c0030
0c0030
060060
060060
0300c0
0300c0
018180
00ff00
000000
000000
ENDCHAR
STARTCHAR a3b1
ENCODING 41905 
SWIDTH 96 0
DWIDTH 24 0
BBX 24 24 0 -2
BITMAP 
000000
000000
001800
007800
01f800
001800
001800
001800
001800
001800
001800
001800
001800
001800
001800
001800
001800
001800
001800
001800
001800
01ff80
000000
000000
ENDCHAR
STARTCHAR a3b2
ENCODING 41906 
SWIDTH 96 0
DWIDTH 24 0
BBX 24 24 0 -2
BITMAP 
000000
000000
01ff80
0700c0
0e0060
0f0030
0f0030
060030
000060
0000c0
000380
000e00
003800
00e000
018000
030000
060000
0c0010
0c0010
0c0010
0ffff0
0ffff0
000000
000000
ENDCHAR
STARTCHAR a3b3
ENCODING 41907 
SWIDTH 96 0
DWIDTH 24 0
BBX 24 24 0 -2
BITMAP 
000000
000000
00ff00
0381c0
070060
078030
078030
030030
000060
0000c0
000380
003e00
000380
0000e0
000060
000030
060030
0f0030
0f0060
0e0060
0701c0
01ff00
000000
000000
ENDCHAR
STARTCHAR a3b4
ENCODING 41908 
SWIDTH 96 0
DWIDTH 24 0
BBX 24 24 0 -2
BITMAP 
000000
000000
000300
000700
000f00
001b00
003300
006300
00c300
018300
030300
060300
0c0300
180300
300300
300300
3ffff8
000300
000300
000300
000300
001fe0
000000
000000
ENDCHAR
STARTCHAR a3b5
ENCODING 41909 
SWIDTH 96 0
DWIDTH 24 0
BBX 24 24 0 -2
BITMAP 
000000
000000
07ffe0
07ffe0
060000
060000
060000
060000
060000
063e00
06c380
0701c0
060060
000030
000030
000030
060030
0f0030
0f0060
0600c0
030380
01fe00
000000
000000
ENDCHAR
STARTCHAR a3b6
ENCODING 41910 
SWIDTH 96 0
DWIDTH 24 0
BBX 24 24 0 -2
BITMAP 
000000
000000
007f80
01c0c0
0381e0
0601e0
0600c0
0c0000
0c0000
0c0000
0c7f00
0dc1c0
0f00e0
0e0060
0c0030
0c0030
0c0030
0c0030
060060
0700e0
0381c0
00ff00
000000
000000
ENDCHAR
STARTCHAR a3b7
ENCODING 41911 
SWIDTH 96 0
DWIDTH 24 0
BBX 24 24 0 -2
BITMAP 
000000
000000
07fff0
0ffff0
080030
080030
080060
000060
0000c0
000180
000300
000600
000c00
000c00
001800
001800
001800
001800
001800
001800
001800
001800
000000
000000
ENDCHAR
STARTCHAR a3b8
ENCODING 41912 
SWIDTH 96 0
DWIDTH 24 0
BBX 24 24 0 -2
BITMAP 
000000
000000
00ff00
018180
0300c0
060060
060060
060060
0300c0
018180
00e700
007e00
01c380
0300c0
060060
0c0030
0c0030
0c0030
0c0030
060060
0300c0
01ff80
000000
000000
ENDCHAR
STARTCHAR a3b9
ENCODING 41913 
SWIDTH 96 0
DWIDTH 24 0
BBX 24 24 0 -2
BITMAP 
000000
000000
00ff00
0381c0
0700e0
060060
0c0030
0c0030
0c0030
0c0030
060070
0700f0
0383b0
00fe30
000030
000030
000030
030060
078060
0781c0
030380
01fe00
000000
000000
ENDCHAR
STARTCHAR a3ba
ENCODING 41914 
SWIDTH 96 0
DWIDTH 24 0
BBX 24 24 0 -2
BITMAP 
000000
000000
000000
000000
000000
000000
001800
003c00
003c00
001800
000000
000000
000000
000000
001800
003c00
003c00
001800
000000
000000
000000
000000
000000
000000
ENDCHAR
STARTCHAR a3bb
ENCODING 41915 
SWIDTH 96 0
DWIDTH 24 0
BBX 24 24 0 -2
BITMAP 
000000
000000
000000
000000
000000
000000
001800
003c00
003c00
001800
000000
000000
000000
000000
001800
003c00
003c00
001c00
000c00
001800
003000
000000
000000
000000
ENDCHAR
STARTCHAR a3bc
ENCODING 41916 
SWIDTH 96 0
DWIDTH 24 0
BBX 24 24 0 -2
BITMAP 
000000
000000
000000
000018
000070
0001c0
000700
001c00
007000
01c000
070000
1c0000
300000
1c0000
070000
01c000
007000
001c00
000700
0001c0
000070
000018
000000
000000
ENDCHAR
STARTCHAR a3bd
ENCODING 41917 
SWIDTH 96 0
DWIDTH 24 0
BBX 24 24 0 -2
BITMAP 
000000
000000
000000
000000
000000
000000
000000
000000
1ffff8
1ffff8
000000
000000
000000
000000
1ffff8
1ffff8
000000
000000
000000
000000
000000
000000
000000
000000
ENDCHAR
STARTCHAR a3be
ENCODING 41918 
SWIDTH 96 0
DWIDTH 24 0
BBX 24 24 0 -2
BITMAP 
000000
000000
000000
300000
1c0000
070000
01c000
007000
001c00
000700
0001c0
000070
000018
000070
0001c0
000700
001c00
007000
01c000
070000
1c0000
300000
000000
000000
ENDCHAR
STARTCHAR a3bf
ENCODING 41919 
SWIDTH 96 0
DWIDTH 24 0
BBX 24 24 0 -2
BITMAP 
000000
007800
018600
030300
060180
070180
070180
020300
000300
000600
000c00
000c00
000800
001800
001000
001000
001000
000000
000000
001000
003800
003800
001000
000000
ENDCHAR
STARTCHAR a3c0
ENCODING 41920 
SWIDTH 96 0
DWIDTH 24 0
BBX 24 24 0 -2
BITMAP 
000000
000000
00ff00
0381c0
060060
0c0030
183d90
10e398
318188
218188
230188
230308
230308
230318
230710
318b30
10f1e0
180000
0c0010
060060
0381c0
00ff00
000000
000000
ENDCHAR
STARTCHAR a3c1
ENCODING 41921 
SWIDTH 96 0
DWIDTH 24 0
BBX 24 24 0 -2
BITMAP 
000000
000000
001800
003c00
003c00
007e00
006600
006600
00e700
00c300
01c380
018180
018180
0381c0
03ffc0
0700e0
060060
060060
0e0070
0e0070
0c0030
3f00fc
000000
000000
ENDCHAR
STARTCHAR a3c2
ENCODING 41922 
SWIDTH 96 0
DWIDTH 24 0
BBX 24 24 0 -2
BITMAP 
000000
000000
0ffe00
030380
0300c0
030060
030060
030060
030060
0300c0
030180
03ff00
0301c0
030070
030030
030018
030018
030018
030030
030030
0300e0
0fff80
000000
000000
ENDCHAR
STARTCHAR a3c3
ENCODING 41923 
SWIDTH 96 0
DWIDTH 24 0
BBX 24 24 0 -2
BITMAP 
000000
000000
00ff10
0381f0
0600f0
0e0070
0c0030
1c0010
180000
180000
180000
180000
180000
180000
180000
1c0000
0c0000
0c0030
060060
0300c0
01c180
007f00
000000
000000
ENDCHAR
STARTCHAR a3c4
ENCODING 41924 
SWIDTH 96 0
DWIDTH 24 0
BBX 24 24 0 -2
BITMAP 
000000
000000
1ffe00
060380
0600e0
060060
060030
060030
060018
060018
060018
060018
060018
060018
060018
060018
060030
060030
060060
0600e0
060380
1ffe00
000000
000000
ENDCHAR
STARTCHAR a3c5
ENCODING 41925 
SWIDTH 96 0
DWIDTH 24 0
BBX 24 24 0 -2
BITMAP 
000000
000000
0fffe0
0300e0
030060
030020
030020
030000
030200
030200
030600
03fe00
030600
030200
030200
030000
030000
030020
030020
030060
0300e0
0fffe0
000000
000000
ENDCHAR
STARTCHAR a3c6
ENCODING 41926 
SWIDTH 96 0
DWIDTH 24 0
BBX 24 24 0 -2
BITMAP 
000000
000000
0fffe0
0300e0
030060
030020
030020
030000
030200
030200
030600
03fe00
030600
030200
030200
030000
030000
030000
030000
030000
030000
0fc000
000000
000000
ENDCHAR
STARTCHAR a3c7
ENCODING 41927 
SWIDTH 96 0
DWIDTH 24 0
BBX 24 24 0 -2
BITMAP 
000000
000000
00fe20
0381e0
0700e0
060060
0c0020
0c0020
1c0000
180000
180000
180000
1801f8
180060
180060
1c0060
0c0060
0c00e0
0600e0
0701e0
038360
00fe60
000000
000000
ENDCHAR
STARTCHAR a3c8
ENCODING 41928 
SWIDTH 96 0
DWIDTH 24 0
BBX 24 24 0 -2
BITMAP 
000000
000000
1f81f8
060060
060060
060060
060060
060060
060060
060060
060060
07ffe0
060060
060060
060060
060060
060060
060060
060060
060060
060060
1f81f8
000000
000000
ENDCHAR
STARTCHAR a3c9
ENCODING 41929 
SWIDTH 96 0
DWIDTH 24 0
BBX 24 24 0 -2
BITMAP 
000000
000000
00ff00
001800
001800
001800
001800
001800
001800
001800
001800
001800
001800
001800
001800
001800
001800
001800
001800
001800
001800
00ff00
000000
000000
ENDCHAR
STARTCHAR a3ca
ENCODING 41930 
SWIDTH 96 0
DWIDTH 24 0
BBX 24 24 0 -2
BITMAP 
000000
000000
0007e0
000180
000180
000180
000180
000180
000180
000180
000180
000180
000180
000180
000180
060180
0f0180
0f0180
0e0380
060300
030e00
01f800
000000
000000
ENDCHAR
STARTCHAR a3cb
ENCODING 41931 
SWIDTH 96 0
DWIDTH 24 0
BBX 24 24 0 -2
BITMAP 
000000
000000
1f83f8
0600c0
060180
060300
060600
060c00
061800
063000
067000
06f800
079c00
070c00
060e00
060600
060300
060380
0601c0
0601c0
0600e0
1f83f8
000000
000000
ENDCHAR
STARTCHAR a3cc
ENCODING 41932 
SWIDTH 96 0
DWIDTH 24 0
BBX 24 24 0 -2
BITMAP 
000000
000000
0fc000
030000
030000
030000
030000
030000
030000
030000
030000
030000
030000
030000
030000
030000
030000
030010
030010
030030
030070
0ffff0
000000
000000
ENDCHAR
STARTCHAR a3cd
ENCODING 41933 
SWIDTH 96 0
DWIDTH 24 0
BBX 24 24 0 -2
BITMAP 
000000
000000
3c003c
1c0038
1e0078
1e0078
1b00d8
1b00d8
1b81d8
198198
19c398
18c318
18e718
186618
187e18
183c18
183c18
181818
181818
180018
180018
7e007e
000000
000000
ENDCHAR
STARTCHAR a3ce
ENCODING 41934 
SWIDTH 96 0
DWIDTH 24 0
BBX 24 24 0 -2
BITMAP 
000000
000000
3f00fc
0f8030
0d8030
0dc030
0ce030
0c6030
0c7030
0c3830
0c1830
0c1c30
0c0e30
0c0630
0c0730
0c03b0
0c01b0
0c01f0
0c00f0
0c0070
0c0070
3f0030
000000
000000
ENDCHAR
STARTCHAR a3cf
ENCODING 41935 
SWIDTH 96 0
DWIDTH 24 0
BBX 24 24 0 -2
BITMAP 
000000
000000
00ff00
0381c0
060060
0e0070
0c0030
0c0030
1c0038
180018
180018
180018
180018
180018
180018
1c0038
0c0030
0c0030
0e0070
060060
0381c0
00ff00
000000
000000
ENDCHAR
STARTCHAR a3d0
ENCODING 41936 
SWIDTH 96 0
DWIDTH 24 0
BBX 24 24 0 -2
BITMAP 
000000
000000
0fff00
0301c0
030060
030060
030030
030030
030030
030060
030060
0301c0
03ff00
030000
030000
030000
030000
030000
030000
030000
030000
0fc000
000000
000000
ENDCHAR
STARTCHAR a3d1
ENCODING 41937 
SWIDTH 96 0
DWIDTH 24 0
BBX 24 24 0 -2
BITMAP 
000000
000000
00ff00
0381c0
060060
0e0070
0c0030
0c0030
1c0038
180018
180018
180018
180018
180018
180018
1c0038
0c1c30
0c3630
0e0330
0601e0
0381c0
00ff63
00003e
00001c
ENDCHAR
STARTCHAR a3d2
ENCODING 41938 
SWIDTH 96 0
DWIDTH 24 0
BBX 24 24 0 -2
BITMAP 
000000
000000
0ffe00
030380
0300c0
0300c0
030060
030060
030060
0300c0
030080
030380
03fe00
030c00
030600
030300
030300
030180
030180
0300c0
030060
0fc1f8
000000
000000
ENDCHAR
STARTCHAR a3d3
ENCODING 41939 
SWIDTH 96 0
DWIDTH 24 0
BBX 24 24 0 -2
BITMAP 
000000
000000
00ff20
0181e0
0300e0
060060
060020
070000
038000
01e000
007800
001e00
000780
0001e0
000070
040030
040030
060030
070070
078060
06c0c0
047f80
000000
000000
ENDCHAR
STARTCHAR a3d4
ENCODING 41940 
SWIDTH 96 0
DWIDTH 24 0
BBX 24 24 0 -2
BITMAP 
000000
000000
0ffff0
0e1870
0c1830
081810
081810
001800
001800
001800
001800
001800
001800
001800
001800
001800
001800
001800
001800
001800
001800
007e00
000000
000000
ENDCHAR
STARTCHAR a3d5
ENCODING 41941 
SWIDTH 96 0
DWIDTH 24 0
BBX 24 24 0 -2
BITMAP 
000000
000000
1f81f8
060060
060060
060060
060060
060060
060060
060060
060060
060060
060060
060060
060060
060060
060060
060060
0300c0
0381c0
01c380
00ff00
000000
000000
ENDCHAR
STARTCHAR a3d6
ENCODING 41942 
SWIDTH 96 0
DWIDTH 24 0
BBX 24 24 0 -2
BITMAP 
000000
000000
3f00fc
0c0030
0c0030
0e0070
060060
060060
0700e0
0300c0
0300c0
0381c0
018180
01c180
00c300
00c300
006600
006600
003c00
003c00
001800
001800
000000
000000
ENDCHAR
STARTCHAR a3d7
ENCODING 41943 
SWIDTH 96 0
DWIDTH 24 0
BBX 24 24 0 -2
BITMAP 
000000
000000
fc7e3f
30180c
30180c
383c1c
187e18
186618
186618
1ce738
0cc330
0cc330
0cc330
0cc330
0f81f0
0781e0
0781e0
0781e0
0300c0
0300c0
0300c0
0300c0
000000
000000
ENDCHAR
STARTCHAR a3d8
ENCODING 41944 
SWIDTH 96 0
DWIDTH 24 0
BBX 24 24 0 -2
BITMAP 
000000
000000
3f00fc
0e0070
070060
0300c0
038180
01c380
00e300
00e600
007e00
003c00
003c00
007e00
006700
00c700
01c380
0181c0
0300c0
0600e0
0e0070
3f00fc
000000
000000
ENDCHAR
STARTCHAR a3d9
ENCODING 41945 
SWIDTH 96 0
DWIDTH 24 0
BBX 24 24 0 -2
BITMAP 
000000
000000
3f81fc
0e0070
060060
0700e0
0381c0
01c380
00c300
00e700
007e00
003c00
001800
001800
001800
001800
001800
001800
001800
001800
001800
007e00
000000
000000
ENDCHAR
STARTCHAR a3da
ENCODING 41946 
SWIDTH 96 0
DWIDTH 24 0
BBX 24 24 0 -2
BITMAP 
000000
000000
0ffff0
0e0070
0c00e0
0801c0
0801c0
000380
000700
000e00
000e00
001c00
003800
007000
00e000
01c000
038000
030008
070008
0e0018
1c0038
1ffff8
000000
000000
ENDCHAR
STARTCHAR a3db
ENCODING 41947 
SWIDTH 96 0
DWIDTH 24 0
BBX 24 24 0 -2
BITMAP 
0000fc
000080
000080
000080
000080
000080
000080
000080
000080
000080
000080
000080
000080
000080
000080
000080
000080
000080
000080
000080
000080
000080
000080
0000fc
ENDCHAR
STARTCHAR a3dc
ENCODING 41948 
SWIDTH 96 0
DWIDTH 24 0
BBX 24 24 0 -2
BITMAP 
000000
000000
78001e
30000c
30180c
181818
181818
181818
0c1830
0c6630
0c6630
ffffff
ffffff
066660
066660
066660
03c3c0
03c3c0
03c3c0
018180
018180
018180
000000
000000
ENDCHAR
STARTCHAR a3dd
ENCODING 41949 
SWIDTH 96 0
DWIDTH 24 0
BBX 24 24 0 -2
BITMAP 
3f0000
010000
010000
010000
010000
010000
010000
010000
010000
010000
010000
010000
010000
010000
010000
010000
010000
010000
010000
010000
010000
010000
010000
3f0000
ENDCHAR
STARTCHAR a3de
ENCODING 41950 
SWIDTH 96 0
DWIDTH 24 0
BBX 24 24 0 -2
BITMAP 
000000
001800
003c00
006600
00c300
018180
010080
000000
000000
000000
000000
000000
000000
000000
000000
000000
000000
000000
000000
000000
000000
000000
000000
000000
ENDCHAR
STARTCHAR a3df
ENCODING 41951 
SWIDTH 96 0
DWIDTH 24 0
BBX 24 24 0 -2
BITMAP 
000000
000000
000000
000000
000000
000000
000000
000000
000000
000000
000000
000000
000000
000000
000000
000000
000000
000000
000000
000000
000000
000000
000000
ffffff
ENDCHAR
STARTCHAR a3e0
ENCODING 41952 
SWIDTH 96 0
DWIDTH 24 0
BBX 24 24 0 -2
BITMAP 
006000
00f000
003c00
000700
000000
000000
000000
000000
000000
000000
000000
000000
000000
000000
000000
000000
000000
000000
000000
000000
000000
000000
000000
000000
ENDCHAR
STARTCHAR a3e1
ENCODING 41953 
SWIDTH 96 0
DWIDTH 24 0
BBX 24 24 0 -2
BITMAP 
000000
000000
000000
000000
000000
000000
000000
000000
000000
01fc00
030600
078300
020300
000300
00ff00
038300
060300
060300
060300
060300
070f20
03f9c0
000000
000000
ENDCHAR
STARTCHAR a3e2
ENCODING 41954 
SWIDTH 96 0
DWIDTH 24 0
BBX 24 24 0 -2
BITMAP 
000000
000000
0f0000
030000
030000
030000
030000
030000
030000
037f00
03c180
0380c0
0300c0
030060
030060
030060
030060
030060
0300c0
0380c0
03c180
0f7f00
000000
000000
ENDCHAR
STARTCHAR a3e3
ENCODING 41955 
SWIDTH 96 0
DWIDTH 24 0
BBX 24 24 0 -2
BITMAP 
000000
000000
000000
000000
000000
000000
000000
000000
000000
00ff00
018380
0301c0
0303c0
060180
060000
060000
060000
060000
030000
0300c0
018180
00ff00
000000
000000
ENDCHAR
STARTCHAR a3e4
ENCODING 41956 
SWIDTH 96 0
DWIDTH 24 0
BBX 24 24 0 -2
BITMAP 
000000
000000
0003c0
0000c0
0000c0
0000c0
0000c0
0000c0
0000c0
00fec0
0183c0
0301c0
0300c0
0600c0
0600c0
0600c0
0600c0
0600c0
0300c0
0301c0
0183c0
00fe40
000000
000000
ENDCHAR
STARTCHAR a3e5
ENCODING 41957 
SWIDTH 96 0
DWIDTH 24 0
BBX 24 24 0 -2
BITMAP 
000000
000000
000000
000000
000000
000000
000000
000000
000000
00ff00
018180
0300c0
0300c0
060060
060060
07ffe0
060000
060000
030000
030060
0180c0
00ff80
000000
000000
ENDCHAR
STARTCHAR a3e6
ENCODING 41958 
SWIDTH 96 0
DWIDTH 24 0
BBX 24 24 0 -2
BITMAP 
000000
000000
001f00
003380
006380
006100
006000
006000
006000
07ff00
006000
006000
006000
006000
006000
006000
006000
006000
006000
006000
006000
01f800
000000
000000
ENDCHAR
STARTCHAR a3e7
ENCODING 41959 
SWIDTH 96 0
DWIDTH 24 0
BBX 24 24 0 -2
BITMAP 
000000
000000
000000
000000
000000
000000
000000
000000
000000
00fcc0
0187c0
030380
030300
030300
018600
00fc00
018000
01f000
033f00
060780
0600c0
0600c0
030180
01ff00
ENDCHAR
STARTCHAR a3e8
ENCODING 41960 
SWIDTH 96 0
DWIDTH 24 0
BBX 24 24 0 -2
BITMAP 
000000
000000
0f0000
030000
030000
030000
030000
030000
030000
033f00
036380
03c1c0
0380c0
0300c0
0300c0
0300c0
0300c0
0300c0
0300c0
0300c0
0300c0
0fc3f0
000000
000000
ENDCHAR
STARTCHAR a3e9
ENCODING 41961 
SWIDTH 96 0
DWIDTH 24 0
BBX 24 24 0 -2
BITMAP 
000000
000000
001800
003c00
003c00
001800
000000
000000
000000
007800
001800
001800
001800
001800
001800
001800
001800
001800
001800
001800
001800
007e00
000000
000000
ENDCHAR
STARTCHAR a3ea
ENCODING 41962 
SWIDTH 96 0
DWIDTH 24 0
BBX 24 24 0 -2
BITMAP 
000000
000000
000c00
001e00
001e00
000c00
000000
000000
000000
001e00
000600
000600
000600
000600
000600
000600
000600
000600
000600
018600
03c600
038600
018c00
00f800
ENDCHAR
STARTCHAR a3eb
ENCODING 41963 
SWIDTH 96 0
DWIDTH 24 0
BBX 24 24 0 -2
BITMAP 
000000
000000
0f0000
030000
030000
030000
030000
030000
030000
030fc0
030300
030600
030c00
031800
033800
036c00
03c600
030300
030180
0300c0
030060
0fc1f8
000000
000000
ENDCHAR
STARTCHAR a3ec
ENCODING 41964 
SWIDTH 96 0
DWIDTH 24 0
BBX 24 24 0 -2
BITMAP 
000000
000000
007800
001800
001800
001800
001800
001800
001800
001800
001800
001800
001800
001800
001800
001800
001800
001800
001800
001800
001800
007e00
000000
000000
ENDCHAR
STARTCHAR a3ed
ENCODING 41965 
SWIDTH 96 0
DWIDTH 24 0
BBX 24 24 0 -2
BITMAP 
000000
000000
000000
000000
000000
000000
000000
000000
000000
79e3e0
1f3630
1c1c18
181818
181818
181818
181818
181818
181818
181818
181818
181818
7e3c3c
000000
000000
ENDCHAR
STARTCHAR a3ee
ENCODING 41966 
SWIDTH 96 0
DWIDTH 24 0
BBX 24 24 0 -2
BITMAP 
000000
000000
000000
000000
000000
000000
000000
000000
000000
0f3f00
036180
03c0c0
0380c0
0300c0
0300c0
0300c0
0300c0
0300c0
0300c0
0300c0
0300c0
0fc3f0
000000
000000
ENDCHAR
STARTCHAR a3ef
ENCODING 41967 
SWIDTH 96 0
DWIDTH 24 0
BBX 24 24 0 -2
BITMAP 
000000
000000
000000
000000
000000
000000
000000
000000
000000
00ff00
018180
0300c0
0300c0
060060
060060
060060
060060
060060
0300c0
0300c0
018180
00ff00
000000
000000
ENDCHAR
STARTCHAR a3f0
ENCODING 41968 
SWIDTH 96 0
DWIDTH 24 0
BBX 24 24 0 -2
BITMAP 
000000
000000
000000
000000
000000
000000
000000
000000
000000
07bf00
01e180
01c0c0
0180c0
018060
018060
018060
0180c0
01c0c0
01e180
01bf00
018000
018000
018000
07e000
ENDCHAR
STARTCHAR a3f1
ENCODING 41969 
SWIDTH 96 0
DWIDTH 24 0
BBX 24 24 0 -2
BITMAP 
000000
000000
000000
000000
000000
000000
000000
000000
000000
00fc80
018780
030380
030180
060180
060180
060180
030180
030380
018780
00fd80
000180
000180
000180
0007e0
ENDCHAR
STARTCHAR a3f2
ENCODING 41970 
SWIDTH 96 0
DWIDTH 24 0
BBX 24 24 0 -2
BITMAP 
000000
000000
000000
000000
000000
000000
000000
000000
000000
079f00
01b380
01e3c0
01c180
018000
018000
018000
018000
018000
018000
018000
018000
07e000
000000
000000
ENDCHAR
STARTCHAR a3f3
ENCODING 41971 
SWIDTH 96 0
DWIDTH 24 0
BBX 24 24 0 -2
BITMAP 
000000
000000
000000
000000
000000
000000
000000
000000
000000
00fe00
018380
030180
030080
03c000
01f000
003e00
000f80
0001c0
0200c0
0300c0
038180
00ff00
000000
000000
ENDCHAR
STARTCHAR a3f4
ENCODING 41972 
SWIDTH 96 0
DWIDTH 24 0
BBX 24 24 0 -2
BITMAP 
000000
000000
000000
000000
002000
006000
006000
006000
006000
03ff00
006000
006000
006000
006000
006000
006000
006000
006000
006180
006180
003300
001e00
000000
000000
ENDCHAR
STARTCHAR a3f5
ENCODING 41973 
SWIDTH 96 0
DWIDTH 24 0
BBX 24 24 0 -2
BITMAP 
000000
000000
000000
000000
000000
000000
000000
000000
000000
0f03c0
0300c0
0300c0
0300c0
0300c0
0300c0
0300c0
0300c0
0300c0
0301c0
0303c0
0186c0
00fcf0
000000
000000
ENDCHAR
STARTCHAR a3f6
ENCODING 41974 
SWIDTH 96 0
DWIDTH 24 0
BBX 24 24 0 -2
BITMAP 
000000
000000
000000
000000
000000
000000
000000
000000
000000
0fc3f0
0300c0
0300c0
018180
018180
00c300
00c300
006600
006600
003c00
003c00
001800
001800
000000
000000
ENDCHAR
STARTCHAR a3f7
ENCODING 41975 
SWIDTH 96 0
DWIDTH 24 0
BBX 24 24 0 -2
BITMAP 
000000
000000
000000
000000
000000
000000
000000
000000
000000
3c7c78
183830
183830
187c30
0c6c60
0cc660
0cc660
0cc660
0783c0
0783c0
030180
030180
030180
000000
000000
ENDCHAR
STARTCHAR a3f8
ENCODING 41976 
SWIDTH 96 0
DWIDTH 24 0
BBX 24 24 0 -2
BITMAP 
000000
000000
000000
000000
000000
000000
000000
000000
000000
0fc3f0
0300c0
018180
00c300
006600
003c00
001800
003c00
006600
00c300
018180
0300c0
0fc3f0
000000
000000
ENDCHAR
STARTCHAR a3f9
ENCODING 41977 
SWIDTH 96 0
DWIDTH 24 0
BBX 24 24 0 -2
BITMAP 
000000
000000
000000
000000
000000
000000
000000
000000
000000
0fc1f8
030060
0180c0
00c0c0
006180
006180
003300
001e00
001e00
000c00
001800
031800
073000
066000
03c000
ENDCHAR
STARTCHAR a3fa
ENCODING 41978 
SWIDTH 96 0
DWIDTH 24 0
BBX 24 24 0 -2
BITMAP 
000000
000000
000000
000000
000000
000000
000000
000000
000000
03ffc0
0300c0
020180
020300
000600
000c00
001800
003000
006020
00c020
018020
030060
03ffe0
000000
000000
ENDCHAR
STARTCHAR a3fb
ENCODING 41979 
SWIDTH 96 0
DWIDTH 24 0
BBX 24 24 0 -2
BITMAP 
00001e
000030
000060
000060
000060
000060
000060
000060
000060
000060
0000c0
000180
000180
0000c0
000060
000060
000060
000060
000060
000060
000060
000060
000030
00001e
ENDCHAR
STARTCHAR a3fc
ENCODING 41980 
SWIDTH 96 0
DWIDTH 24 0
BBX 24 24 0 -2
BITMAP 
001800
001800
001800
001800
001800
001800
001800
001800
001800
001800
001800
001800
001800
001800
001800
001800
001800
001800
001800
001800
001800
001800
001800
001800
ENDCHAR
STARTCHAR a3fd
ENCODING 41981 
SWIDTH 96 0
DWIDTH 24 0
BBX 24 24 0 -2
BITMAP 
780000
0c0000
060000
060000
060000
060000
060000
060000
060000
060000
030000
018000
018000
030000
060000
060000
060000
060000
060000
060000
060000
060000
0c0000
780000
ENDCHAR
STARTCHAR a3fe
ENCODING 41982 
SWIDTH 96 0
DWIDTH 24 0
BBX 24 24 0 -2
BITMAP 
ffffff
000000
000000
000000
000000
000000
000000
000000
000000
000000
000000
000000
000000
000000
000000
000000
000000
000000
000000
000000
000000
000000
000000
000000
ENDCHAR
STARTCHAR a4d5
ENCODING 42197 
SWIDTH 96 0
DWIDTH 24 0
BBX 24 24 0 -2
BITMAP 
000000
000000
000000
000000
000000
e03800
380e00
180600
180600
180600
180600
180600
180600
180600
180600
180e00
183600
1fc606
0f03ff
000000
000000
000000
000000
000000
ENDCHAR
STARTCHAR a4d6
ENCODING 42198 
SWIDTH 96 0
DWIDTH 24 0
BBX 24 24 0 -2
BITMAP 
000000
000000
000000
000000
000000
e0000c
703ffe
300e00
300600
300600
300600
300600
300600
300600
300600
301600
306600
3f8606
1e03ff
000000
000000
000000
000000
000000
ENDCHAR
STARTCHAR a4d7
ENCODING 42199 
SWIDTH 96 0
DWIDTH 24 0
BBX 24 24 0 -2
BITMAP 
000000
000000
000000
000000
000000
e00380
3000c0
3000c0
3000c0
3000c0
3000c0
3000c0
3000c0
3001e0
3001b0
301318
30660e
3f8c07
1e1002
000000
000000
000000
000000
000000
ENDCHAR
STARTCHAR a4d8
ENCODING 42200 
SWIDTH 96 0
DWIDTH 24 0
BBX 24 24 0 -2
BITMAP 
000000
000000
000000
000000
000000
e000c0
3000c0
3001e0
300120
300330
300210
300618
300408
300c0c
300804
303806
30f002
3f3003
1c3fff
000000
000000
000000
000000
000000
ENDCHAR
STARTCHAR a4d9
ENCODING 42201 
SWIDTH 96 0
DWIDTH 24 0
BBX 24 24 0 -2
BITMAP 
000000
000000
000000
000000
000000
fffce0
068c30
060c30
060c30
060c30
040c30
fe0c30
e00c30
600c70
600c78
608ccc
630d86
7c0f03
300c01
000000
000000
000000
000000
000000
ENDCHAR
STARTCHAR a4da
ENCODING 42202 
SWIDTH 96 0
DWIDTH 24 0
BBX 24 24 0 -2
BITMAP 
000000
000000
000000
000000
000000
ffc00c
419ffe
018600
018600
018600
010600
ff8600
600600
600600
600600
600600
60e600
7f0606
3803ff
000000
000000
000000
000000
000000
ENDCHAR
STARTCHAR a4db
ENCODING 42203 
SWIDTH 96 0
DWIDTH 24 0
BBX 24 24 0 -2
BITMAP 
000000
000000
000000
000000
000000
ffc630
066318
066318
066318
066318
046318
fe7f18
e06318
606338
60633c
616366
6663c3
787f83
304201
000000
000000
000000
000000
000000
ENDCHAR
STARTCHAR a4dc
ENCODING 42204 
SWIDTH 96 0
DWIDTH 24 0
BBX 24 24 0 -2
BITMAP 
000000
000000
000000
000000
000000
ffe0c0
0181e0
018120
018330
018210
010618
ff8408
600c0c
600804
601806
605002
61b003
7e3fff
380000
000000
000000
000000
000000
000000
ENDCHAR
STARTCHAR a4dd
ENCODING 42205 
SWIDTH 96 0
DWIDTH 24 0
BBX 24 24 0 -2
BITMAP 
000000
000000
000000
000000
000000
ffc00c
01bffe
019800
018080
0181c0
010630
ff8c18
60180c
60180c
60180c
60180c
61cc18
7e0630
3803e0
000000
000000
000000
000000
000000
ENDCHAR
STARTCHAR a4de
ENCODING 42206 
SWIDTH 96 0
DWIDTH 24 0
BBX 24 24 0 -2
BITMAP 
000000
000000
000000
000000
000000
ffd818
60cc0c
60cc0c
60cc0c
60cc0c
60cc0c
60cffc
60cc0c
60cc0c
60cc0c
60cc0c
60cc0c
7fcffc
408808
000000
000000
000000
000000
000000
ENDCHAR
STARTCHAR a4df
ENCODING 42207 
SWIDTH 96 0
DWIDTH 24 0
BBX 24 24 0 -2
BITMAP 
000000
000000
000000
000000
000000
ffe1c0
60c060
60c060
60c060
60c060
60c060
60c060
60c060
60c0e0
60c0f0
60c198
60c30e
7fc607
408803
000000
000000
000000
000000
000000
ENDCHAR
STARTCHAR a4e0
ENCODING 42208 
SWIDTH 96 0
DWIDTH 24 0
BBX 24 24 0 -2
BITMAP 
000000
000000
000000
000000
000000
ffe0c0
60c1e0
60c120
60c330
60c210
60c618
60c408
60cc0c
60c804
60d806
60d002
60f003
7fffff
408000
000000
000000
000000
000000
000000
ENDCHAR
STARTCHAR a4e1
ENCODING 42209 
SWIDTH 96 0
DWIDTH 24 0
BBX 24 24 0 -2
BITMAP 
000000
000000
000000
000000
000000
1ffff0
060060
060060
060060
060040
07ffe0
040000
000800
007f00
0180c0
030060
060030
030060
0180c0
007f00
000000
000000
000000
000000
ENDCHAR
STARTCHAR a4e2
ENCODING 42210 
SWIDTH 96 0
DWIDTH 24 0
BBX 24 24 0 -2
BITMAP 
000000
000000
000000
000000
000000
c0cffe
606606
606006
606006
606006
606006
7fe006
606006
606006
606006
606006
606006
7fe006
404004
000000
000000
000000
000000
000000
ENDCHAR
STARTCHAR a4e3
ENCODING 42211 
SWIDTH 96 0
DWIDTH 24 0
BBX 24 24 0 -2
BITMAP 
000000
000000
000000
000000
000000
c0dffe
606600
606600
606600
606600
606600
7fe600
606600
606600
606600
606600
606606
7fe3ff
404000
000000
000000
000000
000000
000000
ENDCHAR
STARTCHAR a4e4
ENCODING 42212 
SWIDTH 96 0
DWIDTH 24 0
BBX 24 24 0 -2
BITMAP 
000000
000000
000000
000000
000000
c633f8
631918
631818
631818
631818
631818
7f1818
631818
631818
633c18
636618
63c318
7f8198
410090
000000
000000
000000
000000
000000
ENDCHAR
STARTCHAR a4e5
ENCODING 42213 
SWIDTH 96 0
DWIDTH 24 0
BBX 24 24 0 -2
BITMAP 
000000
000000
000000
000000
000000
c631fe
6318c0
6318c0
6318c0
6318c0
6318c0
7f18c0
6318c0
6338c0
636cc0
63c6c0
6387c0
7f03c6
42007f
000000
000000
000000
000000
000000
ENDCHAR
STARTCHAR a4e6
ENCODING 42214 
SWIDTH 96 0
DWIDTH 24 0
BBX 24 24 0 -2
BITMAP 
000000
000000
000000
000000
000006
c0cfff
606660
606060
606060
606060
606060
7fe060
6060e0
6061b0
606318
60660e
606c07
7ff803
406000
000000
000000
000000
000000
000000
ENDCHAR
STARTCHAR a4e7
ENCODING 42215 
SWIDTH 96 0
DWIDTH 24 0
BBX 24 24 0 -2
BITMAP 
000000
000000
000000
000000
000000
c0dffe
606600
606600
606600
606600
606604
7fe7fe
606600
606600
606600
606600
606602
7fe7ff
404000
000000
000000
000000
000000
000000
ENDCHAR
STARTCHAR a4e8
ENCODING 42216 
SWIDTH 96 0
DWIDTH 24 0
BBX 24 24 0 -2
BITMAP 
000000
000000
000000
000000
0e00e0
030030
030030
03fff0
030030
030030
03fff0
020020
000000
000800
00ff80
030060
060030
060030
060030
030060
00ff80
000000
000000
000000
ENDCHAR
STARTCHAR a4e9
ENCODING 42217 
SWIDTH 96 0
DWIDTH 24 0
BBX 24 24 0 -2
BITMAP 
000000
000000
000000
000000
30cc30
186618
186618
1fe7f8
186618
186618
1fe7f8
104410
001000
01ff80
060060
0c0030
0c0030
0c0030
060060
01ff80
000000
000000
000000
000000
ENDCHAR
STARTCHAR a4ea
ENCODING 42218 
SWIDTH 96 0
DWIDTH 24 0
BBX 24 24 0 -2
BITMAP 
000000
000000
000000
000000
000000
1c0ffc
06060c
06000c
06000c
06000c
06000c
06000c
06000c
0e000c
0d000c
18c00c
30700c
60380c
801008
000000
000000
000000
000000
000000
ENDCHAR
STARTCHAR a4eb
ENCODING 42219 
SWIDTH 96 0
DWIDTH 24 0
BBX 24 24 0 -2
BITMAP 
000000
000000
000000
000000
000000
1c1c00
060e00
060600
060600
060600
060600
060600
060600
0e0600
0f0600
198600
30e600
607606
8013ff
000000
000000
000000
000000
000000
ENDCHAR
STARTCHAR a4ec
ENCODING 42220 
SWIDTH 96 0
DWIDTH 24 0
BBX 24 24 0 -2
BITMAP 
000000
000000
000000
000000
000000
1c000c
061ffe
060600
060600
060600
060600
060600
060600
0e0600
0f0600
198600
30e600
60760c
8013fe
000000
000000
000000
000000
000000
ENDCHAR
STARTCHAR a4ed
ENCODING 42221 
SWIDTH 96 0
DWIDTH 24 0
BBX 24 24 0 -2
BITMAP 
000000
000000
000000
000000
000000
1c0c0c
060606
060606
060606
060606
060606
0607fe
060606
0e0606
0f0606
18c606
307606
603ffe
801404
000000
000000
000000
000000
000000
ENDCHAR
STARTCHAR a4ee
ENCODING 42222 
SWIDTH 96 0
DWIDTH 24 0
BBX 24 24 0 -2
BITMAP 
000000
000000
000000
000000
000006
1c0fff
060660
060060
060060
060060
060060
0600e0
0600f0
0e0198
0d030c
18c606
306c07
603803
801000
000000
000000
000000
000000
000000
ENDCHAR
STARTCHAR a4ef
ENCODING 42223 
SWIDTH 96 0
DWIDTH 24 0
BBX 24 24 0 -2
BITMAP 
000000
000000
000000
000000
000000
001000
001000
003800
006c00
00c600
018300
030180
0600c0
0c0060
180030
300018
60000c
fffffe
000000
000000
000000
000000
000000
000000
ENDCHAR
STARTCHAR a4f0
ENCODING 42224 
SWIDTH 96 0
DWIDTH 24 0
BBX 24 24 0 -2
BITMAP 
000000
000000
000000
000000
000000
0e0380
318c60
60d830
60d830
60d830
60d830
60d830
60d830
60d830
60d830
60d830
60d830
318c60
0e0380
000000
000000
000000
000000
000000
ENDCHAR
STARTCHAR a4f1
ENCODING 42225 
SWIDTH 96 0
DWIDTH 24 0
BBX 24 24 0 -2
BITMAP 
000000
000000
000000
000000
001800
001800
001800
003c00
00c300
018180
0300c0
060060
060060
060060
060060
0300c0
018180
00c300
003c00
000000
000000
000000
000000
000000
ENDCHAR
STARTCHAR a4f2
ENCODING 42226 
SWIDTH 96 0
DWIDTH 24 0
BBX 24 24 0 -2
BITMAP 
000000
000000
000000
000000
0c0000
0c0700
0c0180
1f0180
338180
60c180
c06180
c06180
c06380
c063c0
c06660
60cc38
31981e
1f300c
0e4000
000000
000000
000000
000000
000000
ENDCHAR
STARTCHAR a4f3
ENCODING 42227 
SWIDTH 96 0
DWIDTH 24 0
BBX 24 24 0 -2
BITMAP 
000000
000000
000000
000000
000000
0c0000
0c00c0
0c01e0
1e0120
330330
618210
c0c618
c0c408
c0cc0c
c0c804
c0d806
619002
333003
1e3fff
000000
000000
000000
000000
000000
ENDCHAR
STARTCHAR a4d4
ENCODING 42196 
SWIDTH 96 0
DWIDTH 24 0
BBX 24 24 0 -2
BITMAP 
000000
000000
000000
000000
000000
000000
000000
000000
000000
000000
000000
000000
000000
000000
000000
000000
000000
000000
000000
000000
000000
000000
000000
000000
ENDCHAR
STARTCHAR a4a1
ENCODING 42145 
SWIDTH 96 0
DWIDTH 24 0
BBX 24 24 0 -2
BITMAP 
000000
000000
000000
000000
000000
0ffff0
060030
000030
000030
000030
000030
000030
000030
000030
000030
000030
000030
000030
000020
000000
000000
000000
000000
000000
ENDCHAR
STARTCHAR a4a2
ENCODING 42146 
SWIDTH 96 0
DWIDTH 24 0
BBX 24 24 0 -2
BITMAP 
000000
000000
000000
000000
000000
7fe7fe
206206
006006
006006
006006
006006
006006
006006
006006
006006
006006
006006
006006
004004
000000
000000
000000
000000
000000
ENDCHAR
STARTCHAR a4a3
ENCODING 42147 
SWIDTH 96 0
DWIDTH 24 0
BBX 24 24 0 -2
BITMAP 
000000
000000
000000
000000
000000
7fe380
20c1c0
00c0e0
00c0e0
00c0c0
00c0c0
00c0c0
00c1c0
00c1a0
00c318
00c60e
00cc07
00d802
00a000
000000
000000
000000
000000
000000
ENDCHAR
STARTCHAR a4a4
ENCODING 42148 
SWIDTH 96 0
DWIDTH 24 0
BBX 24 24 0 -2
BITMAP 
000000
000000
000000
000000
000000
180000
0c0000
0c0000
0c0000
0c0000
0c0000
0c0000
0c0000
0c0000
0c0000
0c0000
0c0000
0c0060
07fff0
000000
000000
000000
000000
000000
ENDCHAR
STARTCHAR a4a5
ENCODING 42149 
SWIDTH 96 0
DWIDTH 24 0
BBX 24 24 0 -2
BITMAP 
000000
000000
000000
000000
000000
600ffc
30021c
30001c
300018
300038
300030
300070
300060
3000f0
300198
30030e
302607
1ffc03
001000
000000
000000
000000
000000
000000
ENDCHAR
STARTCHAR a4a6
ENCODING 42150 
SWIDTH 96 0
DWIDTH 24 0
BBX 24 24 0 -2
BITMAP 
000000
000000
000000
000000
000380
6001c0
300004
301ffe
300800
3001e0
300330
300618
300c0c
300c0c
300c0c
300c0c
302618
1ff330
0001e0
000000
000000
000000
000000
000000
ENDCHAR
STARTCHAR a4a7
ENCODING 42151 
SWIDTH 96 0
DWIDTH 24 0
BBX 24 24 0 -2
BITMAP 
000000
000000
000000
000000
0000c0
0fffe0
060000
060000
060000
060000
060000
060000
060000
060000
060000
060000
060000
060060
03fff0
000000
000000
000000
000000
000000
ENDCHAR
STARTCHAR a4a8
ENCODING 42152 
SWIDTH 96 0
DWIDTH 24 0
BBX 24 24 0 -2
BITMAP 
000000
000000
000000
000000
000000
ffcffc
600600
600600
600600
600600
600600
600600
600600
600600
600600
600600
600600
604604
3fe3fe
000000
000000
000000
000000
000000
ENDCHAR
STARTCHAR a4a9
ENCODING 42153 
SWIDTH 96 0
DWIDTH 24 0
BBX 24 24 0 -2
BITMAP 
000000
000000
000000
000000
000000
1ffff0
0c0060
000060
000060
000060
000040
1fffe0
0c0000
0c0000
0c0000
0c0000
0c0000
0c0060
07fff0
000000
000000
000000
000000
000000
ENDCHAR
STARTCHAR a4aa
ENCODING 42154 
SWIDTH 96 0
DWIDTH 24 0
BBX 24 24 0 -2
BITMAP 
000000
000000
000000
000000
000000
7fe7fe
206206
006006
006006
006006
004006
7fe006
300006
300006
300006
300006
300006
302006
1ff004
000000
000000
000000
000000
000000
ENDCHAR
STARTCHAR a4ab
ENCODING 42155 
SWIDTH 96 0
DWIDTH 24 0
BBX 24 24 0 -2
BITMAP 
000000
000000
000000
000000
000000
7feffe
20660c
00660c
00660c
00660c
00460c
7fe60c
30060c
30060c
30060c
30060c
30060c
302608
1ff7fc
000400
000000
000000
000000
000000
ENDCHAR
STARTCHAR a4ac
ENCODING 42156 
SWIDTH 96 0
DWIDTH 24 0
BBX 24 24 0 -2
BITMAP 
000000
000000
000000
000000
00000c
7fe606
206303
006303
006303
006303
004303
7fe3ff
300303
300303
300303
300303
300303
301303
1ffbff
000202
000000
000000
000000
000000
ENDCHAR
STARTCHAR a4ad
ENCODING 42157 
SWIDTH 96 0
DWIDTH 24 0
BBX 24 24 0 -2
BITMAP 
000000
000000
000000
000000
000000
7fe380
2061c0
0060e0
0060e0
0060c0
0040c0
7fe0e0
3001b0
300198
30030e
300607
300c07
301803
1fe001
004000
000000
000000
000000
000000
ENDCHAR
STARTCHAR a4ae
ENCODING 42158 
SWIDTH 96 0
DWIDTH 24 0
BBX 24 24 0 -2
BITMAP 
000000
000000
000000
000000
000000
7feffc
206600
006600
006600
006600
004600
7fe7fc
300600
300600
300600
300600
300600
302600
1ff3fe
000000
000000
000000
000000
000000
ENDCHAR
STARTCHAR a4af
ENCODING 42159 
SWIDTH 96 0
DWIDTH 24 0
BBX 24 24 0 -2
BITMAP 
000000
000000
000000
000000
000008
7fe7fc
206000
006330
006198
006198
004198
7fe198
300198
300198
300198
300198
300198
304110
1feffe
000000
000000
000000
000000
000000
ENDCHAR
STARTCHAR a4b0
ENCODING 42160 
SWIDTH 96 0
DWIDTH 24 0
BBX 24 24 0 -2
BITMAP 
000000
000000
000000
000000
0001c0
7fe0e0
206004
0067fe
006200
0060f0
004198
7fe30c
300606
300606
300606
300606
30030c
302198
1ff0f0
000000
000000
000000
000000
000000
ENDCHAR
STARTCHAR a4b1
ENCODING 42161 
SWIDTH 96 0
DWIDTH 24 0
BBX 24 24 0 -2
BITMAP 
000000
000000
000000
000000
000000
1ffff0
0e0060
060060
060060
060060
060060
060060
060060
060060
060060
060060
060060
060040
07ffe0
040000
000000
000000
000000
000000
ENDCHAR
STARTCHAR a4b2
ENCODING 42162 
SWIDTH 96 0
DWIDTH 24 0
BBX 24 24 0 -2
BITMAP 
000000
000000
000000
000000
000060
0c0030
060030
060030
060030
060030
060030
07fff0
060030
060030
060030
060030
060030
060030
07fff0
040020
000000
000000
000000
000000
ENDCHAR
STARTCHAR a4b3
ENCODING 42163 
SWIDTH 96 0
DWIDTH 24 0
BBX 24 24 0 -2
BITMAP 
000000
000000
000000
000000
00c00c
c06c06
606606
606606
606606
606606
606606
7fe7fe
606606
606606
606606
606606
606606
606606
7fe7fe
404404
000000
000000
000000
000000
ENDCHAR
STARTCHAR a4b4
ENCODING 42164 
SWIDTH 96 0
DWIDTH 24 0
BBX 24 24 0 -2
BITMAP 
000000
000000
000000
000000
00c380
6061c0
3060e0
3060e0
3060e0
3060c0
3060c0
3fe0c0
3061a0
306198
30630c
30660e
306c07
307807
3fe003
204000
000000
000000
000000
000000
ENDCHAR
STARTCHAR a4b5
ENCODING 42165 
SWIDTH 96 0
DWIDTH 24 0
BBX 24 24 0 -2
BITMAP 
000000
000000
000000
000000
000000
001c00
000e00
000700
000700
000700
000700
000600
000f00
001cc0
003870
006038
00c01e
03800e
060004
180000
000000
000000
000000
000000
ENDCHAR
STARTCHAR a4b6
ENCODING 42166 
SWIDTH 96 0
DWIDTH 24 0
BBX 24 24 0 -2
BITMAP 
000000
000000
000000
000000
000000
070380
0381c0
01c0e0
01c0e0
01c0e0
0180c0
0180c0
0361b0
03399c
061b0e
0c0e07
180c03
301800
403000
004000
000000
000000
000000
000000
ENDCHAR
STARTCHAR a4b7
ENCODING 42167 
SWIDTH 96 0
DWIDTH 24 0
BBX 24 24 0 -2
BITMAP 
000000
000000
000000
000000
000800
00ff80
0180c0
030060
060030
0c0018
0c0018
0c0018
0c0018
0c0018
0c0018
060030
030060
0180c0
00ff80
000000
000000
000000
000000
000000
ENDCHAR
STARTCHAR a4b8
ENCODING 42168 
SWIDTH 96 0
DWIDTH 24 0
BBX 24 24 0 -2
BITMAP 
000000
000000
000000
000000
000000
0ffffc
060070
0000e0
0001c0
000380
000600
000c00
001e00
003300
0061c0
00c070
018038
030018
0c0000
000000
000000
000000
000000
000000
ENDCHAR
STARTCHAR a4b9
ENCODING 42169 
SWIDTH 96 0
DWIDTH 24 0
BBX 24 24 0 -2
BITMAP 
000000
000000
000000
000000
000000
7feffc
20e41c
00e01c
00c018
00c018
00c018
018030
018030
036068
0638cc
0c1986
180b07
300603
600c01
801000
000000
000000
000000
000000
ENDCHAR
STARTCHAR a4ba
ENCODING 42170 
SWIDTH 96 0
DWIDTH 24 0
BBX 24 24 0 -2
BITMAP 
000000
000000
000000
000000
00f800
007c00
000000
1ffffc
0c0038
000070
0000e0
0001c0
000300
000600
000d80
0030c0
006070
01803c
06001e
18000c
000000
000000
000000
000000
ENDCHAR
STARTCHAR a4bb
ENCODING 42171 
SWIDTH 96 0
DWIDTH 24 0
BBX 24 24 0 -2
BITMAP 
000000
000000
000000
000000
000000
0ffffc
06001c
00001c
00001c
0001f8
0fff38
070030
000030
000060
000060
0000c0
000080
000100
000200
000000
000000
000000
000000
000000
ENDCHAR
STARTCHAR a4bc
ENCODING 42172 
SWIDTH 96 0
DWIDTH 24 0
BBX 24 24 0 -2
BITMAP 
000000
000000
000000
000000
000000
3ffff0
1c0060
0c0000
0c0000
0c0000
0c0000
0fffe0
0c0040
0c0000
0c0000
0c0000
0c0000
0c0038
07fffc
000000
000000
000000
000000
000000
ENDCHAR
STARTCHAR a4bd
ENCODING 42173 
SWIDTH 96 0
DWIDTH 24 0
BBX 24 24 0 -2
BITMAP 
000000
000000
000000
000000
000060
1ffff0
000000
000c00
030700
018780
01c380
00c380
00c380
00c380
00c300
00c300
00c600
004430
1ffff8
0c0000
000000
000000
000000
000000
ENDCHAR
STARTCHAR a4be
ENCODING 42174 
SWIDTH 96 0
DWIDTH 24 0
BBX 24 24 0 -2
BITMAP 
000000
000000
000000
000000
00fc00
007e00
000000
000018
1ffffc
0c0000
007f00
00c180
0180c0
030060
030060
030060
030060
0180c0
00c180
007f00
000000
000000
000000
000000
ENDCHAR
STARTCHAR a4f4
ENCODING 42228 
SWIDTH 96 0
DWIDTH 24 0
BBX 24 24 0 -2
BITMAP 
000000
000000
000000
000000
0000c0
1fffe0
0c0200
008300
008700
00c600
00c470
3ffff8
1c0000
000000
01ff00
0600c0
0c0060
0c0060
0c0060
0600c0
01ff00
000000
000000
000000
ENDCHAR
STARTCHAR a4f5
ENCODING 42229 
SWIDTH 96 0
DWIDTH 24 0
BBX 24 24 0 -2
BITMAP 
000000
000000
000000
000000
000000
1c01c0
0e00e0
004004
ffeffe
600600
000000
040040
1f01f0
318318
60c60c
60c60c
60c60c
60c60c
318318
1f01f0
000000
000000
000000
000000
ENDCHAR
STARTCHAR a4f6
ENCODING 42230 
SWIDTH 96 0
DWIDTH 24 0
BBX 24 24 0 -2
BITMAP 
000000
000000
000000
000000
000000
000070
1ffff8
0e0000
001800
001c00
007f00
00c180
0180c0
030060
030060
030060
0180c0
00c180
003e00
000000
000000
000000
000000
000000
ENDCHAR
STARTCHAR a4bf
ENCODING 42175 
SWIDTH 96 0
DWIDTH 24 0
BBX 24 24 0 -2
BITMAP 
007000
003800
001800
001800
001800
001800
001800
001800
001800
001800
0018c0
001fe0
001800
001800
001800
001800
001800
001800
001800
001800
001800
001800
001800
001000
ENDCHAR
STARTCHAR a4c0
ENCODING 42176 
SWIDTH 96 0
DWIDTH 24 0
BBX 24 24 0 -2
BITMAP 
000700
000380
000180
00c180
006180
006180
006180
006180
006180
006180
006180
007f80
006180
006180
006180
006180
006180
006180
006180
006180
006180
004180
000180
000100
ENDCHAR
STARTCHAR a4c1
ENCODING 42177 
SWIDTH 96 0
DWIDTH 24 0
BBX 24 24 0 -2
BITMAP 
007000
003800
001800
001800
001800
001800
001800
001800
0018c0
001fe0
001800
001800
001800
001800
0018c0
001fe0
001800
001800
001800
001800
001800
001800
001800
001000
ENDCHAR
STARTCHAR a4c2
ENCODING 42178 
SWIDTH 96 0
DWIDTH 24 0
BBX 24 24 0 -2
BITMAP 
000700
000380
000180
00c180
006180
006180
006180
006180
006180
006180
007f80
006180
006180
006180
007f80
006180
006180
006180
006180
006180
006180
004180
000180
000100
ENDCHAR
STARTCHAR a4c3
ENCODING 42179 
SWIDTH 96 0
DWIDTH 24 0
BBX 24 24 0 -2
BITMAP 
000700
000380
000180
000180
000180
000180
000180
000180
000180
000180
000180
00ff80
006180
000180
000180
000180
000180
000180
000180
000180
000180
000180
000180
000100
ENDCHAR
STARTCHAR a4c4
ENCODING 42180 
SWIDTH 96 0
DWIDTH 24 0
BBX 24 24 0 -2
BITMAP 
000700
000380
000180
006180
003180
003180
003180
003180
003180
003180
003180
07f180
023180
003180
003180
003180
003180
003180
003180
003180
003180
002180
000180
000100
ENDCHAR
STARTCHAR a4f7
ENCODING 42231 
SWIDTH 96 0
DWIDTH 24 0
BBX 24 24 0 -2
BITMAP 
0001c0
0000e0
000060
000060
000060
000060
000060
000060
000066
00007f
003060
001860
001860
061866
03187f
0318e0
0311e0
032660
1ff860
0e0060
000060
000060
000060
000040
ENDCHAR
STARTCHAR a4f8
ENCODING 42232 
SWIDTH 96 0
DWIDTH 24 0
BBX 24 24 0 -2
BITMAP 
000038
00001c
00000c
00000c
00060c
00030c
00030c
00030c
00030c
0003fc
00030c
00030c
00c30c
0063fc
18630c
0c630c
0c630c
0c470c
0c9b0c
7fe20c
30000c
00000c
00000c
000008
ENDCHAR
STARTCHAR a4c5
ENCODING 42181 
SWIDTH 96 0
DWIDTH 24 0
BBX 24 24 0 -2
BITMAP 
000700
000380
000180
000180
000180
000180
000180
000180
00ff80
006180
000180
000180
000180
000180
00ff80
006180
000180
000180
000180
000180
000180
000180
000180
000100
ENDCHAR
STARTCHAR a4c6
ENCODING 42182 
SWIDTH 96 0
DWIDTH 24 0
BBX 24 24 0 -2
BITMAP 
000700
000380
000180
006180
003180
003180
003180
003180
003180
003180
07f180
023180
003180
003180
07f180
023180
003180
003180
003180
003180
003180
002180
000180
000100
ENDCHAR
STARTCHAR a4c7
ENCODING 42183 
SWIDTH 96 0
DWIDTH 24 0
BBX 24 24 0 -2
BITMAP 
000000
000000
000000
000000
000000
000000
003000
001800
001800
001800
001800
001800
001800
001800
001800
001800
001800
00181e
ffffff
700000
000000
000000
000000
000000
ENDCHAR
STARTCHAR a4c8
ENCODING 42184 
SWIDTH 96 0
DWIDTH 24 0
BBX 24 24 0 -2
BITMAP 
000380
0001c0
0000c0
0000c0
0000c0
0000c0
0000c0
0000c0
0000c0
0000c0
0000c0
0300c6
0180ff
0180c0
0183c0
018cc0
fff0c0
7000c0
0000c0
0000c0
0000c0
0000c0
0000c0
000080
ENDCHAR
STARTCHAR a4c9
ENCODING 42185 
SWIDTH 96 0
DWIDTH 24 0
BBX 24 24 0 -2
BITMAP 
000038
00001c
00030c
00018c
00018c
00018c
00018c
00018c
00018c
00018c
00018c
03018c
0181fc
01818c
01838c
018d8c
3ff18c
18018c
00018c
00018c
00010c
00000c
00000c
000008
ENDCHAR
STARTCHAR a4ca
ENCODING 42186 
SWIDTH 96 0
DWIDTH 24 0
BBX 24 24 0 -2
BITMAP 
000038
00001c
00000c
00000c
00000c
00000c
00000c
00000c
00000c
00000c
00000c
00600c
00300c
00300c
00303c
0031cc
3ffe0c
1c000c
00000c
00000c
00000c
00000c
00000c
000008
ENDCHAR
STARTCHAR a4f9
ENCODING 42233 
SWIDTH 96 0
DWIDTH 24 0
BBX 24 24 0 -2
BITMAP 
0001c0
0000e0
000060
000060
000060
000060
000060
000060
000060
000060
000060
003060
001860
031860
0199e0
019e60
01b860
3fe060
1e0060
000060
000060
000060
000060
000040
ENDCHAR
STARTCHAR a4fa
ENCODING 42234 
SWIDTH 96 0
DWIDTH 24 0
BBX 24 24 0 -2
BITMAP 
000038
00001c
00000c
00000c
00000c
00000c
00000c
0001fc
00070c
1ffc0c
09980c
01980c
0199fc
01188c
01180c
02180c
00180c
00180c
00100c
00000c
00000c
00000c
00000c
000008
ENDCHAR
STARTCHAR a4cb
ENCODING 42187 
SWIDTH 96 0
DWIDTH 24 0
BBX 24 24 0 -2
BITMAP 
000000
000000
000000
000000
000000
000000
000000
000300
018180
00c180
00c180
00c180
00c180
00c180
00c180
00c180
00c180
00c19e
ffffff
700000
000000
000000
000000
000000
ENDCHAR
STARTCHAR a4cc
ENCODING 42188 
SWIDTH 96 0
DWIDTH 24 0
BBX 24 24 0 -2
BITMAP 
000000
000000
000000
000000
000000
000000
000000
00001e
ffffff
701800
001800
001800
001800
001800
001800
001800
001800
001800
001800
001800
001800
001800
001000
000000
ENDCHAR
STARTCHAR a4cd
ENCODING 42189 
SWIDTH 96 0
DWIDTH 24 0
BBX 24 24 0 -2
BITMAP 
000038
00001c
00000c
00000c
00000c
00000c
00000c
00000c
00000c
00000c
00000c
00003c
0001cc
3ffe0c
1c300c
0031fc
00308c
00300c
00300c
00300c
00300c
00200c
00000c
000008
ENDCHAR
STARTCHAR a4ce
ENCODING 42190 
SWIDTH 96 0
DWIDTH 24 0
BBX 24 24 0 -2
BITMAP 
000038
00001c
00030c
00018c
00018c
00018c
00018c
00018c
00018c
00018c
00018c
00038c
000d8c
3ff18c
18c18c
00df8c
00c18c
00c18c
00c18c
00c18c
00818c
00010c
00000c
000008
ENDCHAR
STARTCHAR a4cf
ENCODING 42191 
SWIDTH 96 0
DWIDTH 24 0
BBX 24 24 0 -2
BITMAP 
000038
00001c
00000c
00000c
00000c
00000c
00000c
00000c
00000c
00000c
00000c
00000c
00003c
0001cc
3ffe0c
1c300c
00300c
00300c
00300c
00300c
00300c
00200c
00000c
000008
ENDCHAR
STARTCHAR a4d0
ENCODING 42192 
SWIDTH 96 0
DWIDTH 24 0
BBX 24 24 0 -2
BITMAP 
000000
000000
000000
000000
000000
000000
000000
00001e
ffffff
70c180
00c180
00c180
00c180
00c180
00c180
00c180
00c180
00c180
00c180
00c180
00c180
00c180
008100
000000
ENDCHAR
STARTCHAR a4fb
ENCODING 42235 
SWIDTH 96 0
DWIDTH 24 0
BBX 24 24 0 -2
BITMAP 
000038
00039c
0001cc
0000cc
0000cc
0000cc
0000cc
0002cc
000ccc
7ff0cc
3667cc
0662cc
0660cc
0660cc
0467cc
0862cc
0060cc
0060cc
0040cc
0040cc
00008c
00008c
00000c
000008
ENDCHAR
STARTCHAR a4fc
ENCODING 42236 
SWIDTH 96 0
DWIDTH 24 0
BBX 24 24 0 -2
BITMAP 
000070
000038
000018
000018
000018
000018
000038
0000d8
000318
1ffc18
0ecc18
00cc18
00cc18
00cc18
008c18
010c18
000c18
000c18
000818
000018
000018
000018
000018
000010
ENDCHAR
STARTCHAR a4d1
ENCODING 42193 
SWIDTH 96 0
DWIDTH 24 0
BBX 24 24 0 -2
BITMAP 
000000
000000
000000
000000
000000
000000
000000
000000
000000
000000
000000
00001e
ffffff
700000
000000
000000
000000
000000
000000
000000
000000
000000
000000
000000
ENDCHAR
STARTCHAR a4d2
ENCODING 42194 
SWIDTH 96 0
DWIDTH 24 0
BBX 24 24 0 -2
BITMAP 
000038
00001c
00000c
00000c
00000c
00000c
00000c
00000c
00000c
00000c
00000c
00000c
00000c
00001c
00006c
00038c
3ffc0c
1c000c
00000c
00000c
00000c
00000c
00000c
000008
ENDCHAR
STARTCHAR a4d3
ENCODING 42195 
SWIDTH 96 0
DWIDTH 24 0
BBX 24 24 0 -2
BITMAP 
001c00
000e00
000600
000600
000600
000600
000600
000600
000600
000600
000600
000600
000600
000600
000600
000600
000600
000600
000600
000600
000600
000600
000600
000400
ENDCHAR
STARTCHAR a4fd
ENCODING 42237 
SWIDTH 96 0
DWIDTH 24 0
BBX 24 24 0 -2
BITMAP 
000000
000000
000000
000000
000000
000000
000000
000000
001800
003c00
007e00
007e00
007e00
003c00
001800
000000
000000
000000
000000
000000
000000
000000
000000
000000
ENDCHAR
STARTCHAR a4fe
ENCODING 42238 
SWIDTH 96 0
DWIDTH 24 0
BBX 24 24 0 -2
BITMAP 
000000
000300
000300
000300
000300
000300
000300
000300
000300
000300
000300
000300
000300
038300
07c300
07c300
07c300
038300
000300
000300
000300
000300
000300
000000
ENDCHAR
STARTCHAR aaa1
ENCODING 43681 
SWIDTH 96 0
DWIDTH 24 0
BBX 24 24 0 -2
BITMAP 
000000
000000
000000
000000
000000
000000
000000
006000
003000
002100
043f80
03f000
002000
002000
007f80
01e260
022430
042830
083030
0c6030
0fa020
0600c0
000300
000000
ENDCHAR
STARTCHAR aaa2
ENCODING 43682 
SWIDTH 96 0
DWIDTH 24 0
BBX 24 24 0 -2
BITMAP 
000000
000000
006000
003000
003000
002180
0c3fc0
07f000
002000
002000
003fe0
00e230
032218
06260c
0c240c
082c0c
18380c
18300c
18e018
1fa030
0f00e0
000780
000000
000000
ENDCHAR
STARTCHAR aaa3
ENCODING 43683 
SWIDTH 96 0
DWIDTH 24 0
BBX 24 24 0 -2
BITMAP 
000000
000000
000000
000000
000000
000000
000000
000000
000000
040000
020000
030100
030080
060060
060020
040030
040030
044030
064030
028000
038000
018000
000000
000000
ENDCHAR
STARTCHAR aaa4
ENCODING 43684 
SWIDTH 96 0
DWIDTH 24 0
BBX 24 24 0 -2
BITMAP 
000000
000000
000000
000000
000000
300000
180000
1c0180
180060
180030
180018
100018
10001c
10000c
10400c
10800c
18800c
198000
0d0000
0f0000
030000
000000
000000
000000
ENDCHAR
STARTCHAR aaa5
ENCODING 43685 
SWIDTH 96 0
DWIDTH 24 0
BBX 24 24 0 -2
BITMAP 
000000
000000
000000
000000
000000
000000
004000
003c00
001e00
002000
000000
001f00
04e080
0380c0
0100c0
0000c0
0000c0
000180
000180
000300
000200
000c00
003000
000000
ENDCHAR
STARTCHAR aaa6
ENCODING 43686 
SWIDTH 96 0
DWIDTH 24 0
BBX 24 24 0 -2
BITMAP 
000000
008000
007e00
000f00
001800
002000
000000
000000
001f00
0470c0
07c060
030060
000060
000060
000060
000060
0000c0
0000c0
000180
000300
000600
001800
006000
000000
ENDCHAR
STARTCHAR aaa7
ENCODING 43687 
SWIDTH 96 0
DWIDTH 24 0
BBX 24 24 0 -2
BITMAP 
000000
000000
000000
000000
000000
000000
004000
003c00
001e00
002000
000000
020f00
01f600
008c00
000800
003000
004000
00f800
018400
030400
0607e0
0603e0
000000
000000
ENDCHAR
STARTCHAR aaa8
ENCODING 43688 
SWIDTH 96 0
DWIDTH 24 0
BBX 24 24 0 -2
BITMAP 
000000
000000
008000
007c00
001e00
006000
000000
000700
087f80
0fce00
061800
003000
002000
004000
009800
01e400
038400
060400
0c0400
0c0600
1807f8
1801f8
000000
000000
ENDCHAR
STARTCHAR aaa9
ENCODING 43689 
SWIDTH 96 0
DWIDTH 24 0
BBX 24 24 0 -2
BITMAP 
000000
000000
000000
000000
000000
000000
000000
018000
00c000
009000
08f8e0
078030
028020
008000
009f00
00f0c0
038060
048060
0c8060
0c8060
0680c0
018300
000000
000000
ENDCHAR
STARTCHAR aaaa
ENCODING 43690 
SWIDTH 96 0
DWIDTH 24 0
BBX 24 24 0 -2
BITMAP 
000000
000000
030000
018000
018000
018000
0100f8
01700c
33e01c
1f0000
010000
0107c0
011c30
017018
03c00c
07000c
2d000c
390018
310018
0d0030
030060
010380
000000
000000
ENDCHAR
STARTCHAR aaab
ENCODING 43691 
SWIDTH 96 0
DWIDTH 24 0
BBX 24 24 0 -2
BITMAP 
000000
000000
018000
00c000
00c000
00c000
008000
008000
41f840
3f8c30
198618
01020c
03020e
020206
060606
060618
0c0600
0c0600
180c00
188c00
307800
303000
000000
000000
ENDCHAR
STARTCHAR aaac
ENCODING 43692 
SWIDTH 96 0
DWIDTH 24 0
BBX 24 24 0 -2
BITMAP 
000000
000000
01800c
00c006
00c063
00c030
00c018
008000
41f840
3f8c30
198618
01020c
03020e
020206
060606
060618
0c0600
0c0600
180c00
188c00
307800
303000
000000
000000
ENDCHAR
STARTCHAR aaad
ENCODING 43693 
SWIDTH 96 0
DWIDTH 24 0
BBX 24 24 0 -2
BITMAP 
000000
000000
038000
00c000
00c080
0063c0
0c7f00
03f800
001810
000c78
1c0fe0
03fe00
000600
000300
000380
01ffc0
0201c0
040080
040000
060000
030000
01fe00
007e00
000000
ENDCHAR
STARTCHAR aaae
ENCODING 43694 
SWIDTH 96 0
DWIDTH 24 0
BBX 24 24 0 -2
BITMAP 
000000
000000
038018
00c00c
00c066
006730
0c7e18
03f800
001800
000ce0
1c0fc0
03fe00
000600
000300
000380
01ffc0
0201c0
040080
040000
060000
030000
01fe00
007e00
000000
ENDCHAR
STARTCHAR aaaf
ENCODING 43695 
SWIDTH 96 0
DWIDTH 24 0
BBX 24 24 0 -2
BITMAP 
000000
000000
000c00
000e00
000e00
001c00
003800
006000
00c000
018000
010000
020000
040000
040000
030000
00c000
006000
003000
001c00
000e00
000700
000380
000300
000000
ENDCHAR
STARTCHAR aab0
ENCODING 43696 
SWIDTH 96 0
DWIDTH 24 0
BBX 24 24 0 -2
BITMAP 
000000
000000
001800
000c30
001c18
00198c
0030c0
006060
00c000
018000
010000
020000
040000
040000
030000
00c000
006000
003000
001800
000c00
000e00
000700
000600
000000
ENDCHAR
STARTCHAR aab1
ENCODING 43697 
SWIDTH 96 0
DWIDTH 24 0
BBX 24 24 0 -2
BITMAP 
000000
000000
000700
300180
180180
180180
180198
1801bc
10c7e0
307980
300180
200180
200180
200180
220180
220180
340300
340300
140600
1c0600
0c0c00
041800
002000
000000
ENDCHAR
STARTCHAR aab2
ENCODING 43698 
SWIDTH 96 0
DWIDTH 24 0
BBX 24 24 0 -2
BITMAP 
000000
00000c
000666
300333
180198
180180
180180
180198
10c7fc
307980
300180
200180
200180
200180
220180
220180
340300
340300
1c0600
1c0600
0c0c00
041800
002000
000000
ENDCHAR
STARTCHAR aab3
ENCODING 43699 
SWIDTH 96 0
DWIDTH 24 0
BBX 24 24 0 -2
BITMAP 
000000
000000
000000
000000
020380
01ffc0
000300
000e00
003000
000000
000000
000000
000000
000000
080000
080000
0c0000
0c0000
070000
03fff0
00ffe0
000000
000000
000000
ENDCHAR
STARTCHAR aab4
ENCODING 43700 
SWIDTH 96 0
DWIDTH 24 0
BBX 24 24 0 -2
BITMAP 
000000
000000
000000
000000
030318
01ff8c
000606
000c60
003030
000018
000000
000000
000000
000000
080000
080000
080000
0c0000
070000
03fff0
00ffe0
000000
000000
000000
ENDCHAR
STARTCHAR aab5
ENCODING 43701 
SWIDTH 96 0
DWIDTH 24 0
BBX 24 24 0 -2
BITMAP 
000000
000000
01c000
006000
006000
003000
003070
0818f8
07ff80
000c00
000600
000600
000300
000180
00ffc0
0301c0
040080
040000
040000
060000
038000
01ff00
007e00
000000
ENDCHAR
STARTCHAR aab6
ENCODING 43702 
SWIDTH 96 0
DWIDTH 24 0
BBX 24 24 0 -2
BITMAP 
000000
000018
03800c
00c066
00c030
006018
006180
1033c0
0ffe00
001800
000c00
000c00
000600
000300
01ff80
060380
080100
080000
080000
0c0000
070000
03fe00
00fc00
000000
ENDCHAR
STARTCHAR aab7
ENCODING 43703 
SWIDTH 96 0
DWIDTH 24 0
BBX 24 24 0 -2
BITMAP 
000000
000000
0e0000
030000
038000
030000
030000
030000
030000
060000
060000
060000
060000
060010
060010
060020
060060
0600c0
060180
030700
03fe00
01f800
000000
000000
ENDCHAR
STARTCHAR aab8
ENCODING 43704 
SWIDTH 96 0
DWIDTH 24 0
BBX 24 24 0 -2
BITMAP 
000000
000000
0e0600
030300
038180
031800
030c00
030600
030000
060000
060000
060000
060000
060010
060010
060020
060060
0600c0
060180
030700
03fe00
01f800
000000
000000
ENDCHAR
STARTCHAR aab9
ENCODING 43705 
SWIDTH 96 0
DWIDTH 24 0
BBX 24 24 0 -2
BITMAP 
000000
000000
001c00
000e00
000600
000618
4007fc
3ffe02
180600
000600
003e00
004c00
008600
008600
008600
004e00
003600
000600
000c00
000c00
001800
003000
00c000
000000
ENDCHAR
STARTCHAR aaba
ENCODING 43706 
SWIDTH 96 0
DWIDTH 24 0
BBX 24 24 0 -2
BITMAP 
00000c
000066
001c33
000e18
000600
000618
401ffc
3ffe02
180600
000600
003e00
004c00
008600
008600
008600
004e00
003600
000600
000e00
000c00
001800
003000
00c000
000000
ENDCHAR
STARTCHAR aabb
ENCODING 43707 
SWIDTH 96 0
DWIDTH 24 0
BBX 24 24 0 -2
BITMAP 
000000
000000
000000
000700
0e0180
030180
030180
030180
030198
831ffc
7ff182
330180
030180
030180
031180
030b00
030700
030200
030000
018000
00ffe0
003fc0
000000
000000
ENDCHAR
STARTCHAR aabc
ENCODING 43708 
SWIDTH 96 0
DWIDTH 24 0
BBX 24 24 0 -2
BITMAP 
000000
00000c
000006
000703
0e0198
03018c
030186
030180
030198
831ffc
7ff182
330180
030180
030180
031180
030b00
030700
030200
030000
018000
00ffe0
003fc0
000000
000000
ENDCHAR
STARTCHAR aabd
ENCODING 43709 
SWIDTH 96 0
DWIDTH 24 0
BBX 24 24 0 -2
BITMAP 
000000
000000
000100
040f80
03f9c0
018300
000e00
001800
006000
008030
0303f8
063c70
3fe1c0
1e0600
080800
001000
003000
002000
002000
003000
001c00
000fe0
0003e0
000000
ENDCHAR
STARTCHAR aabe
ENCODING 43710 
SWIDTH 96 0
DWIDTH 24 0
BBX 24 24 0 -2
BITMAP 
000000
00000c
000206
081f33
07f398
03070c
001c00
003000
00c000
010060
0607f0
0c78e0
7fc380
3c0c00
101000
002000
006000
004000
004000
006000
003800
001fc0
0007c0
000000
ENDCHAR
STARTCHAR aabf
ENCODING 43711 
SWIDTH 96 0
DWIDTH 24 0
BBX 24 24 0 -2
BITMAP 
000000
000000
030000
018000
018000
018000
019800
21fc00
1f8078
03018c
030000
030000
020000
060000
060000
060000
0c0000
0c0800
0c0800
1c0400
1803fe
1800fc
000000
000000
ENDCHAR
STARTCHAR aac0
ENCODING 43712 
SWIDTH 96 0
DWIDTH 24 0
BBX 24 24 0 -2
BITMAP 
000000
000018
0300cc
018066
018030
018000
019800
21fc00
1f8078
03018c
030000
030000
020000
060000
060000
060000
0c0000
0c0800
0c0800
1c0400
1803fe
1800fc
000000
000000
ENDCHAR
STARTCHAR aac1
ENCODING 43713 
SWIDTH 96 0
DWIDTH 24 0
BBX 24 24 0 -2
BITMAP 
000000
000000
01c000
006000
006000
0061c0
107fe0
0fc000
00c000
018000
018000
0307e0
031830
066018
0f8018
060018
000018
000030
000030
000060
000180
003e00
000000
000000
ENDCHAR
STARTCHAR aac2
ENCODING 43714 
SWIDTH 96 0
DWIDTH 24 0
BBX 24 24 0 -2
BITMAP 
000000
000000
03800c
00c006
00c033
00c318
20ff8c
1f8000
018000
030000
030000
030fc0
063060
0ec030
1f0030
040030
000030
000060
000060
0000c0
000300
007c00
000000
000000
ENDCHAR
STARTCHAR aac3
ENCODING 43715 
SWIDTH 96 0
DWIDTH 24 0
BBX 24 24 0 -2
BITMAP 
000000
000000
000000
000000
000000
000000
000000
000000
000000
000000
000000
000780
10f860
0f8030
060030
000030
000030
000030
000060
0000c0
000380
001c00
000000
000000
ENDCHAR
STARTCHAR aac4
ENCODING 43716 
SWIDTH 96 0
DWIDTH 24 0
BBX 24 24 0 -2
BITMAP 
000000
000000
000000
000000
000000
000000
000000
000fe0
00f830
47c018
7e000c
38000c
00000c
00000c
00000c
000018
000018
000030
000060
0003c0
003e00
000000
000000
000000
ENDCHAR
STARTCHAR aac5
ENCODING 43717 
SWIDTH 96 0
DWIDTH 24 0
BBX 24 24 0 -2
BITMAP 
000000
000018
00000c
000066
000030
000018
000000
000fe0
00f830
47c018
7e000c
38000c
00000c
00000c
00000c
000018
000018
000030
000060
0003c0
003e00
000000
000000
000000
ENDCHAR
STARTCHAR aac6
ENCODING 43718 
SWIDTH 96 0
DWIDTH 24 0
BBX 24 24 0 -2
BITMAP 
000000
000000
000000
000000
000070
403ff8
3fe300
1e0400
000800
001000
002000
006000
004000
00c000
00c000
00c000
00c000
006000
006000
003000
001f80
0007c0
000000
000000
ENDCHAR
STARTCHAR aac7
ENCODING 43719 
SWIDTH 96 0
DWIDTH 24 0
BBX 24 24 0 -2
BITMAP 
000000
000000
000000
000000
000070
403ff8
3fe300
1e0400
000818
00100c
0020c6
006060
004030
004000
00c000
00c000
00c000
006000
006000
003800
001f80
0007c0
000000
000000
ENDCHAR
STARTCHAR aac8
ENCODING 43720 
SWIDTH 96 0
DWIDTH 24 0
BBX 24 24 0 -2
BITMAP 
000000
000000
038000
00c000
00c000
00c000
00c080
00c040
00c060
0061e0
006f80
003800
00c000
018000
030000
020000
060000
040000
060000
060000
03ffe0
01ffc0
000000
000000
ENDCHAR
STARTCHAR aac9
ENCODING 43721 
SWIDTH 96 0
DWIDTH 24 0
BBX 24 24 0 -2
BITMAP 
000000
000030
038018
00c0cc
00c060
00c030
00c000
00c000
00c0e0
0063e0
006f00
003800
00e000
018000
030000
020000
040000
040000
040000
060000
03ffe0
00ffc0
000000
000000
ENDCHAR
STARTCHAR aaca
ENCODING 43722 
SWIDTH 96 0
DWIDTH 24 0
BBX 24 24 0 -2
BITMAP 
000000
000000
030000
018000
01b000
21f3c0
1f0070
030038
0201c8
060200
060200
040200
0c0200
0c0300
180100
180180
300180
307f80
0081f0
0081b8
008318
007e00
000000
000000
ENDCHAR
STARTCHAR aacb
ENCODING 43723 
SWIDTH 96 0
DWIDTH 24 0
BBX 24 24 0 -2
BITMAP 
000000
000000
000000
300000
180000
1830f0
180ff8
180000
100000
300000
300000
200000
200000
200000
222000
224000
344000
346000
183ff8
180ffc
080000
000000
000000
000000
ENDCHAR
STARTCHAR aacc
ENCODING 43724 
SWIDTH 96 0
DWIDTH 24 0
BBX 24 24 0 -2
BITMAP 
000000
004000
002000
003000
003000
007f80
40b060
233030
343018
186008
18600c
18600c
18c00c
2cc00c
26800c
230018
2387d8
23c830
348838
3c086e
1807c4
000000
000000
000000
ENDCHAR
STARTCHAR aacd
ENCODING 43725 
SWIDTH 96 0
DWIDTH 24 0
BBX 24 24 0 -2
BITMAP 
000000
000000
070000
018000
018000
010000
41c3e0
3f8c30
19b010
014018
018018
030018
050018
0d0018
090018
190018
310fd8
711038
25101c
030836
0307e6
010000
000000
000000
ENDCHAR
STARTCHAR aace
ENCODING 43726 
SWIDTH 96 0
DWIDTH 24 0
BBX 24 24 0 -2
BITMAP 
000000
000000
000000
000000
003f80
00d0f0
031018
04100c
0c100c
181006
183006
302006
302006
306006
306006
30c00c
30c00c
198018
1f0030
0e00e0
000780
000000
000000
000000
ENDCHAR
STARTCHAR aacf
ENCODING 43727 
SWIDTH 96 0
DWIDTH 24 0
BBX 24 24 0 -2
BITMAP 
000000
000000
300700
180180
180180
180180
180198
18c1fc
103f80
300180
300180
200180
200180
200180
220180
220180
347f80
3481c0
1881f0
1841b8
083f18
000000
000000
000000
ENDCHAR
STARTCHAR aad0
ENCODING 43728 
SWIDTH 96 0
DWIDTH 24 0
BBX 24 24 0 -2
BITMAP 
000006
000033
000719
30018c
180180
180180
180198
18c1fc
103f80
300180
300180
200180
200180
200180
220180
220180
347f80
3481c0
1881f0
1841b8
083f18
000000
000000
000000
ENDCHAR
STARTCHAR aad1
ENCODING 43729 
SWIDTH 96 0
DWIDTH 24 0
BBX 24 24 0 -2
BITMAP 
00001c
000022
300722
1801a2
18019c
180180
180198
18c1fc
103f80
300180
300180
200180
200180
200180
220180
220180
347f80
3481c0
1881f0
1841b8
083f18
000000
000000
000000
ENDCHAR
STARTCHAR aad2
ENCODING 43730 
SWIDTH 96 0
DWIDTH 24 0
BBX 24 24 0 -2
BITMAP 
000000
000000
000000
000000
406100
3ff180
1ce180
018180
030140
060140
0c0120
080130
180110
180118
30031c
30020c
300200
300600
380400
1c0c00
0ff800
03e000
000000
000000
ENDCHAR
STARTCHAR aad3
ENCODING 43731 
SWIDTH 96 0
DWIDTH 24 0
BBX 24 24 0 -2
BITMAP 
000000
000018
00000c
000066
206130
1ff198
0ce180
018180
030140
060140
0c0120
080130
180118
18011c
30030c
300200
300200
300600
380400
1c0c00
0ff800
03e000
000000
000000
ENDCHAR
STARTCHAR aad4
ENCODING 43732 
SWIDTH 96 0
DWIDTH 24 0
BBX 24 24 0 -2
BITMAP 
000000
000000
00001c
000022
206122
1ff1a2
0ce19c
018180
030140
060140
0c0120
080130
180118
18011c
30030c
300200
300200
300600
380400
1c0c00
0ff800
03e000
000000
000000
ENDCHAR
STARTCHAR aad5
ENCODING 43733 
SWIDTH 96 0
DWIDTH 24 0
BBX 24 24 0 -2
BITMAP 
000000
000000
000000
007000
001c00
000e00
000e00
001800
002000
004000
004000
002000
003000
001f80
00fc60
018630
030218
46030c
4c0306
780306
308600
007c00
001800
000000
ENDCHAR
STARTCHAR aad6
ENCODING 43734 
SWIDTH 96 0
DWIDTH 24 0
BBX 24 24 0 -2
BITMAP 
000000
000000
000000
007000
001c00
000e18
000e0c
001866
002030
004018
004000
002000
003000
001f80
007c60
01c630
030618
46030c
4c0306
780306
308600
007c00
001800
000000
ENDCHAR
STARTCHAR aad7
ENCODING 43735 
SWIDTH 96 0
DWIDTH 24 0
BBX 24 24 0 -2
BITMAP 
000000
000000
000000
007000
001c00
000e00
000e00
001838
002044
004044
004044
002038
003000
001f80
007c60
01c630
030618
46030c
4c0306
780306
308600
007c00
001800
000000
ENDCHAR
STARTCHAR aad8
ENCODING 43736 
SWIDTH 96 0
DWIDTH 24 0
BBX 24 24 0 -2
BITMAP 
000000
000000
000000
000000
000000
00c000
012000
012000
031000
061800
0c0c00
980600
f00300
600180
0000c0
000060
000038
00001e
000006
000000
000000
000000
000000
000000
ENDCHAR
STARTCHAR aad9
ENCODING 43737 
SWIDTH 96 0
DWIDTH 24 0
BBX 24 24 0 -2
BITMAP 
000000
000000
000000
000060
000030
00c318
012180
0120c0
031000
061800
0c0c00
980600
f00300
600180
0000c0
000060
000038
00001e
000006
000000
000000
000000
000000
000000
ENDCHAR
STARTCHAR aada
ENCODING 43738 
SWIDTH 96 0
DWIDTH 24 0
BBX 24 24 0 -2
BITMAP 
000000
000000
000000
000070
000088
00c088
012088
012070
031000
061800
0c0c00
980600
f00300
600180
0000c0
000060
000038
00001e
000006
000000
000000
000000
000000
000000
ENDCHAR
STARTCHAR aadb
ENCODING 43739 
SWIDTH 96 0
DWIDTH 24 0
BBX 24 24 0 -2
BITMAP 
000000
000000
300020
1821f0
181f00
180180
180180
180180
100198
30c1fc
307f80
200180
200180
200180
220180
220180
343f80
3441f0
1841b8
182198
081f00
000000
000000
000000
ENDCHAR
STARTCHAR aadc
ENCODING 43740 
SWIDTH 96 0
DWIDTH 24 0
BBX 24 24 0 -2
BITMAP 
000000
000006
000023
6021f1
301f0c
300186
300186
300180
2001b0
60c1f8
607f80
400180
400180
400180
440180
440180
683f80
6841f0
3041b8
302198
101f00
000000
000000
000000
ENDCHAR
STARTCHAR aadd
ENCODING 43741 
SWIDTH 96 0
DWIDTH 24 0
BBX 24 24 0 -2
BITMAP 
00000e
000011
600091
3043d1
303e0e
300300
300300
300300
200360
6183f0
60ff00
400300
400300
400300
440300
440300
687f00
6883e0
308370
304330
103e00
000000
000000
000000
ENDCHAR
STARTCHAR aade
ENCODING 43742 
SWIDTH 96 0
DWIDTH 24 0
BBX 24 24 0 -2
BITMAP 
000000
003800
000c00
000c00
000cc0
040f80
03fc00
000c00
000c00
000c38
180ff0
07fc00
000c00
000c00
000c00
000c00
07fc00
081f80
080de0
040c60
03f800
000000
000000
000000
ENDCHAR
STARTCHAR aadf
ENCODING 43743 
SWIDTH 96 0
DWIDTH 24 0
BBX 24 24 0 -2
BITMAP 
000000
000000
000000
000c00
047e00
07cc00
031800
001000
003000
002060
006030
03f030
0cce30
1081e0
210070
41005c
42004e
660046
3c00c0
180080
000100
000600
000000
000000
ENDCHAR
STARTCHAR aae0
ENCODING 43744 
SWIDTH 96 0
DWIDTH 24 0
BBX 24 24 0 -2
BITMAP 
000000
060000
018000
018000
019000
11f800
0fc000
030030
030048
03008c
0f0084
118086
11809e
110084
130080
1a0080
0e0040
060060
060060
060060
03ffc0
01ff80
000000
000000
ENDCHAR
STARTCHAR aae1
ENCODING 43745 
SWIDTH 96 0
DWIDTH 24 0
BBX 24 24 0 -2
BITMAP 
000000
000000
000800
000400
100600
080600
0c0600
0c7fc0
058c30
060c18
0e0808
1b180c
11100c
21b00c
20e00c
20600c
30b018
31b018
1f0030
0c0060
000180
001e00
000000
000000
ENDCHAR
STARTCHAR aae2
ENCODING 43746 
SWIDTH 96 0
DWIDTH 24 0
BBX 24 24 0 -2
BITMAP 
000000
006000
003000
003000
006000
106000
0c6000
07fe00
00cc00
00c000
008000
418040
318020
0fb010
01f810
030018
030018
030018
030018
010030
0180e0
00ffc0
003f00
000000
ENDCHAR
STARTCHAR aae3
ENCODING 43747 
SWIDTH 96 0
DWIDTH 24 0
BBX 24 24 0 -2
BITMAP 
000000
000000
000000
000000
000000
000000
000000
000400
01c300
01a300
010c00
0083e0
00cc10
11f030
0e4030
066420
0063c0
003000
001000
001800
001800
000c00
000c00
000000
ENDCHAR
STARTCHAR aae4
ENCODING 43748 
SWIDTH 96 0
DWIDTH 24 0
BBX 24 24 0 -2
BITMAP 
000000
000000
001000
000c00
038600
046600
041cf8
06070c
027c06
03e006
4f0006
7d0006
31880c
008618
00c1f0
004000
006000
006000
003000
003000
001800
001800
001800
000000
ENDCHAR
STARTCHAR aae5
ENCODING 43749 
SWIDTH 96 0
DWIDTH 24 0
BBX 24 24 0 -2
BITMAP 
000000
000000
000000
000000
000000
000000
000000
000800
000600
040600
020fc0
023620
026630
048630
050630
054630
052420
0714c0
020f00
020400
000800
001000
000000
000000
ENDCHAR
STARTCHAR aae6
ENCODING 43750 
SWIDTH 96 0
DWIDTH 24 0
BBX 24 24 0 -2
BITMAP 
000000
000c00
000200
300300
180300
180fc0
107330
108318
21030c
22030c
24030c
24030c
28830c
288318
384318
186230
183660
080f80
000600
000600
000c00
001800
006000
000000
ENDCHAR
STARTCHAR aae7
ENCODING 43751 
SWIDTH 96 0
DWIDTH 24 0
BBX 24 24 0 -2
BITMAP 
000000
000000
000000
000000
000000
000000
000000
000000
003000
001800
001c00
001800
001980
001fc0
001800
001000
001000
001000
03fe00
041980
0418e0
03f020
000000
000000
ENDCHAR
STARTCHAR aae8
ENCODING 43752 
SWIDTH 96 0
DWIDTH 24 0
BBX 24 24 0 -2
BITMAP 
000000
000000
003800
000c00
000e00
000c00
000c00
000c70
000ff8
000c00
000c00
000c00
000c00
000800
000800
000800
000800
07fc00
080f80
080ce0
040c38
03f818
000000
000000
ENDCHAR
STARTCHAR aae9
ENCODING 43753 
SWIDTH 96 0
DWIDTH 24 0
BBX 24 24 0 -2
BITMAP 
000000
006000
001c00
000700
001f00
006000
008000
010000
020000
030000
030000
030000
030fe0
033830
03e018
030018
060018
020018
000030
000070
0000e0
000380
003c00
000000
ENDCHAR
STARTCHAR aaea
ENCODING 43754 
SWIDTH 96 0
DWIDTH 24 0
BBX 24 24 0 -2
BITMAP 
000000
020000
018000
010000
010000
011f00
033180
0220c0
0620c0
0640c0
0640c0
06c0c0
0780c0
0380c0
0300c0
0000c0
000180
000180
000300
000300
000600
000c00
003000
000000
ENDCHAR
STARTCHAR aaeb
ENCODING 43755 
SWIDTH 96 0
DWIDTH 24 0
BBX 24 24 0 -2
BITMAP 
000000
000000
000000
000300
087f80
07c300
030600
000c00
001800
006000
00c000
018f80
0330c0
0fc060
1e0030
1c0030
000030
00f830
010c60
0106c0
010380
00fe00
000000
000000
ENDCHAR
STARTCHAR aaec
ENCODING 43756 
SWIDTH 96 0
DWIDTH 24 0
BBX 24 24 0 -2
BITMAP 
000000
000000
030000
018000
018000
0103c0
010e20
019820
4fb020
392020
114060
018060
030060
050060
0d0060
090060
190062
350062
730064
23003c
018000
010000
000000
000000
ENDCHAR
STARTCHAR aaed
ENCODING 43757 
SWIDTH 96 0
DWIDTH 24 0
BBX 24 24 0 -2
BITMAP 
000000
000000
000000
000380
087fc0
07c380
030600
000c00
001800
003000
006000
00c000
031f80
066060
0d8030
1e0018
180018
000018
000030
000030
000060
000180
001e00
000000
ENDCHAR
STARTCHAR aaee
ENCODING 43758 
SWIDTH 96 0
DWIDTH 24 0
BBX 24 24 0 -2
BITMAP 
000000
000000
000000
000000
000000
000000
000000
018000
00c000
00c000
00e000
0bc380
069c60
00e030
018030
028030
048030
0c8030
188020
1280c0
01c180
008600
000000
000000
ENDCHAR
STARTCHAR aaef
ENCODING 43759 
SWIDTH 96 0
DWIDTH 24 0
BBX 24 24 0 -2
BITMAP 
000000
000000
018000
00c000
00c000
008000
20e000
1fc3e0
0c8c18
00b00c
00c006
018006
028006
068006
048006
0c8006
18800c
3a800c
118018
018060
00c780
008000
000000
000000
ENDCHAR
STARTCHAR aaf0
ENCODING 43760 
SWIDTH 96 0
DWIDTH 24 0
BBX 24 24 0 -2
BITMAP 
000000
000000
000000
000c00
047e00
038c00
000800
001800
001000
003fc0
00e030
034018
04400c
08800c
08800c
11000c
13000c
120018
161e18
1c2130
082160
001f80
000000
000000
ENDCHAR
STARTCHAR aaf1
ENCODING 43761 
SWIDTH 96 0
DWIDTH 24 0
BBX 24 24 0 -2
BITMAP 
000000
000600
023f00
01c600
000c00
001000
002000
004780
00b8c0
01c060
030060
063060
0048c0
003f80
00c000
010000
020000
0403c0
098430
164818
38780c
30300c
303000
000000
ENDCHAR
STARTCHAR aaf2
ENCODING 43762 
SWIDTH 96 0
DWIDTH 24 0
BBX 24 24 0 -2
BITMAP 
000000
000000
006000
003000
003300
083f80
07f000
006000
00c000
0180e0
010110
026210
079430
0e1c60
1818c0
301f00
00f800
011800
021800
020000
020000
01ffe0
00ffe0
000000
ENDCHAR
STARTCHAR aaf3
ENCODING 43763 
SWIDTH 96 0
DWIDTH 24 0
BBX 24 24 0 -2
BITMAP 
000000
000000
006000
003000
003000
006000
006000
00c000
00c000
018000
010000
033800
06c400
050200
0c0200
0c0200
180604
180604
300608
300610
600360
2001c0
000000
000000
ENDCHAR
STARTCHAR aba1
ENCODING 43937 
SWIDTH 96 0
DWIDTH 24 0
BBX 24 24 0 -2
BITMAP 
000000
000000
000000
000000
000000
000000
000000
000020
0807f0
07fc60
030060
0020c0
0010c0
001980
001900
001e00
003000
003000
002000
006000
00c000
018000
000000
000000
ENDCHAR
STARTCHAR aba2
ENCODING 43938 
SWIDTH 96 0
DWIDTH 24 0
BBX 24 24 0 -2
BITMAP 
000000
000000
000000
000030
100ff8
1ff81c
0e0018
000018
003030
001830
001860
0018c0
001980
003e00
003000
003000
006000
006000
00c000
018000
030000
0c0000
000000
000000
ENDCHAR
STARTCHAR aba3
ENCODING 43939 
SWIDTH 96 0
DWIDTH 24 0
BBX 24 24 0 -2
BITMAP 
000000
000000
000000
000000
000000
000000
000000
000080
0000c0
000180
000300
000600
000c00
003e00
006c00
018c00
0e0c00
000c00
000c00
000c00
000c00
000c00
000000
000000
ENDCHAR
STARTCHAR aba4
ENCODING 43940 
SWIDTH 96 0
DWIDTH 24 0
BBX 24 24 0 -2
BITMAP 
000000
000000
000060
000030
000070
000060
0000e0
000180
000300
000e00
001e00
007700
01c600
070600
3c0600
000600
000600
000600
000600
000600
000700
000600
000000
000000
ENDCHAR
STARTCHAR aba5
ENCODING 43941 
SWIDTH 96 0
DWIDTH 24 0
BBX 24 24 0 -2
BITMAP 
000000
000000
000000
000000
000000
000000
000000
003000
001800
001840
081fe0
07f070
060060
060060
0600c0
0600c0
000180
000180
000300
000600
001c00
00f000
000000
000000
ENDCHAR
STARTCHAR aba6
ENCODING 43942 
SWIDTH 96 0
DWIDTH 24 0
BBX 24 24 0 -2
BITMAP 
000000
000000
003000
001c00
001800
001810
101ff8
0ff81c
080018
0c0018
0c0038
0c0030
0c0030
0e0030
0c0060
000060
0000c0
000180
000300
000600
001c00
00f000
000000
000000
ENDCHAR
STARTCHAR aba7
ENCODING 43943 
SWIDTH 96 0
DWIDTH 24 0
BBX 24 24 0 -2
BITMAP 
000000
000000
000000
000000
000000
000000
000000
000000
000080
040fc0
03f060
011000
001800
001800
001800
001800
001800
001800
001840
081fe0
07f830
020000
000000
000000
ENDCHAR
STARTCHAR aba8
ENCODING 43944 
SWIDTH 96 0
DWIDTH 24 0
BBX 24 24 0 -2
BITMAP 
000000
000000
000000
000000
000000
0000c0
100fe0
0ff830
061000
001c00
001800
001800
001800
001800
001800
001800
001800
001830
601ff8
3ffc0c
1c0000
000000
000000
000000
ENDCHAR
STARTCHAR aba9
ENCODING 43945 
SWIDTH 96 0
DWIDTH 24 0
BBX 24 24 0 -2
BITMAP 
000000
000000
000000
000000
000000
000000
000000
000600
000300
000300
0803e0
07ff30
020700
000f00
000b00
001b00
003300
006300
018300
0e0300
001f80
000300
000000
000000
ENDCHAR
STARTCHAR abaa
ENCODING 43946 
SWIDTH 96 0
DWIDTH 24 0
BBX 24 24 0 -2
BITMAP 
000000
000000
000300
0001c0
000180
000180
000188
0801fc
0fff82
070380
000780
000580
000d80
001980
003180
006180
00c180
018180
070180
1c1180
000f80
000300
000000
000000
ENDCHAR
STARTCHAR abab
ENCODING 43947 
SWIDTH 96 0
DWIDTH 24 0
BBX 24 24 0 -2
BITMAP 
000000
000000
003000
001c00
001800
001800
001838
101ffc
1ff81c
0e1818
003018
003018
003018
003018
006018
006018
00c038
00c030
018030
030870
0607e0
3800c0
000000
000000
ENDCHAR
STARTCHAR abac
ENCODING 43948 
SWIDTH 96 0
DWIDTH 24 0
BBX 24 24 0 -2
BITMAP 
000000
000018
0060cc
003866
003030
003000
003040
203fe0
3ff070
1c3070
006060
006060
006060
006060
00c060
00c060
0180e0
0180c0
0300c0
0611c0
0c0f80
700300
000000
000000
ENDCHAR
STARTCHAR abad
ENCODING 43949 
SWIDTH 96 0
DWIDTH 24 0
BBX 24 24 0 -2
BITMAP 
000000
000000
006000
00f000
003000
003040
1037e0
1ffc30
0c1800
001800
001800
001810
0018f8
303f8c
1fec00
0c0c00
000c00
000c00
000c00
000c00
000e00
000c00
000000
000000
ENDCHAR
STARTCHAR abae
ENCODING 43950 
SWIDTH 96 0
DWIDTH 24 0
BBX 24 24 0 -2
BITMAP 
000000
000018
00c0cc
01e066
006030
006080
106fc0
1ff860
0c3000
003000
003000
003020
0031f0
607f18
3fd800
181800
001800
001800
001800
001800
001c00
001800
000000
000000
ENDCHAR
STARTCHAR abaf
ENCODING 43951 
SWIDTH 96 0
DWIDTH 24 0
BBX 24 24 0 -2
BITMAP 
000000
000000
00c000
006000
006000
00c040
00c7e0
01fc70
018060
030060
0600e0
0c00c0
300180
000180
000300
000600
000c00
001800
003000
006000
01c000
1f0000
000000
000000
ENDCHAR
STARTCHAR abb0
ENCODING 43952 
SWIDTH 96 0
DWIDTH 24 0
BBX 24 24 0 -2
BITMAP 
000000
000018
01800c
00c066
00c030
018098
018fc0
03f8e0
0300c0
0600c0
0c01c0
180180
600380
000300
000600
000e00
001c00
003800
007000
00c000
038000
1e0000
000000
000000
ENDCHAR
STARTCHAR abb1
ENCODING 43953 
SWIDTH 96 0
DWIDTH 24 0
BBX 24 24 0 -2
BITMAP 
000000
000000
018000
00e000
00c000
00c000
018008
0183fc
01fe06
030300
030380
060300
0c0300
300700
000600
000600
000c00
000c00
001800
003000
00e000
078000
000000
000000
ENDCHAR
STARTCHAR abb2
ENCODING 43954 
SWIDTH 96 0
DWIDTH 24 0
BBX 24 24 0 -2
BITMAP 
000000
000018
0180cc
00e066
00c030
00c000
018010
0183f8
01fe0c
030380
030300
060300
0c0300
300600
000600
000600
000c00
000c00
001800
003000
00e000
078000
000000
000000
ENDCHAR
STARTCHAR abb3
ENCODING 43955 
SWIDTH 96 0
DWIDTH 24 0
BBX 24 24 0 -2
BITMAP 
000000
000000
000000
000000
000000
000080
081fc0
0ff0e0
0600e0
0000c0
0000c0
0000c0
0000c0
0000c0
0001c0
000180
000180
000180
1001c0
1fffe0
0f0000
000000
000000
000000
ENDCHAR
STARTCHAR abb4
ENCODING 43956 
SWIDTH 96 0
DWIDTH 24 0
BBX 24 24 0 -2
BITMAP 
000000
000018
00000c
000066
000030
000118
103f80
1fe1c0
0c01c0
000180
000180
000180
000180
000180
000380
000300
000300
000300
200380
3fffc0
1c0000
000000
000000
000000
ENDCHAR
STARTCHAR abb5
ENCODING 43957 
SWIDTH 96 0
DWIDTH 24 0
BBX 24 24 0 -2
BITMAP 
000000
000000
000300
0601c0
038180
030180
030180
030188
430ffc
7ff986
330180
030180
030180
030300
070300
030300
000600
000600
000c00
001800
007000
01c000
000000
000000
ENDCHAR
STARTCHAR abb6
ENCODING 43958 
SWIDTH 96 0
DWIDTH 24 0
BBX 24 24 0 -2
BITMAP 
000000
000018
00060c
0c0386
070330
060318
06030c
060320
461ff0
7ff308
360300
060300
060300
060600
0e0600
060e00
000c00
001800
003000
006000
00c000
038000
000000
000000
ENDCHAR
STARTCHAR abb7
ENCODING 43959 
SWIDTH 96 0
DWIDTH 24 0
BBX 24 24 0 -2
BITMAP 
000000
000000
030000
01c000
007000
003800
001800
000008
380008
0e0008
038018
018030
000030
000060
0000c0
000180
000300
000e00
087c00
0ff000
07c000
030000
000000
000000
ENDCHAR
STARTCHAR abb8
ENCODING 43960 
SWIDTH 96 0
DWIDTH 24 0
BBX 24 24 0 -2
BITMAP 
000000
000018
03000c
01c066
007030
003818
001800
000000
380008
0e0008
038018
018010
000030
000020
000060
0000c0
000180
000700
001e00
087800
07e000
030000
000000
000000
ENDCHAR
STARTCHAR abb9
ENCODING 43961 
SWIDTH 96 0
DWIDTH 24 0
BBX 24 24 0 -2
BITMAP 
000000
000000
000000
000040
0c0fe0
07f870
038060
0000e0
0000c0
000180
000180
000300
000300
000600
000e00
001980
0030c0
006060
00c030
018018
07001c
3c000c
000000
000000
ENDCHAR
STARTCHAR abba
ENCODING 43962 
SWIDTH 96 0
DWIDTH 24 0
BBX 24 24 0 -2
BITMAP 
000000
00000c
000006
000083
181fd8
0ff0ec
0700c6
0001c0
000180
000180
000300
000700
000600
000c00
001c00
003b00
006180
00c0c0
018060
070070
1c0038
700030
000000
000000
ENDCHAR
STARTCHAR abbb
ENCODING 43963 
SWIDTH 96 0
DWIDTH 24 0
BBX 24 24 0 -2
BITMAP 
000000
000000
030000
01c000
018000
018000
018020
0183f0
21be38
3fe070
198060
0180c0
018180
018600
018000
018000
018000
018000
01c020
00ffe0
007fc0
000000
000000
000000
ENDCHAR
STARTCHAR abbc
ENCODING 43964 
SWIDTH 96 0
DWIDTH 24 0
BBX 24 24 0 -2
BITMAP 
000000
000018
06000c
038066
030030
030018
030040
0307e0
437c70
7fc0e0
3300c0
030180
030300
030c00
030000
030000
030000
030000
038040
01ffc0
00ff80
000000
000000
000000
ENDCHAR
STARTCHAR abbd
ENCODING 43965 
SWIDTH 96 0
DWIDTH 24 0
BBX 24 24 0 -2
BITMAP 
000000
000000
000000
1000e0
080030
0c0038
060030
070030
030070
038060
030060
0000c0
0000c0
0000c0
000180
000180
000300
000600
000c00
001800
007000
03c000
000000
000000
ENDCHAR
STARTCHAR abbe
ENCODING 43966 
SWIDTH 96 0
DWIDTH 24 0
BBX 24 24 0 -2
BITMAP 
000000
00000c
000006
400383
2000d8
3000ec
1800c6
1c00c0
0c00c0
0e01c0
0c0180
000180
000380
000300
000600
000600
000c00
001800
003000
006000
01c000
0f0000
000000
000000
ENDCHAR
STARTCHAR abbf
ENCODING 43967 
SWIDTH 96 0
DWIDTH 24 0
BBX 24 24 0 -2
BITMAP 
000000
000000
00c000
006000
00e000
00c040
0187e0
01fc70
030060
060060
0e00c0
19c0c0
307180
001b80
000f00
000f00
001980
0031c0
006080
01c000
030000
1c0000
000000
000000
ENDCHAR
STARTCHAR abc0
ENCODING 43968 
SWIDTH 96 0
DWIDTH 24 0
BBX 24 24 0 -2
BITMAP 
000000
00000c
018006
00c033
01c018
01808c
030fc0
03f8e0
0600c0
0c00c0
1c01c0
338180
60e380
003300
001f00
000e00
001f00
003b80
006100
01c000
070000
3c0000
000000
000000
ENDCHAR
STARTCHAR abc1
ENCODING 43969 
SWIDTH 96 0
DWIDTH 24 0
BBX 24 24 0 -2
BITMAP 
000000
000000
0000c0
000070
0007e0
003f80
0fe800
000c00
000c00
000c30
600ff8
3ffc0c
1c0c00
001c00
001800
001800
003800
003000
007000
00e000
018000
070000
000000
000000
ENDCHAR
STARTCHAR abc2
ENCODING 43970 
SWIDTH 96 0
DWIDTH 24 0
BBX 24 24 0 -2
BITMAP 
000000
00000c
000186
0000c3
000fd8
007f0c
1fd006
001800
001800
001860
401ff0
7ff818
381800
003800
003000
003000
003000
006000
00e000
018000
030000
0e0000
000000
000000
ENDCHAR
STARTCHAR abc3
ENCODING 43971 
SWIDTH 96 0
DWIDTH 24 0
BBX 24 24 0 -2
BITMAP 
000000
000000
000000
000000
000000
000000
000000
004000
0020c0
083060
043070
061860
031860
0300c0
0300c0
0000c0
000180
000300
000600
000c00
003800
01e000
000000
000000
ENDCHAR
STARTCHAR abc4
ENCODING 43972 
SWIDTH 96 0
DWIDTH 24 0
BBX 24 24 0 -2
BITMAP 
000000
000000
000000
008000
0040e0
206030
106038
183030
0c3830
0c3030
060070
060060
000060
0000c0
0000c0
000180
000300
000600
000c00
003800
00e000
038000
000000
000000
ENDCHAR
STARTCHAR abc5
ENCODING 43973 
SWIDTH 96 0
DWIDTH 24 0
BBX 24 24 0 -2
BITMAP 
000000
00000c
000006
010003
008018
40c00c
20c1c6
306060
186070
186060
0c00e0
0c00c0
0000c0
000180
000180
000300
000600
000c00
001800
007000
01c000
070000
000000
000000
ENDCHAR
STARTCHAR abc6
ENCODING 43974 
SWIDTH 96 0
DWIDTH 24 0
BBX 24 24 0 -2
BITMAP 
000000
000000
000080
040fc0
07f860
030000
000000
000000
000030
600ff8
3ff80c
1c0e00
000c00
000c00
000c00
001800
001800
003000
003000
006000
01c000
070000
000000
000000
ENDCHAR
STARTCHAR abc7
ENCODING 43975 
SWIDTH 96 0
DWIDTH 24 0
BBX 24 24 0 -2
BITMAP 
000000
00000c
000106
081f83
0ff018
06000c
000006
000000
000060
401ff0
7ff000
381c00
001800
001800
001800
003000
003000
006000
006000
00c000
038000
0e0000
000000
000000
ENDCHAR
STARTCHAR abc8
ENCODING 43976 
SWIDTH 96 0
DWIDTH 24 0
BBX 24 24 0 -2
BITMAP 
000000
000000
018000
00c000
00e000
00c000
00c000
00c000
00c000
00f800
00ce00
00c380
00c1c0
00c0e0
00c040
00c000
00c000
00c000
00c000
00c000
01c000
00c000
000000
000000
ENDCHAR
STARTCHAR abc9
ENCODING 43977 
SWIDTH 96 0
DWIDTH 24 0
BBX 24 24 0 -2
BITMAP 
000000
000000
018030
00c018
00e18c
00c0c0
00c060
00c000
00c000
00f800
00ce00
00c380
00c1c0
00c0e0
00c040
00c000
00c000
00c000
00c000
00c000
01c000
00c000
000000
000000
ENDCHAR
STARTCHAR abca
ENCODING 43978 
SWIDTH 96 0
DWIDTH 24 0
BBX 24 24 0 -2
BITMAP 
000000
000000
001800
000c00
000e00
000c00
000c00
000c18
600ffc
3ffc06
1c0c00
000c00
001c00
001800
001800
001800
003000
003000
006000
00c000
038000
0e0000
000000
000000
ENDCHAR
STARTCHAR abcb
ENCODING 43979 
SWIDTH 96 0
DWIDTH 24 0
BBX 24 24 0 -2
BITMAP 
000000
000000
000000
000000
000000
000040
0807e0
0ffc30
070000
000000
000000
000000
000000
000000
000000
000000
000060
3007f8
1ffc0c
0e0000
000000
000000
000000
000000
ENDCHAR
STARTCHAR abcc
ENCODING 43980 
SWIDTH 96 0
DWIDTH 24 0
BBX 24 24 0 -2
BITMAP 
000000
000000
000000
000080
0c0fc0
07f8e0
0300c0
0001c0
000180
000180
038380
00e300
003a00
000e00
000f00
001dc0
0030e0
006070
00c020
038000
070000
3c0000
000000
000000
ENDCHAR
STARTCHAR abcd
ENCODING 43981 
SWIDTH 96 0
DWIDTH 24 0
BBX 24 24 0 -2
BITMAP 
000000
000000
00f000
001e00
000600
000000
0000c0
0c1fe0
07f0c0
030180
000300
000600
000c00
0018c0
007c60
01cc30
070c18
3c0c0c
000c00
000c00
001c00
000c00
000000
000000
ENDCHAR
STARTCHAR abce
ENCODING 43982 
SWIDTH 96 0
DWIDTH 24 0
BBX 24 24 0 -2
BITMAP 
000000
000000
000000
000380
0000c0
0000e0
0000c0
0001c0
000180
000180
000300
000300
000600
000c00
000c00
001800
003000
006000
01c000
030000
3e0000
000000
000000
000000
ENDCHAR
STARTCHAR abcf
ENCODING 43983 
SWIDTH 96 0
DWIDTH 24 0
BBX 24 24 0 -2
BITMAP 
000000
000000
000000
000000
000000
018400
00c200
00e100
00c180
00c0c0
01c0c0
018060
018030
030030
030038
060018
06001c
0c000c
18000c
200000
000000
000000
000000
000000
ENDCHAR
STARTCHAR abd0
ENCODING 43984 
SWIDTH 96 0
DWIDTH 24 0
BBX 24 24 0 -2
BITMAP 
000000
000000
000030
000018
00000c
018460
00c230
00e118
00c180
00c080
01c0c0
018060
018060
030030
030030
060030
060018
0c0018
180018
200000
000000
000000
000000
000000
ENDCHAR
STARTCHAR abd1
ENCODING 43985 
SWIDTH 96 0
DWIDTH 24 0
BBX 24 24 0 -2
BITMAP 
000000
000000
000038
000044
000044
030844
018438
01c200
018300
018100
038180
0300c0
0300c0
060060
060060
0c0060
0c0030
180030
300030
400000
000000
000000
000000
000000
ENDCHAR
STARTCHAR abd2
ENCODING 43986 
SWIDTH 96 0
DWIDTH 24 0
BBX 24 24 0 -2
BITMAP 
000000
000000
0c0000
060000
070000
060000
060040
0600e0
0601c0
060700
063c00
07e000
060000
060000
060000
060000
060000
060000
060040
03ffe0
01ffc0
000000
000000
000000
ENDCHAR
STARTCHAR abd3
ENCODING 43987 
SWIDTH 96 0
DWIDTH 24 0
BBX 24 24 0 -2
BITMAP 
000000
000000
0c0018
06000c
070066
060030
060218
060380
060700
061e00
067800
07c000
060000
060000
060000
060000
060000
060000
060040
03ffe0
01ffc0
000000
000000
000000
ENDCHAR
STARTCHAR abd4
ENCODING 43988 
SWIDTH 96 0
DWIDTH 24 0
BBX 24 24 0 -2
BITMAP 
000000
000000
0c0038
060044
070044
060044
060238
060380
060700
061e00
067800
07c000
060000
060000
060000
060000
060000
060000
060040
03ffe0
01ffc0
000000
000000
000000
ENDCHAR
STARTCHAR abd5
ENCODING 43989 
SWIDTH 96 0
DWIDTH 24 0
BBX 24 24 0 -2
BITMAP 
000000
000000
000000
000000
000030
300ff8
1ff838
0e0030
000030
000070
000060
000060
0000c0
000180
000180
000300
000600
000c00
001800
007000
00c000
078000
000000
000000
ENDCHAR
STARTCHAR abd6
ENCODING 43990 
SWIDTH 96 0
DWIDTH 24 0
BBX 24 24 0 -2
BITMAP 
000000
00000c
000006
000003
000098
403fcc
7fe0e6
3800c0
0000c0
0001c0
000180
000180
000300
000300
000600
000c00
001800
003000
006000
01c000
070000
1c0000
000000
000000
ENDCHAR
STARTCHAR abd7
ENCODING 43991 
SWIDTH 96 0
DWIDTH 24 0
BBX 24 24 0 -2
BITMAP 
000000
00000e
000011
000011
000091
403fce
7fe0e0
3800c0
0000c0
0001c0
000180
000380
000300
000700
000600
000c00
001800
003000
006000
00c000
038000
0e0000
000000
000000
ENDCHAR
STARTCHAR abd8
ENCODING 43992 
SWIDTH 96 0
DWIDTH 24 0
BBX 24 24 0 -2
BITMAP 
000000
000000
000000
000000
000000
006000
009000
019800
010800
030c00
060400
060600
4c0300
780180
3000c0
000060
000030
00003c
00001c
000008
000000
000000
000000
000000
ENDCHAR
STARTCHAR abd9
ENCODING 43993 
SWIDTH 96 0
DWIDTH 24 0
BBX 24 24 0 -2
BITMAP 
000000
000000
000000
000030
000018
00618c
0090c0
019860
010800
030c00
060400
060600
4c0300
780180
3000c0
000060
000030
00003c
00001c
000008
000000
000000
000000
000000
ENDCHAR
STARTCHAR abda
ENCODING 43994 
SWIDTH 96 0
DWIDTH 24 0
BBX 24 24 0 -2
BITMAP 
000000
000000
000000
000038
000044
006044
009044
019838
010800
030c00
020400
060600
4c0300
780180
3000c0
000060
000030
00003c
00001c
000008
000000
000000
000000
000000
ENDCHAR
STARTCHAR abdb
ENCODING 43995 
SWIDTH 96 0
DWIDTH 24 0
BBX 24 24 0 -2
BITMAP 
000000
000000
001800
000e00
000c00
000c00
000c10
100ff8
1ffc0c
0e0c00
000c00
000c00
000c40
010c60
030c30
060c18
0c0c18
380c0c
308c0c
004c00
003c00
001800
000000
000000
ENDCHAR
STARTCHAR abdc
ENCODING 43996 
SWIDTH 96 0
DWIDTH 24 0
BBX 24 24 0 -2
BITMAP 
000000
00000c
003006
001c33
001818
00180c
001840
201fe0
3ff830
1c1800
001800
001800
001880
0218c0
061860
0c1860
181830
701838
611810
009800
007800
003000
000000
000000
ENDCHAR
STARTCHAR abdd
ENCODING 43997 
SWIDTH 96 0
DWIDTH 24 0
BBX 24 24 0 -2
BITMAP 
000000
00001c
003022
001c22
001822
00181c
001840
201fe0
3ff830
1c1800
001800
001800
001880
0218c0
061860
0c1830
181830
701818
611818
009800
007800
003000
000000
000000
ENDCHAR
STARTCHAR abde
ENCODING 43998 
SWIDTH 96 0
DWIDTH 24 0
BBX 24 24 0 -2
BITMAP 
000000
000000
000000
000000
000010
200ff8
3ff01c
1e0018
000038
000030
000060
0000c0
070180
01c300
006600
003c00
001c00
000e00
000700
000380
000300
000000
000000
000000
ENDCHAR
STARTCHAR abdf
ENCODING 43999 
SWIDTH 96 0
DWIDTH 24 0
BBX 24 24 0 -2
BITMAP 
000000
000000
000000
07c000
007c00
001f00
0003c0
0000e0
000060
03c000
007800
001e00
000780
0001c0
0000c0
000000
0fc000
00fc00
001f80
0003e0
0000f0
000030
000000
000000
ENDCHAR
STARTCHAR abe0
ENCODING 44000 
SWIDTH 96 0
DWIDTH 24 0
BBX 24 24 0 -2
BITMAP 
000000
000000
000000
006000
003000
003800
003000
007000
006000
006000
00c000
00c000
00c080
018040
018060
030030
020030
0601f8
243f18
3ff00c
1f000c
000008
000000
000000
ENDCHAR
STARTCHAR abe1
ENCODING 44001 
SWIDTH 96 0
DWIDTH 24 0
BBX 24 24 0 -2
BITMAP 
000000
000000
000000
0000c0
000060
000070
000060
0000e0
0380c0
00e0c0
003980
000d80
000700
000380
0007c0
000ce0
001870
003030
006030
01c000
070000
1c0000
000000
000000
ENDCHAR
STARTCHAR abe2
ENCODING 44002 
SWIDTH 96 0
DWIDTH 24 0
BBX 24 24 0 -2
BITMAP 
000000
000000
000000
000040
0807e0
0ffc30
066000
006000
006000
006030
2063f8
3ffe0c
1c6000
006000
006000
006000
006000
006000
006020
003ff0
001fe0
000000
000000
000000
ENDCHAR
STARTCHAR abe3
ENCODING 44003 
SWIDTH 96 0
DWIDTH 24 0
BBX 24 24 0 -2
BITMAP 
000000
000000
000000
000000
000000
000000
000000
00c000
006000
006020
0067f0
087c60
07a060
0230c0
003180
003200
003000
001800
001800
001800
001800
001800
000000
000000
ENDCHAR
STARTCHAR abe4
ENCODING 44004 
SWIDTH 96 0
DWIDTH 24 0
BBX 24 24 0 -2
BITMAP 
000000
000000
030000
018000
01c000
018000
018010
0187f8
40fc1c
7fc038
30c030
00c060
0060c0
006180
006300
006000
006000
003000
003000
003000
003800
003000
000000
000000
ENDCHAR
STARTCHAR abe5
ENCODING 44005 
SWIDTH 96 0
DWIDTH 24 0
BBX 24 24 0 -2
BITMAP 
000000
000000
000000
000000
000000
000000
000000
000000
000000
000000
040200
03ff00
010380
000300
000300
000300
000600
000600
000640
080fe0
07f830
020000
000000
000000
ENDCHAR
STARTCHAR abe6
ENCODING 44006 
SWIDTH 96 0
DWIDTH 24 0
BBX 24 24 0 -2
BITMAP 
000000
000000
000000
000000
000000
000100
041f80
07f1c0
030180
000180
000180
000180
000380
000300
000300
000308
6003fc
3ffe06
1c0000
000000
000000
000000
000000
000000
ENDCHAR
STARTCHAR abe7
ENCODING 44007 
SWIDTH 96 0
DWIDTH 24 0
BBX 24 24 0 -2
BITMAP 
000000
000000
000000
000000
000000
000000
000000
000000
020100
01ff80
0081c0
000180
000180
010180
00ff80
004180
000300
000300
000300
040300
03ffc0
010000
000000
000000
ENDCHAR
STARTCHAR abe8
ENCODING 44008 
SWIDTH 96 0
DWIDTH 24 0
BBX 24 24 0 -2
BITMAP 
000000
000000
000000
000000
000040
080fe0
0ff870
060060
000060
000060
000060
040fe0
07f860
0300e0
0000c0
0000c0
0000c0
0000c0
101fc0
1ff0c0
0e00c0
000000
000000
000000
ENDCHAR
STARTCHAR abe9
ENCODING 44009 
SWIDTH 96 0
DWIDTH 24 0
BBX 24 24 0 -2
BITMAP 
000000
000000
000080
081fc0
0ff060
060000
000000
000010
603ff8
3fe01c
1c0018
000038
000030
000060
000060
0000c0
000180
000300
000600
001c00
007000
03c000
000000
000000
ENDCHAR
STARTCHAR abea
ENCODING 44010 
SWIDTH 96 0
DWIDTH 24 0
BBX 24 24 0 -2
BITMAP 
000000
000000
000180
0600c0
0300e0
0380c0
0300c0
0300c0
0300c0
0300c0
0300c0
0300c0
0301c0
070180
030180
000180
000300
000300
000600
000c00
003800
00e000
000000
000000
ENDCHAR
STARTCHAR abeb
ENCODING 44011 
SWIDTH 96 0
DWIDTH 24 0
BBX 24 24 0 -2
BITMAP 
000000
000000
001800
000c00
030e00
018c00
01cc00
018c00
018c00
018c00
018c04
018c04
018c0c
030c08
030c18
030c10
030c30
060c60
060cc0
0c0f80
181f00
200c00
000000
000000
ENDCHAR
STARTCHAR abec
ENCODING 44012 
SWIDTH 96 0
DWIDTH 24 0
BBX 24 24 0 -2
BITMAP 
000000
000000
030000
018000
01c000
018000
018000
018000
018004
018004
01800c
018008
018018
018030
018060
0180c0
018180
018700
018e00
01bc00
03f000
01c000
000000
000000
ENDCHAR
STARTCHAR abed
ENCODING 44013 
SWIDTH 96 0
DWIDTH 24 0
BBX 24 24 0 -2
BITMAP 
000000
000000
000000
000000
000040
080fe0
07f870
040060
060060
060060
060060
060060
060060
0600e0
0600c0
0600c0
0600c0
0600c0
060ff0
0ff820
060000
000000
000000
000000
ENDCHAR
STARTCHAR abee
ENCODING 44014 
SWIDTH 96 0
DWIDTH 24 0
BBX 24 24 0 -2
BITMAP 
000000
000000
000000
000000
000000
000000
000000
000040
081fe0
07f070
040060
060060
060060
0600c0
0600c0
0000c0
000180
000180
000300
000600
001c00
00f000
000000
000000
ENDCHAR
STARTCHAR abef
ENCODING 44015 
SWIDTH 96 0
DWIDTH 24 0
BBX 24 24 0 -2
BITMAP 
000000
000000
000000
000020
100ff0
0ff838
080030
0c0030
0c0030
0c0070
0c0060
0e0060
0c00c0
0000c0
000180
000180
000300
000300
000600
000c00
003800
00e000
000000
000000
ENDCHAR
STARTCHAR abf0
ENCODING 44016 
SWIDTH 96 0
DWIDTH 24 0
BBX 24 24 0 -2
BITMAP 
000000
000000
000c00
000700
000600
000620
0807f0
0ffe18
060600
000600
020600
030600
030600
030620
2207f8
3ffe0c
1c0600
000600
000600
000600
000e00
000600
000000
000000
ENDCHAR
STARTCHAR abf1
ENCODING 44017 
SWIDTH 96 0
DWIDTH 24 0
BBX 24 24 0 -2
BITMAP 
000000
000000
000000
000000
000040
080fe0
0ff870
060060
0000e0
0030c0
001980
001b00
001c00
001800
001800
001800
001800
001830
201ffc
3ff006
1c0000
000000
000000
000000
ENDCHAR
STARTCHAR abf2
ENCODING 44018 
SWIDTH 96 0
DWIDTH 24 0
BBX 24 24 0 -2
BITMAP 
000000
000000
000000
000060
300ff0
1ff838
0f0038
000030
000030
000070
1807e0
0ffc60
070060
0000c0
0000c0
000180
000300
000600
000c00
001800
007000
01c000
000000
000000
ENDCHAR
STARTCHAR abf3
ENCODING 44019 
SWIDTH 96 0
DWIDTH 24 0
BBX 24 24 0 -2
BITMAP 
000000
000000
000000
180000
060000
030000
018000
01c010
00e010
00c010
000030
000020
000060
0000c0
000180
000380
000700
001e00
007800
11f000
0f8000
060000
000000
000000
ENDCHAR
STARTCHAR abf4
ENCODING 44020 
SWIDTH 96 0
DWIDTH 24 0
BBX 24 24 0 -2
BITMAP 
000000
00000c
00c006
007033
006018
00608c
407fc0
3fe0e0
2000c0
3000c0
3001c0
300180
300180
380380
300300
000300
000600
000c00
001800
003000
00e000
038000
000000
000000
ENDCHAR
STARTCHAR abf5
ENCODING 44021 
SWIDTH 96 0
DWIDTH 24 0
BBX 24 24 0 -2
BITMAP 
000000
000000
000000
000000
000000
000000
000000
003000
001800
001840
081be0
07fc70
021860
003060
003060
003060
006060
006060
00c0c0
0188c0
0307c0
0c0180
000000
000000
ENDCHAR
STARTCHAR abf6
ENCODING 44022 
SWIDTH 96 0
DWIDTH 24 0
BBX 24 24 0 -2
BITMAP 
000000
000000
000000
000000
000000
000000
000000
018000
00c000
00c040
0187e0
01fc30
030600
060600
080600
000c00
000c00
001800
001800
003000
006000
018000
000000
000000
ENDCHAR
STARTCHAR a5a1
ENCODING 42401 
SWIDTH 96 0
DWIDTH 24 0
BBX 24 24 0 -2
BITMAP 
000000
000000
001800
003c00
001800
000000
000000
007800
001800
001800
001800
001800
001800
001800
001800
001800
001800
001800
001800
001800
001800
007e00
000000
000000
ENDCHAR
STARTCHAR a5a2
ENCODING 42402 
SWIDTH 96 0
DWIDTH 24 0
BBX 24 24 0 -2
BITMAP 
000000
000000
00c300
01e780
00c300
000000
000000
03cf00
00c300
00c300
00c300
00c300
00c300
00c300
00c300
00c300
00c300
00c300
00c300
00c300
00c300
03e7c0
000000
000000
ENDCHAR
STARTCHAR a5a3
ENCODING 42403 
SWIDTH 96 0
DWIDTH 24 0
BBX 24 24 0 -2
BITMAP 
000000
000000
061860
0f3cf0
061860
000000
000000
1e79e0
061860
061860
061860
061860
061860
061860
061860
061860
061860
061860
061860
061860
061860
1f3cf8
000000
000000
ENDCHAR
STARTCHAR a5a4
ENCODING 42404 
SWIDTH 96 0
DWIDTH 24 0
BBX 24 24 0 -2
BITMAP 
000000
000000
060000
0f0000
060000
000000
000000
1e7c7c
063010
063010
063010
061810
061820
061820
060c20
060c40
060e40
060e40
060680
060680
060380
1f8300
000000
000000
ENDCHAR
STARTCHAR a5a5
ENCODING 42405 
SWIDTH 96 0
DWIDTH 24 0
BBX 24 24 0 -2
BITMAP 
000000
000000
000000
000000
000000
000000
000000
07e3e0
018080
018080
018080
00c080
00c100
00c100
006100
006200
006200
003200
003400
003400
001c00
001800
000000
000000
ENDCHAR
STARTCHAR a5a6
ENCODING 42406 
SWIDTH 96 0
DWIDTH 24 0
BBX 24 24 0 -2
BITMAP 
000000
000000
000030
000078
000030
000000
000000
3f0e70
0c0430
0c0430
0c0430
060430
060830
060830
030830
031030
031030
019030
01a030
01a030
00e030
00c0fc
000000
000000
ENDCHAR
STARTCHAR a5a7
ENCODING 42407 
SWIDTH 96 0
DWIDTH 24 0
BBX 24 24 0 -2
BITMAP 
000000
000000
000318
0007bc
000318
000000
000000
f8e738
304318
304318
304318
304318
188318
188318
188318
188318
0d0318
0d0318
0d0318
0d0318
060318
060f3e
000000
000000
ENDCHAR
STARTCHAR a5a8
ENCODING 42408 
SWIDTH 96 0
DWIDTH 24 0
BBX 24 24 0 -2
BITMAP 
000000
000000
0018c6
003def
0018c6
000000
000000
f1d9ce
6098c6
6098c6
6098c6
6098c6
3118c6
3118c6
3118c6
3118c6
1a18c6
1a18c6
1a18c6
1a18c6
0c18c6
0c79cf
000000
000000
ENDCHAR
STARTCHAR a5a9
ENCODING 42409 
SWIDTH 96 0
DWIDTH 24 0
BBX 24 24 0 -2
BITMAP 
000000
000000
0c0000
1e0000
0c0000
000000
000000
3cf03e
0c6008
0c3010
0c1820
0c0c40
0c0680
0c0300
0c0300
0c0580
0c08c0
0c1060
0c2030
0c4018
0c800c
3ff03f
000000
000000
ENDCHAR
STARTCHAR a5aa
ENCODING 42410 
SWIDTH 96 0
DWIDTH 24 0
BBX 24 24 0 -2
BITMAP 
000000
000000
000000
000000
000000
000000
000000
0fc1f0
030040
018080
00c100
006200
003400
001800
001800
002c00
004600
008300
010180
0200c0
040060
1f01f8
000000
000000
ENDCHAR
STARTCHAR a5b0
ENCODING 42416 
SWIDTH 96 0
DWIDTH 24 0
BBX 24 24 0 -2
BITMAP 
000000
000000
00ff00
001800
001800
001800
001800
001800
001800
001800
001800
001800
001800
001800
001800
001800
001800
001800
001800
001800
001800
00ff00
000000
000000
ENDCHAR
STARTCHAR a5b1
ENCODING 42417 
SWIDTH 96 0
DWIDTH 24 0
BBX 24 24 0 -2
BITMAP 
000000
000000
07e7e0
018180
018180
018180
018180
018180
018180
018180
018180
018180
018180
018180
018180
018180
018180
018180
018180
018180
018180
07e7e0
000000
000000
ENDCHAR
STARTCHAR a5b2
ENCODING 42418 
SWIDTH 96 0
DWIDTH 24 0
BBX 24 24 0 -2
BITMAP 
000000
000000
1f3cf8
061860
061860
061860
061860
061860
061860
061860
061860
061860
061860
061860
061860
061860
061860
061860
061860
061860
061860
1f3cf8
000000
000000
ENDCHAR
STARTCHAR a5b3
ENCODING 42419 
SWIDTH 96 0
DWIDTH 24 0
BBX 24 24 0 -2
BITMAP 
000000
000000
3ef81e
0c6004
0c6004
0c3004
0c3008
0c3008
0c1808
0c1810
0c1810
0c0c10
0c0c20
0c0c20
0c0620
0c0620
0c0640
0c0340
0c0340
0c0340
0c0180
3f0180
000000
000000
ENDCHAR
STARTCHAR a5b4
ENCODING 42420 
SWIDTH 96 0
DWIDTH 24 0
BBX 24 24 0 -2
BITMAP 
000000
000000
1f81f0
060040
060040
030040
030080
030080
018080
018100
018100
00c100
00c200
00c200
006200
006200
006400
003400
003400
003400
001800
001800
000000
000000
ENDCHAR
STARTCHAR a5b5
ENCODING 42421 
SWIDTH 96 0
DWIDTH 24 0
BBX 24 24 0 -2
BITMAP 
000000
000000
fc0f7c
300230
300230
180230
180430
180430
0c0430
0c0830
0c0830
060830
060830
061030
031030
031030
031030
01a030
01a030
01a030
00e030
00c0fc
000000
000000
ENDCHAR
STARTCHAR a5b6
ENCODING 42422 
SWIDTH 96 0
DWIDTH 24 0
BBX 24 24 0 -2
BITMAP 
000000
000000
7c7bde
30118c
30118c
30118c
30118c
18218c
18218c
18218c
18218c
0c418c
0c418c
0c418c
0c418c
06818c
06818c
06818c
06818c
06818c
03018c
0307de
000000
000000
ENDCHAR
STARTCHAR a5b7
ENCODING 42423 
SWIDTH 96 0
DWIDTH 24 0
BBX 24 24 0 -2
BITMAP 
000000
000000
f8ffff
602666
602666
602666
602666
304666
304666
304666
304666
188666
188666
188666
188666
0d0666
0d0666
0d0666
0d0666
0d0666
060666
061fff
000000
000000
ENDCHAR
STARTCHAR a5b8
ENCODING 42424 
SWIDTH 96 0
DWIDTH 24 0
BBX 24 24 0 -2
BITMAP 
000000
000000
7ff01e
186008
186010
183010
181820
181840
180c80
180680
180300
180380
180580
1804c0
180860
181030
181030
182018
184018
18400c
18800c
7ff03f
000000
000000
ENDCHAR
STARTCHAR a5b9
ENCODING 42425 
SWIDTH 96 0
DWIDTH 24 0
BBX 24 24 0 -2
BITMAP 
000000
000000
1f807c
060010
030020
018040
00c080
00c100
006200
003400
001800
001c00
002600
004300
008300
010180
0200c0
0400c0
080060
100030
100030
7c00fc
000000
000000
ENDCHAR
STARTCHAR a5c1
ENCODING 42433 
SWIDTH 96 0
DWIDTH 24 0
BBX 24 24 0 -2
BITMAP 
000000
000000
001800
003c00
002c00
006600
004600
004600
00c300
008300
018180
010180
010180
0300c0
03ffc0
0600e0
040060
040060
0c0030
080030
080030
3e00fc
000000
000000
ENDCHAR
STARTCHAR a5c2
ENCODING 42434 
SWIDTH 96 0
DWIDTH 24 0
BBX 24 24 0 -2
BITMAP 
000000
000000
0ffe00
030380
0300c0
030060
030060
030060
030060
0300c0
030180
03ff00
0301c0
030060
030030
030018
030018
030018
030018
030030
0300e0
0fff80
000000
000000
ENDCHAR
STARTCHAR a5c3
ENCODING 42435 
SWIDTH 96 0
DWIDTH 24 0
BBX 24 24 0 -2
BITMAP 
000000
000000
0ffff0
030070
030030
030010
030010
030000
030000
030000
030000
030000
030000
030000
030000
030000
030000
030000
030000
030000
030000
0fc000
000000
000000
ENDCHAR
STARTCHAR a5c4
ENCODING 42436 
SWIDTH 96 0
DWIDTH 24 0
BBX 24 24 0 -2
BITMAP 
000000
000000
001800
003c00
002c00
006e00
004600
00c700
008300
018380
010180
0301c0
0200c0
0600e0
040060
0c0070
080030
180038
100018
30001c
3ffffc
3ffffc
000000
000000
ENDCHAR
STARTCHAR a5c5
ENCODING 42437 
SWIDTH 96 0
DWIDTH 24 0
BBX 24 24 0 -2
BITMAP 
000000
000000
0fffe0
0300e0
030060
030020
030020
030000
030200
030200
030600
03fe00
030600
030200
030200
030000
030000
030020
030020
030060
0300e0
0fffe0
000000
000000
ENDCHAR
STARTCHAR a5c6
ENCODING 42438 
SWIDTH 96 0
DWIDTH 24 0
BBX 24 24 0 -2
BITMAP 
000000
000000
0ffff0
0e0070
0c00e0
0800c0
0801c0
000380
000700
000600
000e00
001c00
003800
007000
00e000
01c000
018000
030008
070008
0e0018
1c0038
1ffff8
000000
000000
ENDCHAR
STARTCHAR a5c7
ENCODING 42439 
SWIDTH 96 0
DWIDTH 24 0
BBX 24 24 0 -2
BITMAP 
000000
000000
1f81f8
060060
060060
060060
060060
060060
060060
060060
060060
07ffe0
060060
060060
060060
060060
060060
060060
060060
060060
060060
1f81f8
000000
000000
ENDCHAR
STARTCHAR a5c8
ENCODING 42440 
SWIDTH 96 0
DWIDTH 24 0
BBX 24 24 0 -2
BITMAP 
000000
000000
00fe00
038380
0600c0
0c0060
0c0060
0c0060
1c0070
180030
188230
18fe30
18fe30
188230
180030
1c0070
0c0060
0c0060
0c0060
0600c0
038380
00fe00
000000
000000
ENDCHAR
STARTCHAR a5c9
ENCODING 42441 
SWIDTH 96 0
DWIDTH 24 0
BBX 24 24 0 -2
BITMAP 
000000
000000
00ff00
001800
001800
001800
001800
001800
001800
001800
001800
001800
001800
001800
001800
001800
001800
001800
001800
001800
001800
00ff00
000000
000000
ENDCHAR
STARTCHAR a5ca
ENCODING 42442 
SWIDTH 96 0
DWIDTH 24 0
BBX 24 24 0 -2
BITMAP 
000000
000000
1f83f0
0600c0
060180
060300
060600
060c00
061800
063000
067000
06f800
079800
070c00
060600
060600
060300
060180
060180
0600c0
0600e0
1f83f8
000000
000000
ENDCHAR
STARTCHAR a5cb
ENCODING 42443 
SWIDTH 96 0
DWIDTH 24 0
BBX 24 24 0 -2
BITMAP 
000000
000000
001800
003c00
003c00
006600
004600
004600
00c300
008300
018180
010180
010180
0300c0
0200c0
060060
040060
040060
0c0030
080030
080030
3e00fc
000000
000000
ENDCHAR
STARTCHAR a5cc
ENCODING 42444 
SWIDTH 96 0
DWIDTH 24 0
BBX 24 24 0 -2
BITMAP 
000000
000000
7c003e
1e0038
160058
130058
1300d8
118098
118098
118198
10c118
10c118
10c318
106218
106218
106618
103418
103c18
101818
101818
100018
7c007e
000000
000000
ENDCHAR
STARTCHAR a5cd
ENCODING 42445 
SWIDTH 96 0
DWIDTH 24 0
BBX 24 24 0 -2
BITMAP 
000000
000000
1f00f8
078020
058020
05c020
04e020
046020
047020
043020
041820
041c20
040e20
040620
040720
040320
0401a0
0401e0
0400e0
040060
040060
1f0020
000000
000000
ENDCHAR
STARTCHAR a5ce
ENCODING 42446 
SWIDTH 96 0
DWIDTH 24 0
BBX 24 24 0 -2
BITMAP 
000000
000000
03fff8
07fff0
040010
080020
000000
000000
000000
010020
01ffe0
03ffc0
020040
000000
000000
000000
000000
000000
040008
080010
0ffff0
1fffe0
000000
000000
ENDCHAR
STARTCHAR a5cf
ENCODING 42447 
SWIDTH 96 0
DWIDTH 24 0
BBX 24 24 0 -2
BITMAP 
000000
000000
00ff00
0381c0
060060
0c0030
0c0030
0c0030
1c0038
180018
180018
180018
180018
180018
180018
1c0038
0c0030
0c0030
0c0030
060060
0381c0
00ff00
000000
000000
ENDCHAR
STARTCHAR a5d0
ENCODING 42448 
SWIDTH 96 0
DWIDTH 24 0
BBX 24 24 0 -2
BITMAP 
000000
000000
1ffff8
060060
060060
060060
060060
060060
060060
060060
060060
060060
060060
060060
060060
060060
060060
060060
060060
060060
060060
1f81f8
000000
000000
ENDCHAR
STARTCHAR a5d1
ENCODING 42449 
SWIDTH 96 0
DWIDTH 24 0
BBX 24 24 0 -2
BITMAP 
000000
000000
0fff00
0301c0
030060
030030
030030
030030
030030
030030
030060
0301c0
03ff00
030000
030000
030000
030000
030000
030000
030000
030000
0fc000
000000
000000
ENDCHAR
STARTCHAR a5d2
ENCODING 42450 
SWIDTH 96 0
DWIDTH 24 0
BBX 24 24 0 -2
BITMAP 
000000
000000
07fff0
070030
038018
018008
01c000
00e000
007000
003800
001c00
000e00
000c00
001800
003000
006000
00c000
018008
018008
030018
07fff0
0ffff0
000000
000000
ENDCHAR
STARTCHAR a5d3
ENCODING 42451 
SWIDTH 96 0
DWIDTH 24 0
BBX 24 24 0 -2
BITMAP 
000000
000000
0ffff0
0e1870
0c1830
081810
081810
001800
001800
001800
001800
001800
001800
001800
001800
001800
001800
001800
001800
001800
001800
007e00
000000
000000
ENDCHAR
STARTCHAR a5d4
ENCODING 42452 
SWIDTH 96 0
DWIDTH 24 0
BBX 24 24 0 -2
BITMAP 
000000
000000
03c3c0
07e7e0
0c3c30
181818
101808
101808
001800
001800
001800
001800
001800
001800
001800
001800
001800
001800
001800
001800
001800
007e00
000000
000000
ENDCHAR
STARTCHAR a5d5
ENCODING 42453 
SWIDTH 96 0
DWIDTH 24 0
BBX 24 24 0 -2
BITMAP 
000000
000000
007e00
001800
001800
00ff00
0799e0
0c1830
181818
181818
30180c
30180c
30180c
30180c
181818
181818
0c1830
0799e0
00ff00
001800
001800
007e00
000000
000000
ENDCHAR
STARTCHAR a5d6
ENCODING 42454 
SWIDTH 96 0
DWIDTH 24 0
BBX 24 24 0 -2
BITMAP 
000000
000000
1f80fc
070030
030020
038060
01c0c0
00c180
00e100
007300
003600
003c00
001800
003c00
006e00
00c700
018380
030180
0601c0
0c00e0
0c0070
3f01fc
000000
000000
ENDCHAR
STARTCHAR a5d7
ENCODING 42455 
SWIDTH 96 0
DWIDTH 24 0
BBX 24 24 0 -2
BITMAP 
000000
000000
387e1c
7c183e
c61863
061860
061860
061860
061860
0318c0
0318c0
0318c0
0318c0
019980
019980
019980
00db00
003c00
001800
001800
001800
007e00
000000
000000
ENDCHAR
STARTCHAR a5d8
ENCODING 42456 
SWIDTH 96 0
DWIDTH 24 0
BBX 24 24 0 -2
BITMAP 
000000
000000
007e00
01c380
0300c0
0300c0
0700e0
060060
0e0070
0e0070
0e0070
060060
0700e0
0300c0
0300c0
018180
00c300
002400
082410
082410
0fe7f0
0fe7f0
000000
000000
ENDCHAR
STARTCHAR a5e1
ENCODING 42465 
SWIDTH 96 0
DWIDTH 24 0
BBX 24 24 0 -2
BITMAP 
000000
000000
000000
000000
000000
000000
000000
000000
000000
003c30
00e660
018360
030140
0301c0
060180
060180
060180
060380
060280
0306c0
030cc0
01f870
000000
000000
ENDCHAR
STARTCHAR a5e2
ENCODING 42466 
SWIDTH 96 0
DWIDTH 24 0
BBX 24 24 0 -2
BITMAP 
000000
000000
000f80
0018c0
003060
006060
006030
00c060
00c060
018ec0
018f80
018180
0300c0
0300c0
030060
060060
0600c0
0700c0
0fc180
0c7f00
0c0000
180000
180000
180000
ENDCHAR
STARTCHAR a5e3
ENCODING 42467 
SWIDTH 96 0
DWIDTH 24 0
BBX 24 24 0 -2
BITMAP 
000000
000000
000000
000000
000000
000000
000000
000000
000000
01e180
03f180
061300
041b00
040e00
000e00
000c00
000c00
001800
001800
003000
003000
006000
000000
000000
ENDCHAR
STARTCHAR a5e4
ENCODING 42468 
SWIDTH 96 0
DWIDTH 24 0
BBX 24 24 0 -2
BITMAP 
000000
000000
003e00
006180
0060c0
003060
001860
000e00
000300
003f00
006180
00c180
0180c0
0180c0
0300c0
0300c0
0300c0
030180
030180
018300
018600
00fc00
000000
000000
ENDCHAR
STARTCHAR a5e5
ENCODING 42469 
SWIDTH 96 0
DWIDTH 24 0
BBX 24 24 0 -2
BITMAP 
000000
000000
000000
000000
000000
000000
000000
000000
000000
007f00
00c1c0
018040
018000
018000
00fe00
019c00
030000
030000
030040
01c0c0
00ff80
003e00
000000
000000
ENDCHAR
STARTCHAR a5e6
ENCODING 42470 
SWIDTH 96 0
DWIDTH 24 0
BBX 24 24 0 -2
BITMAP 
000000
000000
003000
00c000
018300
018700
00ee00
003800
002000
004000
00c000
008000
018000
018000
030000
030000
030000
01f000
00fc00
000e00
000300
018300
00fe00
000000
ENDCHAR
STARTCHAR a5e7
ENCODING 42471 
SWIDTH 96 0
DWIDTH 24 0
BBX 24 24 0 -2
BITMAP 
000000
000000
000000
000000
000000
000000
000000
000000
000000
038f00
04b980
00e0c0
00c0c0
00c0c0
0180c0
018180
018180
018180
030180
030180
030300
030300
000300
000300
ENDCHAR
STARTCHAR a5e8
ENCODING 42472 
SWIDTH 96 0
DWIDTH 24 0
BBX 24 24 0 -2
BITMAP 
000000
000000
001e00
007380
00c180
0181c0
0180c0
0300c0
0300c0
0300c0
0300c0
07ffc0
0601c0
060180
060180
060180
060180
060300
070300
030600
039c00
00f000
000000
000000
ENDCHAR
STARTCHAR a5e9
ENCODING 42473 
SWIDTH 96 0
DWIDTH 24 0
BBX 24 24 0 -2
BITMAP 
000000
000000
000000
000000
000000
000000
000000
000000
000000
001800
003800
003000
006000
006000
00c000
00c000
00c000
018000
018200
018200
01fc00
00f000
000000
000000
ENDCHAR
STARTCHAR a5ea
ENCODING 42474 
SWIDTH 96 0
DWIDTH 24 0
BBX 24 24 0 -2
BITMAP 
000000
000000
000000
000000
000000
000000
000000
000000
000000
03c180
04c380
00c600
018c00
019800
01b800
036800
034c00
03cc00
038c20
070c20
0607c0
060380
000000
000000
ENDCHAR
STARTCHAR a5eb
ENCODING 42475 
SWIDTH 96 0
DWIDTH 24 0
BBX 24 24 0 -2
BITMAP 
000000
000000
006000
007000
001800
001800
000800
000c00
000400
000400
000c00
001400
003400
002600
006600
004200
00c300
00c300
018180
018180
0380f0
030070
000000
000000
ENDCHAR
STARTCHAR a5ec
ENCODING 42476 
SWIDTH 96 0
DWIDTH 24 0
BBX 24 24 0 -2
BITMAP 
000000
000000
000000
000000
000000
000000
000000
000000
000000
004040
00c0c0
00c0c0
00c0c0
01c1c0
018180
018180
018300
030300
030300
038320
02cfa0
0678c0
060000
060000
ENDCHAR
STARTCHAR a5ed
ENCODING 42477 
SWIDTH 96 0
DWIDTH 24 0
BBX 24 24 0 -2
BITMAP 
000000
000000
000000
000000
000000
000000
000000
000000
000000
018040
01c040
00c040
00e0c0
006080
006080
006180
004100
004300
00c600
009c00
00f800
01e000
000000
000000
ENDCHAR
STARTCHAR a5ee
ENCODING 42478 
SWIDTH 96 0
DWIDTH 24 0
BBX 24 24 0 -2
BITMAP 
000000
000e00
001000
003000
003fc0
006380
00c000
00c000
00c000
007000
003fc0
004380
00c000
018000
018000
030000
038000
01f000
007e00
000f00
000180
006180
007f00
000000
ENDCHAR
STARTCHAR a5ef
ENCODING 42479 
SWIDTH 96 0
DWIDTH 24 0
BBX 24 24 0 -2
BITMAP 
000000
000000
000000
000000
000000
000000
000000
000000
000000
003f00
006180
00c180
0180c0
0180c0
0300c0
0300c0
0300c0
030180
030180
018300
018600
00fc00
000000
000000
ENDCHAR
STARTCHAR a5f0
ENCODING 42480 
SWIDTH 96 0
DWIDTH 24 0
BBX 24 24 0 -2
BITMAP 
000000
000000
000000
000000
000000
000000
000000
000000
000020
01ffc0
03ff80
044300
004300
00c300
008600
008600
018600
018c00
038c00
030c40
070f80
060700
000000
000000
ENDCHAR
STARTCHAR a5f1
ENCODING 42481 
SWIDTH 96 0
DWIDTH 24 0
BBX 24 24 0 -2
BITMAP 
000000
000000
000000
000000
000000
000000
000000
000000
000000
003f00
006180
00c1c0
00c0c0
0180c0
0180c0
0180c0
0380c0
038180
03c180
034300
067e00
060000
060000
060000
ENDCHAR
STARTCHAR a5f2
ENCODING 42482 
SWIDTH 96 0
DWIDTH 24 0
BBX 24 24 0 -2
BITMAP 
000000
000000
000000
000000
000000
000000
000000
000000
000008
007ef8
00c370
018100
030180
030180
060180
060180
060180
060300
060300
030600
030c00
01f800
000000
000000
ENDCHAR
STARTCHAR a5f3
ENCODING 42483 
SWIDTH 96 0
DWIDTH 24 0
BBX 24 24 0 -2
BITMAP 
000000
000000
000000
000000
000000
000000
000000
000000
000080
01ff00
03fe00
043000
007000
006000
00e000
00c000
00c000
018000
018200
018200
01fc00
00f000
000000
000000
ENDCHAR
STARTCHAR a5f4
ENCODING 42484 
SWIDTH 96 0
DWIDTH 24 0
BBX 24 24 0 -2
BITMAP 
000000
000000
000000
000000
000000
000000
000000
000000
000000
018180
01c080
00c0c0
00c0c0
00c0c0
0080c0
0181c0
010180
010180
010100
018300
00c600
007c00
000000
000000
ENDCHAR
STARTCHAR a5f5
ENCODING 42485 
SWIDTH 96 0
DWIDTH 24 0
BBX 24 24 0 -2
BITMAP 
000000
000000
000300
000300
000600
000600
000600
000c00
003f00
00ed80
018cc0
030cc0
030860
061860
061860
0618c0
0310c0
033180
01b700
00fc00
006000
006000
00c000
00c000
ENDCHAR
STARTCHAR a5f6
ENCODING 42486 
SWIDTH 96 0
DWIDTH 24 0
BBX 24 24 0 -2
BITMAP 
000000
000000
000000
000000
000000
000000
000000
000000
000000
00c060
01e0e0
0220c0
003180
001100
001900
000a00
000c00
001400
006400
00c400
018600
030610
0703e0
0601c0
ENDCHAR
STARTCHAR a5f7
ENCODING 42487 
SWIDTH 96 0
DWIDTH 24 0
BBX 24 24 0 -2
BITMAP 
000000
000000
000300
000300
000700
000600
000600
000600
000400
00cc40
018ce0
030c60
030860
061860
061860
0618c0
0610c0
033180
033180
01b300
00fe00
006000
00e000
00c000
ENDCHAR
STARTCHAR a5f8
ENCODING 42488 
SWIDTH 96 0
DWIDTH 24 0
BBX 24 24 0 -2
BITMAP 
000000
000000
000000
000000
000000
000000
000000
000000
000000
00e020
018010
030010
060418
060c18
0c0c18
0c1c18
0c1818
0c1830
060830
061860
0334c0
01e700
000000
000000
ENDCHAR
STARTCHAR a6a1
ENCODING 42657 
SWIDTH 96 0
DWIDTH 24 0
BBX 24 24 0 -2
BITMAP 
000000
000000
000000
000000
000000
000000
000000
000000
000000
000000
000000
ffffff
000000
000000
000000
000000
000000
000000
000000
000000
000000
000000
000000
000000
ENDCHAR
STARTCHAR a6a2
ENCODING 42658 
SWIDTH 96 0
DWIDTH 24 0
BBX 24 24 0 -2
BITMAP 
001000
001000
001000
001000
001000
001000
001000
001000
001000
001000
001000
001000
001000
001000
001000
001000
001000
001000
001000
001000
001000
001000
001000
001000
ENDCHAR
STARTCHAR a6a3
ENCODING 42659 
SWIDTH 96 0
DWIDTH 24 0
BBX 24 24 0 -2
BITMAP 
000000
000000
000000
000000
000000
000000
000000
000000
000000
000000
000000
001fff
001000
001000
001000
001000
001000
001000
001000
001000
001000
001000
001000
001000
ENDCHAR
STARTCHAR a6a4
ENCODING 42660 
SWIDTH 96 0
DWIDTH 24 0
BBX 24 24 0 -2
BITMAP 
000000
000000
000000
000000
000000
000000
000000
000000
000000
000000
000000
fff000
001000
001000
001000
001000
001000
001000
001000
001000
001000
001000
001000
001000
ENDCHAR
STARTCHAR a6a5
ENCODING 42661 
SWIDTH 96 0
DWIDTH 24 0
BBX 24 24 0 -2
BITMAP 
001000
001000
001000
001000
001000
001000
001000
001000
001000
001000
001000
fff000
000000
000000
000000
000000
000000
000000
000000
000000
000000
000000
000000
000000
ENDCHAR
STARTCHAR a6a6
ENCODING 42662 
SWIDTH 96 0
DWIDTH 24 0
BBX 24 24 0 -2
BITMAP 
001000
001000
001000
001000
001000
001000
001000
001000
001000
001000
001000
001fff
000000
000000
000000
000000
000000
000000
000000
000000
000000
000000
000000
000000
ENDCHAR
STARTCHAR a6a7
ENCODING 42663 
SWIDTH 96 0
DWIDTH 24 0
BBX 24 24 0 -2
BITMAP 
001000
001000
001000
001000
001000
001000
001000
001000
001000
001000
001000
001fff
001000
001000
001000
001000
001000
001000
001000
001000
001000
001000
001000
001000
ENDCHAR
STARTCHAR a6a8
ENCODING 42664 
SWIDTH 96 0
DWIDTH 24 0
BBX 24 24 0 -2
BITMAP 
000000
000000
000000
000000
000000
000000
000000
000000
000000
000000
000000
ffffff
001000
001000
001000
001000
001000
001000
001000
001000
001000
001000
001000
001000
ENDCHAR
STARTCHAR a6a9
ENCODING 42665 
SWIDTH 96 0
DWIDTH 24 0
BBX 24 24 0 -2
BITMAP 
001000
001000
001000
001000
001000
001000
001000
001000
001000
001000
001000
fff000
001000
001000
001000
001000
001000
001000
001000
001000
001000
001000
001000
001000
ENDCHAR
STARTCHAR a6aa
ENCODING 42666 
SWIDTH 96 0
DWIDTH 24 0
BBX 24 24 0 -2
BITMAP 
001000
001000
001000
001000
001000
001000
001000
001000
001000
001000
001000
ffffff
000000
000000
000000
000000
000000
000000
000000
000000
000000
000000
000000
000000
ENDCHAR
STARTCHAR a6ab
ENCODING 42667 
SWIDTH 96 0
DWIDTH 24 0
BBX 24 24 0 -2
BITMAP 
001000
001000
001000
001000
001000
001000
001000
001000
001000
001000
001000
ffffff
001000
001000
001000
001000
001000
001000
001000
001000
001000
001000
001000
001000
ENDCHAR
STARTCHAR a6ac
ENCODING 42668 
SWIDTH 96 0
DWIDTH 24 0
BBX 24 24 0 -2
BITMAP 
000000
000000
000000
000000
000000
000000
000000
000000
000000
000000
000000
ffffff
ffffff
000000
000000
000000
000000
000000
000000
000000
000000
000000
000000
000000
ENDCHAR
STARTCHAR a6ad
ENCODING 42669 
SWIDTH 96 0
DWIDTH 24 0
BBX 24 24 0 -2
BITMAP 
001800
001800
001800
001800
001800
001800
001800
001800
001800
001800
001800
001800
001800
001800
001800
001800
001800
001800
001800
001800
001800
001800
001800
001800
ENDCHAR
STARTCHAR a6ae
ENCODING 42670 
SWIDTH 96 0
DWIDTH 24 0
BBX 24 24 0 -2
BITMAP 
000000
000000
000000
000000
000000
000000
000000
000000
000000
000000
000000
001fff
001fff
001800
001800
001800
001800
001800
001800
001800
001800
001800
001800
001800
ENDCHAR
STARTCHAR a6af
ENCODING 42671 
SWIDTH 96 0
DWIDTH 24 0
BBX 24 24 0 -2
BITMAP 
000000
000000
000000
000000
000000
000000
000000
000000
000000
000000
000000
fff800
fff800
001800
001800
001800
001800
001800
001800
001800
001800
001800
001800
001800
ENDCHAR
STARTCHAR a6b0
ENCODING 42672 
SWIDTH 96 0
DWIDTH 24 0
BBX 24 24 0 -2
BITMAP 
001800
001800
001800
001800
001800
001800
001800
001800
001800
001800
001800
fff800
fff800
000000
000000
000000
000000
000000
000000
000000
000000
000000
000000
000000
ENDCHAR
STARTCHAR a6b1
ENCODING 42673 
SWIDTH 96 0
DWIDTH 24 0
BBX 24 24 0 -2
BITMAP 
001800
001800
001800
001800
001800
001800
001800
001800
001800
001800
001800
001fff
001fff
000000
000000
000000
000000
000000
000000
000000
000000
000000
000000
000000
ENDCHAR
STARTCHAR a6b2
ENCODING 42674 
SWIDTH 96 0
DWIDTH 24 0
BBX 24 24 0 -2
BITMAP 
001800
001800
001800
001800
001800
001800
001800
001800
001800
001800
001800
001fff
001fff
001800
001800
001800
001800
001800
001800
001800
001800
001800
001800
001800
ENDCHAR
STARTCHAR a6b3
ENCODING 42675 
SWIDTH 96 0
DWIDTH 24 0
BBX 24 24 0 -2
BITMAP 
000000
000000
000000
000000
000000
000000
000000
000000
000000
000000
000000
ffffff
ffffff
001800
001800
001800
001800
001800
001800
001800
001800
001800
001800
001800
ENDCHAR
STARTCHAR a6b4
ENCODING 42676 
SWIDTH 96 0
DWIDTH 24 0
BBX 24 24 0 -2
BITMAP 
001800
001800
001800
001800
001800
001800
001800
001800
001800
001800
001800
fff800
fff800
001800
001800
001800
001800
001800
001800
001800
001800
001800
001800
001800
ENDCHAR
STARTCHAR a6b5
ENCODING 42677 
SWIDTH 96 0
DWIDTH 24 0
BBX 24 24 0 -2
BITMAP 
001800
001800
001800
001800
001800
001800
001800
001800
001800
001800
001800
ffffff
ffffff
000000
000000
000000
000000
000000
000000
000000
000000
000000
000000
000000
ENDCHAR
STARTCHAR a6b6
ENCODING 42678 
SWIDTH 96 0
DWIDTH 24 0
BBX 24 24 0 -2
BITMAP 
001800
001800
001800
001800
001800
001800
001800
001800
001800
001800
001800
ffffff
ffffff
001800
001800
001800
001800
001800
001800
001800
001800
001800
001800
001800
ENDCHAR
STARTCHAR a6b7
ENCODING 42679 
SWIDTH 96 0
DWIDTH 24 0
BBX 24 24 0 -2
BITMAP 
001800
001800
001800
001800
001800
001800
001800
001800
001800
001800
001800
001fff
001800
001800
001800
001800
001800
001800
001800
001800
001800
001800
001800
001800
ENDCHAR
STARTCHAR a6b8
ENCODING 42680 
SWIDTH 96 0
DWIDTH 24 0
BBX 24 24 0 -2
BITMAP 
000000
000000
000000
000000
000000
000000
000000
000000
000000
000000
000000
ffffff
ffffff
001000
001000
001000
001000
001000
001000
001000
001000
001000
001000
001000
ENDCHAR
STARTCHAR a6b9
ENCODING 42681 
SWIDTH 96 0
DWIDTH 24 0
BBX 24 24 0 -2
BITMAP 
001800
001800
001800
001800
001800
001800
001800
001800
001800
001800
001800
fff800
001800
001800
001800
001800
001800
001800
001800
001800
001800
001800
001800
001800
ENDCHAR
STARTCHAR a6ba
ENCODING 42682 
SWIDTH 96 0
DWIDTH 24 0
BBX 24 24 0 -2
BITMAP 
001000
001000
001000
001000
001000
001000
001000
001000
001000
001000
001000
ffffff
ffffff
000000
000000
000000
000000
000000
000000
000000
000000
000000
000000
000000
ENDCHAR
STARTCHAR a6bb
ENCODING 42683 
SWIDTH 96 0
DWIDTH 24 0
BBX 24 24 0 -2
BITMAP 
001000
001000
001000
001000
001000
001000
001000
001000
001000
001000
001000
ffffff
ffffff
001000
001000
001000
001000
001000
001000
001000
001000
001000
001000
001000
ENDCHAR
STARTCHAR a6bc
ENCODING 42684 
SWIDTH 96 0
DWIDTH 24 0
BBX 24 24 0 -2
BITMAP 
001000
001000
001000
001000
001000
001000
001000
001000
001000
001000
001000
001fff
001fff
001000
001000
001000
001000
001000
001000
001000
001000
001000
001000
001000
ENDCHAR
STARTCHAR a6bd
ENCODING 42685 
SWIDTH 96 0
DWIDTH 24 0
BBX 24 24 0 -2
BITMAP 
000000
000000
000000
000000
000000
000000
000000
000000
000000
000000
000000
ffffff
001800
001800
001800
001800
001800
001800
001800
001800
001800
001800
001800
001800
ENDCHAR
STARTCHAR a6be
ENCODING 42686 
SWIDTH 96 0
DWIDTH 24 0
BBX 24 24 0 -2
BITMAP 
001000
001000
001000
001000
001000
001000
001000
001000
001000
001000
001000
fff000
fff000
001000
001000
001000
001000
001000
001000
001000
001000
001000
001000
001000
ENDCHAR
STARTCHAR a6bf
ENCODING 42687 
SWIDTH 96 0
DWIDTH 24 0
BBX 24 24 0 -2
BITMAP 
001800
001800
001800
001800
001800
001800
001800
001800
001800
001800
001800
ffffff
000000
000000
000000
000000
000000
000000
000000
000000
000000
000000
000000
000000
ENDCHAR
STARTCHAR a6c0
ENCODING 42688 
SWIDTH 96 0
DWIDTH 24 0
BBX 24 24 0 -2
BITMAP 
001800
001800
001800
001800
001800
001800
001800
001800
001800
001800
001800
ffffff
001800
001800
001800
001800
001800
001800
001800
001800
001800
001800
001800
001800
ENDCHAR
STARTCHAR a6c1
ENCODING 42689 
SWIDTH 96 0
DWIDTH 24 0
BBX 24 24 0 -2
BITMAP 
000000
000000
000000
000000
000000
000000
000000
000000
000000
000000
000000
fff800
001800
001800
001800
001800
001800
001800
001800
001800
001800
001800
001800
001800
ENDCHAR
STARTCHAR a6c2
ENCODING 42690 
SWIDTH 96 0
DWIDTH 24 0
BBX 24 24 0 -2
BITMAP 
000000
000000
000000
000000
000000
000000
000000
000000
000000
000000
000000
fff000
fff000
001000
001000
001000
001000
001000
001000
001000
001000
001000
001000
001000
ENDCHAR
STARTCHAR a6c3
ENCODING 42691 
SWIDTH 96 0
DWIDTH 24 0
BBX 24 24 0 -2
BITMAP 
001800
001800
001800
001800
001800
001800
001800
001800
001800
001800
001800
fff800
000000
000000
000000
000000
000000
000000
000000
000000
000000
000000
000000
000000
ENDCHAR
STARTCHAR a6c4
ENCODING 42692 
SWIDTH 96 0
DWIDTH 24 0
BBX 24 24 0 -2
BITMAP 
001000
001000
001000
001000
001000
001000
001000
001000
001000
001000
001000
fff000
fff000
000000
000000
000000
000000
000000
000000
000000
000000
000000
000000
000000
ENDCHAR
STARTCHAR a6c5
ENCODING 42693 
SWIDTH 96 0
DWIDTH 24 0
BBX 24 24 0 -2
BITMAP 
001800
001800
001800
001800
001800
001800
001800
001800
001800
001800
001800
001fff
000000
000000
000000
000000
000000
000000
000000
000000
000000
000000
000000
000000
ENDCHAR
STARTCHAR a6c6
ENCODING 42694 
SWIDTH 96 0
DWIDTH 24 0
BBX 24 24 0 -2
BITMAP 
001000
001000
001000
001000
001000
001000
001000
001000
001000
001000
001000
001fff
001fff
000000
000000
000000
000000
000000
000000
000000
000000
000000
000000
000000
ENDCHAR
STARTCHAR a6c7
ENCODING 42695 
SWIDTH 96 0
DWIDTH 24 0
BBX 24 24 0 -2
BITMAP 
000000
000000
000000
000000
000000
000000
000000
000000
000000
000000
000000
001fff
001800
001800
001800
001800
001800
001800
001800
001800
001800
001800
001800
001800
ENDCHAR
STARTCHAR a6c8
ENCODING 42696 
SWIDTH 96 0
DWIDTH 24 0
BBX 24 24 0 -2
BITMAP 
000000
000000
000000
000000
000000
000000
000000
000000
000000
000000
000000
001fff
001fff
001000
001000
001000
001000
001000
001000
001000
001000
001000
001000
001000
ENDCHAR
STARTCHAR a6c9
ENCODING 42697 
SWIDTH 96 0
DWIDTH 24 0
BBX 24 24 0 -2
BITMAP 
001800
001800
001800
001800
001800
001800
001800
001800
001800
001800
001800
001fff
001000
001000
001000
001000
001000
001000
001000
001000
001000
001000
001000
001000
ENDCHAR
STARTCHAR a6ca
ENCODING 42698 
SWIDTH 96 0
DWIDTH 24 0
BBX 24 24 0 -2
BITMAP 
001000
001000
001000
001000
001000
001000
001000
001000
001000
001000
001000
001fff
001800
001800
001800
001800
001800
001800
001800
001800
001800
001800
001800
001800
ENDCHAR
STARTCHAR a6cb
ENCODING 42699 
SWIDTH 96 0
DWIDTH 24 0
BBX 24 24 0 -2
BITMAP 
001800
001800
001800
001800
001800
001800
001800
001800
001800
001800
001800
001fff
001fff
001000
001000
001000
001000
001000
001000
001000
001000
001000
001000
001000
ENDCHAR
STARTCHAR a6cc
ENCODING 42700 
SWIDTH 96 0
DWIDTH 24 0
BBX 24 24 0 -2
BITMAP 
001000
001000
001000
001000
001000
001000
001000
001000
001000
001000
001000
001fff
001fff
001800
001800
001800
001800
001800
001800
001800
001800
001800
001800
001800
ENDCHAR
STARTCHAR a6cd
ENCODING 42701 
SWIDTH 96 0
DWIDTH 24 0
BBX 24 24 0 -2
BITMAP 
001800
001800
001800
001800
001800
001800
001800
001800
001800
001800
001800
fff800
001000
001000
001000
001000
001000
001000
001000
001000
001000
001000
001000
001000
ENDCHAR
STARTCHAR a6ce
ENCODING 42702 
SWIDTH 96 0
DWIDTH 24 0
BBX 24 24 0 -2
BITMAP 
001000
001000
001000
001000
001000
001000
001000
001000
001000
001000
001000
fff800
001800
001800
001800
001800
001800
001800
001800
001800
001800
001800
001800
001800
ENDCHAR
STARTCHAR a6cf
ENCODING 42703 
SWIDTH 96 0
DWIDTH 24 0
BBX 24 24 0 -2
BITMAP 
001800
001800
001800
001800
001800
001800
001800
001800
001800
001800
001800
fff800
fff800
001000
001000
001000
001000
001000
001000
001000
001000
001000
001000
001000
ENDCHAR
STARTCHAR a6d0
ENCODING 42704 
SWIDTH 96 0
DWIDTH 24 0
BBX 24 24 0 -2
BITMAP 
001000
001000
001000
001000
001000
001000
001000
001000
001000
001000
001000
fff800
fff800
001800
001800
001800
001800
001800
001800
001800
001800
001800
001800
001800
ENDCHAR
STARTCHAR a6d1
ENCODING 42705 
SWIDTH 96 0
DWIDTH 24 0
BBX 24 24 0 -2
BITMAP 
000000
000000
000000
000000
000000
000000
000000
000000
000000
000000
000000
ffffff
fff000
001000
001000
001000
001000
001000
001000
001000
001000
001000
001000
001000
ENDCHAR
STARTCHAR a6d2
ENCODING 42706 
SWIDTH 96 0
DWIDTH 24 0
BBX 24 24 0 -2
BITMAP 
000000
000000
000000
000000
000000
000000
000000
000000
000000
000000
000000
ffffff
001fff
001000
001000
001000
001000
001000
001000
001000
001000
001000
001000
001000
ENDCHAR
STARTCHAR a6d3
ENCODING 42707 
SWIDTH 96 0
DWIDTH 24 0
BBX 24 24 0 -2
BITMAP 
000000
000000
000000
000000
000000
000000
000000
000000
000000
000000
000000
ffffff
fff800
001800
001800
001800
001800
001800
001800
001800
001800
001800
001800
001800
ENDCHAR
STARTCHAR a6d4
ENCODING 42708 
SWIDTH 96 0
DWIDTH 24 0
BBX 24 24 0 -2
BITMAP 
000000
000000
000000
000000
000000
000000
000000
000000
000000
000000
000000
ffffff
001fff
001800
001800
001800
001800
001800
001800
001800
001800
001800
001800
001800
ENDCHAR
STARTCHAR a6d5
ENCODING 42709 
SWIDTH 96 0
DWIDTH 24 0
BBX 24 24 0 -2
BITMAP 
001000
001000
001000
001000
001000
001000
001000
001000
001000
001000
001000
fff000
ffffff
000000
000000
000000
000000
000000
000000
000000
000000
000000
000000
000000
ENDCHAR
STARTCHAR a6d6
ENCODING 42710 
SWIDTH 96 0
DWIDTH 24 0
BBX 24 24 0 -2
BITMAP 
001000
001000
001000
001000
001000
001000
001000
001000
001000
001000
001000
001fff
ffffff
000000
000000
000000
000000
000000
000000
000000
000000
000000
000000
000000
ENDCHAR
STARTCHAR a6d7
ENCODING 42711 
SWIDTH 96 0
DWIDTH 24 0
BBX 24 24 0 -2
BITMAP 
001800
001800
001800
001800
001800
001800
001800
001800
001800
001800
001800
fff800
ffffff
000000
000000
000000
000000
000000
000000
000000
000000
000000
000000
000000
ENDCHAR
STARTCHAR a6d8
ENCODING 42712 
SWIDTH 96 0
DWIDTH 24 0
BBX 24 24 0 -2
BITMAP 
001800
001800
001800
001800
001800
001800
001800
001800
001800
001800
001fff
ffffff
000000
000000
000000
000000
000000
000000
000000
000000
000000
000000
000000
000000
ENDCHAR
STARTCHAR a6d9
ENCODING 42713 
SWIDTH 96 0
DWIDTH 24 0
BBX 24 24 0 -2
BITMAP 
001000
001000
001000
001000
001000
001000
001000
001000
001000
001000
001000
ffffff
fff000
001000
001000
001000
001000
001000
001000
001000
001000
001000
001000
001000
ENDCHAR
STARTCHAR a6da
ENCODING 42714 
SWIDTH 96 0
DWIDTH 24 0
BBX 24 24 0 -2
BITMAP 
001000
001000
001000
001000
001000
001000
001000
001000
001000
001000
001000
ffffff
001fff
001000
001000
001000
001000
001000
001000
001000
001000
001000
001000
001000
ENDCHAR
STARTCHAR a6db
ENCODING 42715 
SWIDTH 96 0
DWIDTH 24 0
BBX 24 24 0 -2
BITMAP 
001800
001800
001800
001800
001800
001800
001800
001800
001800
001800
001800
ffffff
001000
001000
001000
001000
001000
001000
001000
001000
001000
001000
001000
001000
ENDCHAR
STARTCHAR a6dc
ENCODING 42716 
SWIDTH 96 0
DWIDTH 24 0
BBX 24 24 0 -2
BITMAP 
001000
001000
001000
001000
001000
001000
001000
001000
001000
001000
001000
ffffff
001800
001800
001800
001800
001800
001800
001800
001800
001800
001800
001800
001800
ENDCHAR
STARTCHAR a6dd
ENCODING 42717 
SWIDTH 96 0
DWIDTH 24 0
BBX 24 24 0 -2
BITMAP 
001800
001800
001800
001800
001800
001800
001800
001800
001800
001800
001800
ffffff
fff800
001000
001000
001000
001000
001000
001000
001000
001000
001000
001000
001000
ENDCHAR
STARTCHAR a6de
ENCODING 42718 
SWIDTH 96 0
DWIDTH 24 0
BBX 24 24 0 -2
BITMAP 
001800
001800
001800
001800
001800
001800
001800
001800
001800
001800
001800
ffffff
001fff
001000
001000
001000
001000
001000
001000
001000
001000
001000
001000
001000
ENDCHAR
STARTCHAR a6df
ENCODING 42719 
SWIDTH 96 0
DWIDTH 24 0
BBX 24 24 0 -2
BITMAP 
001000
001000
001000
001000
001000
001000
001000
001000
001000
001000
001000
ffffff
fff800
001800
001800
001800
001800
001800
001800
001800
001800
001800
001800
001800
ENDCHAR
STARTCHAR a6e0
ENCODING 42720 
SWIDTH 96 0
DWIDTH 24 0
BBX 24 24 0 -2
BITMAP 
001000
001000
001000
001000
001000
001000
001000
001000
001000
001000
001000
ffffff
001fff
001800
001800
001800
001800
001800
001800
001800
001800
001800
001800
001800
ENDCHAR
STARTCHAR a6e1
ENCODING 42721 
SWIDTH 96 0
DWIDTH 24 0
BBX 24 24 0 -2
BITMAP 
001800
001800
001800
001800
001800
001800
001800
001800
001800
001800
001800
ffffff
ffffff
001000
001000
001000
001000
001000
001000
001000
001000
001000
001000
001000
ENDCHAR
STARTCHAR a6e2
ENCODING 42722 
SWIDTH 96 0
DWIDTH 24 0
BBX 24 24 0 -2
BITMAP 
001000
001000
001000
001000
001000
001000
001000
001000
001000
001000
001000
ffffff
ffffff
001800
001800
001800
001800
001800
001800
001800
001800
001800
001800
001800
ENDCHAR
STARTCHAR a6e3
ENCODING 42723 
SWIDTH 96 0
DWIDTH 24 0
BBX 24 24 0 -2
BITMAP 
001800
001800
001800
001800
001800
001800
001800
001800
001800
001800
001800
ffffff
fff800
001800
001800
001800
001800
001800
001800
001800
001800
001800
001800
001800
ENDCHAR
STARTCHAR a6e4
ENCODING 42724 
SWIDTH 96 0
DWIDTH 24 0
BBX 24 24 0 -2
BITMAP 
001800
001800
001800
001800
001800
001800
001800
001800
001800
001800
001800
ffffff
001fff
001800
001800
001800
001800
001800
001800
001800
001800
001800
001800
001800
ENDCHAR
STARTCHAR a7a1
ENCODING 42913 
SWIDTH 96 0
DWIDTH 24 0
BBX 24 24 0 -2
BITMAP 
000000
000070
0000d8
000198
000198
000198
000318
000318
20c318
30c318
30c318
30c330
30c330
30c330
30c320
30c360
30c1c2
39e186
7f234c
603678
601c30
600000
600000
600000
ENDCHAR
STARTCHAR a7a5
ENCODING 42917 
SWIDTH 96 0
DWIDTH 24 0
BBX 24 24 0 -2
BITMAP 
000000
000070
0000d8
000198
600198
600198
600318
600318
600318
600318
60c318
618330
630330
660330
6c0320
780360
7801c0
6c0182
660386
6302cc
618678
60cc30
607000
000000
ENDCHAR
STARTCHAR a7a7
ENCODING 42919 
SWIDTH 96 0
DWIDTH 24 0
BBX 24 24 0 -2
BITMAP 
00000e
000011
000011
000001
000006
000001
000011
000011
00000e
000000
9b09b0
64c64c
64c64c
64c64c
64c64c
64c64c
64c64c
64c64c
64c64c
64c64c
64c64c
64c64c
64c64c
eeeeee
ENDCHAR
STARTCHAR a7a8
ENCODING 42920 
SWIDTH 96 0
DWIDTH 24 0
BBX 24 24 0 -2
BITMAP 
000000
00000e
000011
000011
000001
000006
000001
000011
000011
00000e
0e0000
318e70
61b188
c0318c
c0318c
c0318c
c0318c
c0318c
c0318c
c0318c
c0318c
60318c
31b18c
0f3bde
ENDCHAR
STARTCHAR a7a9
ENCODING 42921 
SWIDTH 96 0
DWIDTH 24 0
BBX 24 24 0 -2
BITMAP 
000000
00000e
000011
000011
000001
000006
000001
000011
000011
00000e
00e380
0df7c0
061860
061860
061860
061860
061860
061860
061860
061860
061860
061860
061860
0f3cf0
ENDCHAR
STARTCHAR a7aa
ENCODING 42922 
SWIDTH 96 0
DWIDTH 24 0
BBX 24 24 0 -2
BITMAP 
000000
00000e
000011
000011
600001
600006
600001
600011
600011
60000e
600000
60ae78
61b18c
63318c
66318c
6c318c
78318c
70318c
78318c
6c318c
66318c
63318c
61b18c
60bbde
ENDCHAR
STARTCHAR a7ab
ENCODING 42923 
SWIDTH 96 0
DWIDTH 24 0
BBX 24 24 0 -2
BITMAP 
000000
03c000
062000
043000
0c3000
0c3000
0c0000
0c0000
0c0000
0c0000
7f8210
0c2738
0c18c4
0c18c6
0c18c6
0c18c6
0c18c6
0c18c6
0c18c6
0c18c6
0c18c6
0c18c6
0c18c6
1e3def
ENDCHAR
STARTCHAR a7ac
ENCODING 42924 
SWIDTH 96 0
DWIDTH 24 0
BBX 24 24 0 -2
BITMAP 
000000
000000
000000
000000
000000
000000
000000
000000
080210
9c2738
6218c4
6318c6
6318c6
6318c6
6318c6
6318c6
6318c6
6318c6
6318c6
6318c6
6318c6
6318c6
f7bdef
000000
ENDCHAR
STARTCHAR a7ad
ENCODING 42925 
SWIDTH 96 0
DWIDTH 24 0
BBX 24 24 0 -2
BITMAP 
000000
000000
000000
000000
000000
000000
000210
0027b8
4198c4
6198c6
6198c6
6198c6
6198c6
6198c6
6198c6
6198c6
6198c6
73d8c6
fe78c6
c018c6
c03def
c00000
c00000
c00000
ENDCHAR
STARTCHAR a7b1
ENCODING 42929 
SWIDTH 96 0
DWIDTH 24 0
BBX 24 24 0 -2
BITMAP 
000000
00001c
000022
000022
000002
000004
000008
000010
00003f
000000
9b09b0
64c64c
64c64c
64c64c
64c64c
64c64c
64c64c
64c64c
64c64c
64c64c
64c64c
64c64c
64c64c
eeeeee
ENDCHAR
STARTCHAR a7b2
ENCODING 42930 
SWIDTH 96 0
DWIDTH 24 0
BBX 24 24 0 -2
BITMAP 
000000
00001c
000022
000022
000002
000004
000008
000010
00003f
000000
0f0430
31ae78
61b18c
c0318c
c0318c
c0318c
c0318c
c0318c
c0318c
c0318c
c0318c
60318c
31b18c
0f33de
ENDCHAR
STARTCHAR a7b3
ENCODING 42931 
SWIDTH 96 0
DWIDTH 24 0
BBX 24 24 0 -2
BITMAP 
000000
0000e0
000110
000110
000010
000020
000040
000080
0001f8
018c00
33de00
0c6300
0c6300
0c6300
0c6300
0c6300
0c6300
0c6300
0c6300
0c6300
0c6300
0c6300
0c6300
1ef780
ENDCHAR
STARTCHAR a7b4
ENCODING 42932 
SWIDTH 96 0
DWIDTH 24 0
BBX 24 24 0 -2
BITMAP 
000000
00001c
000022
000022
600002
600004
600008
600010
60003f
600000
60ae78
61b18c
63318c
66318c
6c318c
78318c
70318c
78318c
6c318c
66318c
63318c
61b18c
60bbde
000000
ENDCHAR
STARTCHAR a7b5
ENCODING 42933 
SWIDTH 96 0
DWIDTH 24 0
BBX 24 24 0 -2
BITMAP 
000000
700000
300000
300000
300000
300000
300000
300000
300000
300000
33c0e0
346118
38330c
30330c
30300c
30300c
3030fc
30318c
30330c
30360c
30360c
30360c
30321c
fcfde7
ENDCHAR
STARTCHAR a7b6
ENCODING 42934 
SWIDTH 96 0
DWIDTH 24 0
BBX 24 24 0 -2
BITMAP 
000000
000000
000000
000000
000000
0001f1
00031a
00060e
41860c
61860c
618318
6181f0
618200
6183e0
61863c
618c0e
618c07
73d803
fe5803
c00c03
c00606
c003f8
c00000
c00000
ENDCHAR
STARTCHAR a7b9
ENCODING 42937 
SWIDTH 96 0
DWIDTH 24 0
BBX 24 24 0 -2
BITMAP 
000000
000000
000000
000300
300300
300300
300300
300300
300300
301ff8
302300
306300
30c300
318300
330300
360300
3c0300
3c0300
360300
330300
318304
30c30c
306198
3030f0
ENDCHAR
STARTCHAR a7ba
ENCODING 42938 
SWIDTH 96 0
DWIDTH 24 0
BBX 24 24 0 -2
BITMAP 
000000
00000e
000006
000006
000006
000006
000006
000006
000006
000006
0e0e06
319186
61b0c6
c030c6
c000c6
c000c6
c00fc6
c018c6
c030c6
c060c6
c060c6
6060c6
31a1c6
0f1e6f
ENDCHAR
STARTCHAR a7bb
ENCODING 42939 
SWIDTH 96 0
DWIDTH 24 0
BBX 24 24 0 -2
BITMAP 
000000
000007
000003
000003
c00003
c00003
c00003
c00003
c00003
c00003
c071c3
c6cb63
cd9b33
cd8033
d98033
d98033
f181f3
e18333
f18633
d98633
d98633
cd8e33
cc8a3b
c671cb
ENDCHAR
STARTCHAR a7bc
ENCODING 42940 
SWIDTH 96 0
DWIDTH 24 0
BBX 24 24 0 -2
BITMAP 
000000
01efe0
006630
006618
006606
006606
006606
006606
006606
1e660c
31e610
60e7e0
606630
c06618
c0660c
c06606
c06606
c06606
c06606
60660c
60e618
316630
1e2fe0
000000
ENDCHAR
STARTCHAR a7bd
ENCODING 42941 
SWIDTH 96 0
DWIDTH 24 0
BBX 24 24 0 -2
BITMAP 
000001
99c002
666004
666008
666010
666020
666040
666080
666100
666200
666400
0009c0
001220
002630
004630
008600
010300
0200e0
040030
080c30
100830
200420
4003c0
800000
ENDCHAR
STARTCHAR a7be
ENCODING 42942 
SWIDTH 96 0
DWIDTH 24 0
BBX 24 24 0 -2
BITMAP 
000001
99c002
666004
666008
666010
666022
666045
666081
666102
666204
eee407
0009c0
001220
002630
004630
008600
010300
0200e0
040030
080c30
100830
200420
4003c0
800000
ENDCHAR
STARTCHAR a7bf
ENCODING 42943 
SWIDTH 96 0
DWIDTH 24 0
BBX 24 24 0 -2
BITMAP 
000000
000000
000000
000000
000000
000000
7bc078
1e60c4
183186
183186
181980
181980
1818c0
181870
18301c
1c3006
1e6003
1bc183
180183
180086
18007c
180000
180000
3c0000
ENDCHAR
STARTCHAR a7c0
ENCODING 42944 
SWIDTH 96 0
DWIDTH 24 0
BBX 24 24 0 -2
BITMAP 
000000
000000
000000
000000
000000
000000
000000
000000
000000
0301e0
6f8310
30c618
30c618
30c600
30c600
30c300
30c1c0
30c070
30c018
30c00c
30c60c
30c60c
30c218
79e1f0
ENDCHAR
STARTCHAR a7c1
ENCODING 42945 
SWIDTH 96 0
DWIDTH 24 0
BBX 24 24 0 -2
BITMAP 
000000
000000
000000
000000
000000
000000
000000
0001e0
20c310
30c618
30c618
30c600
30c600
30c300
30c1c0
30c070
30c018
39e018
7e360c
60060c
600218
6001f0
600000
600000
ENDCHAR
STARTCHAR a7c2
ENCODING 42946 
SWIDTH 96 0
DWIDTH 24 0
BBX 24 24 0 -2
BITMAP 
000000
000000
000000
000000
000000
000000
000000
000000
000000
084078
9ce0c4
631186
631986
631980
631980
6318c0
631870
63181c
631806
631803
631983
631983
631886
f7bc7c
ENDCHAR
STARTCHAR a7c3
ENCODING 42947 
SWIDTH 96 0
DWIDTH 24 0
BBX 24 24 0 -2
BITMAP 
000000
000000
003807
001806
001806
ef0804
798c0c
60cc0c
60cc08
606608
606618
606618
606618
60c210
70c310
798330
6f0330
600120
6001a0
6001e0
6000c0
6000c0
600000
f80000
ENDCHAR
STARTCHAR a7c4
ENCODING 42948 
SWIDTH 96 0
DWIDTH 24 0
BBX 24 24 0 -2
BITMAP 
000000
000000
000000
000000
003807
001806
001806
000804
000c0c
000c0c
670c0c
2f8608
30c618
30c618
30c618
30c210
30c310
30c330
30c330
30c120
30c1a0
30c1e0
30c0c0
30c0c0
ENDCHAR
STARTCHAR a7c5
ENCODING 42949 
SWIDTH 96 0
DWIDTH 24 0
BBX 24 24 0 -2
BITMAP 
000000
000000
007807
003006
003006
001004
00180c
00180c
00180c
20cc08
30cc18
30cc18
30cc18
30c410
30c610
30c630
30c630
39e220
7f1320
6001e0
6001c0
6000c0
600000
600000
ENDCHAR
STARTCHAR a7c6
ENCODING 42950 
SWIDTH 96 0
DWIDTH 24 0
BBX 24 24 0 -2
BITMAP 
000000
000000
000000
000000
003807
001806
001806
000804
000c0c
000c0c
088c0c
9dc608
666618
666618
666618
666210
666310
666330
666330
666120
6661a0
6661e0
6660c0
f6f0c0
ENDCHAR
STARTCHAR a7c7
ENCODING 42951 
SWIDTH 96 0
DWIDTH 24 0
BBX 24 24 0 -2
BITMAP 
000000
000000
000000
000000
003807
601806
601806
600804
600c0c
600c0c
600c0c
60c608
618618
630618
660618
6c0210
780310
780330
6c0330
660120
6301a0
6181e0
60c0c0
6060c0
ENDCHAR
STARTCHAR a7c8
ENCODING 42952 
SWIDTH 96 0
DWIDTH 24 0
BBX 24 24 0 -2
BITMAP 
000000
707601
707601
707601
68b601
68b201
68b302
68b302
68b302
6db182
653184
653184
653184
653084
6230c4
6230c8
6230c8
603048
603068
603078
603030
603030
f07830
000000
ENDCHAR
STARTCHAR a7c9
ENCODING 42953 
SWIDTH 96 0
DWIDTH 24 0
BBX 24 24 0 -2
BITMAP 
000000
000000
000000
0000c0
0001c0
0001e0
ff0160
618260
60c230
606630
606430
606418
606418
606418
60cff8
70c81c
71880c
6f080c
60180c
601006
601006
60380f
600000
f00000
ENDCHAR
STARTCHAR a7ca
ENCODING 42954 
SWIDTH 96 0
DWIDTH 24 0
BBX 24 24 0 -2
BITMAP 
000000
000000
000000
000000
0000c0
0001c0
0001e0
000160
000260
000230
000230
0e0630
9f0430
618418
618418
618418
618ff8
61881c
61880c
61880c
61980c
619006
619006
f3f80f
ENDCHAR
STARTCHAR a7cb
ENCODING 42955 
SWIDTH 96 0
DWIDTH 24 0
BBX 24 24 0 -2
BITMAP 
000000
000000
0000c0
0001c0
0001e0
000160
000260
000230
418230
618630
618430
618418
618418
618418
618ff8
61881c
61880c
73c80c
fc780c
c01006
c01006
c0380f
c00000
c00000
ENDCHAR
STARTCHAR a7cc
ENCODING 42956 
SWIDTH 96 0
DWIDTH 24 0
BBX 24 24 0 -2
BITMAP 
000000
000000
000000
000000
000060
0000e0
0000f0
0000b0
000130
000118
000118
000318
9dc218
66620c
66620c
66620c
6667fc
66640e
666406
666406
666c06
666803
666803
f6fe07
ENDCHAR
STARTCHAR a7cd
ENCODING 42957 
SWIDTH 96 0
DWIDTH 24 0
BBX 24 24 0 -2
BITMAP 
000000
000000
000000
000000
6000c0
6001c0
6001e0
600160
600260
600230
606230
60c630
618430
630418
660418
6c0418
780ff8
78081c
6c080c
66080c
63180c
619006
60d006
607c0f
ENDCHAR
STARTCHAR a7ce
ENCODING 42958 
SWIDTH 96 0
DWIDTH 24 0
BBX 24 24 0 -2
BITMAP 
000000
000000
000000
0071e7
0030c2
ee30c2
7330c2
61b0c2
61b0c2
60d8e2
60d932
60cd34
60cd34
618d34
718d34
7b0d34
6e0e18
600618
600618
600618
600618
600618
600000
f00000
ENDCHAR
STARTCHAR a7cf
ENCODING 42959 
SWIDTH 96 0
DWIDTH 24 0
BBX 24 24 0 -2
BITMAP 
000000
000000
000000
000000
000000
00e3ce
006184
006184
006184
006184
006184
9f31c4
61b264
619a68
619a68
619a68
619a68
619a68
619c30
618c30
618c30
618c30
618c30
f3cc30
ENDCHAR
STARTCHAR a7d0
ENCODING 42960 
SWIDTH 96 0
DWIDTH 24 0
BBX 24 24 0 -2
BITMAP 
000000
000000
000000
00e3ce
006184
006184
006184
006184
436184
6331c4
633264
631a68
631a68
631a68
631a68
631a68
631c30
770c30
fc8c30
c00c30
c00c30
c00c30
c00000
c00000
ENDCHAR
STARTCHAR a7d1
ENCODING 42961 
SWIDTH 96 0
DWIDTH 24 0
BBX 24 24 0 -2
BITMAP 
000000
000000
000000
000000
000000
0071e7
0030c2
0030c2
0030c2
0030c2
b730c2
c998e2
c99932
c98d34
c98d34
c98d34
c98d34
c98d34
c98e18
c98618
c98618
c98618
c98618
e9c618
ENDCHAR
STARTCHAR a7d2
ENCODING 42962 
SWIDTH 96 0
DWIDTH 24 0
BBX 24 24 0 -2
BITMAP 
000000
000000
000000
000000
000000
60e3ce
606184
606184
606184
606184
606184
60b1c4
61b264
631a68
661a68
6c1a68
781a68
781a68
6c1c30
660c30
630c30
618c30
60cc30
606c30
ENDCHAR
STARTCHAR a7d3
ENCODING 42963 
SWIDTH 96 0
DWIDTH 24 0
BBX 24 24 0 -2
BITMAP 
000000
000000
000000
e0777b
70e631
70e631
70e631
70e631
696631
696631
696639
69635a
69635a
6f635a
66635a
66635a
66635a
60618c
60618c
60618c
60618c
60618c
f0f000
000000
ENDCHAR
STARTCHAR a7d4
ENCODING 42964 
SWIDTH 96 0
DWIDTH 24 0
BBX 24 24 0 -2
BITMAP 
000000
f0f000
606000
606000
606000
606000
606000
606000
606000
6067fe
606606
7fe40e
60640c
606018
606030
606030
606060
6060c0
606180
606302
606602
606406
f0f7fe
000000
ENDCHAR
STARTCHAR a7d5
ENCODING 42965 
SWIDTH 96 0
DWIDTH 24 0
BBX 24 24 0 -2
BITMAP 
000000
f1e780
60c300
60c300
60c300
60c300
60c300
60c300
6ec300
64c300
64c37f
68ff63
68c347
70c306
70c306
70c30c
68c30c
68c318
68c318
6cc330
6cc330
66c371
66c363
67e7ff
ENDCHAR
STARTCHAR a7d6
ENCODING 42966 
SWIDTH 96 0
DWIDTH 24 0
BBX 24 24 0 -2
BITMAP 
000000
e3b780
e3b300
e3b300
d5b300
d5b300
d5b300
d5b300
d5b300
d5b300
ddb37f
c9bf63
c9b346
c9b30c
c1b30c
c1b318
c1b318
c1b330
c1b330
c1b320
c1b360
c1b342
c1b3c6
c1b7fe
ENDCHAR
STARTCHAR a7d7
ENCODING 42967 
SWIDTH 96 0
DWIDTH 24 0
BBX 24 24 0 -2
BITMAP 
3ef780
436300
c36300
c36300
c36300
c16300
c16300
c06300
c06300
c06300
c0637f
c07f63
c06347
cf6306
c36306
c3630c
c3630c
c36318
c36318
c36330
c36330
c36371
476363
3bf7ff
ENDCHAR
STARTCHAR a7d8
ENCODING 42968 
SWIDTH 96 0
DWIDTH 24 0
BBX 24 24 0 -2
BITMAP 
fff780
ff6300
db6300
996300
996300
186300
186300
186300
186300
186300
18637f
187f63
186347
186306
186306
18630c
18630c
186318
186318
186330
186330
186371
3c6363
7ef7ff
ENDCHAR
STARTCHAR a7d9
ENCODING 42969 
SWIDTH 96 0
DWIDTH 24 0
BBX 24 24 0 -2
BITMAP 
000000
000000
007e00
01c380
0300c0
0300c0
0700e0
060060
0e0070
0e0070
0e0070
060060
0700e0
0300c0
0300c0
018180
00c300
002400
082410
082410
0fe7f0
0fe7f0
000000
000000
ENDCHAR
STARTCHAR a7da
ENCODING 42970 
SWIDTH 96 0
DWIDTH 24 0
BBX 24 24 0 -2
BITMAP 
000000
000000
0001c0
000360
c00c18
c0180c
c0180c
c03006
c03006
c03006
c06003
c06003
c36003
c66003
cc3006
d83006
f03006
e03006
f0180c
d80808
cc0410
c64221
c33e3e
c19f7c
ENDCHAR
STARTCHAR a7db
ENCODING 42971 
SWIDTH 96 0
DWIDTH 24 0
BBX 24 24 0 -2
BITMAP 
000000
000000
f0f060
70e0f0
70e198
70e30c
70e30c
696606
696606
696606
696c03
696c03
666c03
666c03
666606
666606
666606
666606
60630c
60630c
606198
606891
60679e
e0739c
ENDCHAR
STARTCHAR a7dc
ENCODING 42972 
SWIDTH 96 0
DWIDTH 24 0
BBX 24 24 0 -2
BITMAP 
000000
000000
000000
003fff
001c07
000c03
000c01
ef0c01
798c00
60cc10
60cc30
606ff0
606c30
606c10
606c00
60cc00
70cc00
798c00
6f0c00
600c00
603f00
600000
600000
f00000
ENDCHAR
STARTCHAR a7dd
ENCODING 42973 
SWIDTH 96 0
DWIDTH 24 0
BBX 24 24 0 -2
BITMAP 
000000
000000
000000
000000
000000
003fff
001c07
000c03
000c01
000c01
0e0c00
5f0c10
618c30
618ff0
618c30
618c10
618c00
618c00
618c00
618c00
618c00
618c00
618c00
f3df00
ENDCHAR
STARTCHAR a7de
ENCODING 42974 
SWIDTH 96 0
DWIDTH 24 0
BBX 24 24 0 -2
BITMAP 
000000
000000
000000
001ffe
000c0e
000c06
000c02
000c00
000c00
40cc08
60cc18
60cff8
60cc18
60cc08
60cc00
60cc00
60cc00
73cc00
fe2c00
c00c00
c01f00
c00000
c00000
c00000
ENDCHAR
STARTCHAR a7df
ENCODING 42975 
SWIDTH 96 0
DWIDTH 24 0
BBX 24 24 0 -2
BITMAP 
000000
00001c
00000c
00000c
00000c
00000c
00000c
00000c
00000c
00000c
00000c
bb878c
cccccc
ccd86c
ccd86c
ccd86c
ccd86c
ccd86c
ccd86c
ccd86c
ccd86c
cccccc
eec79e
000000
ENDCHAR
STARTCHAR a7e0
ENCODING 42976 
SWIDTH 96 0
DWIDTH 24 0
BBX 24 24 0 -2
BITMAP 
000000
00003c
00000c
00000c
00000c
00000c
00000c
00000c
00000c
00000c
1e03cc
31863c
638c1c
618c0c
c0180c
c0180c
c0180c
c0180c
c0180c
c0180c
600c0c
608c1c
31062c
1e03c4
ENDCHAR
STARTCHAR a7e1
ENCODING 42977 
SWIDTH 96 0
DWIDTH 24 0
BBX 24 24 0 -2
BITMAP 
000000
00000f
000003
000003
000003
000003
000003
000003
000003
000003
e63033
694c6f
6b46c7
7306c3
7006c3
6006c3
601ec3
602ec3
6066c3
60c6c3
60c6c3
60c6c7
60466b
f03f33
ENDCHAR
STARTCHAR a7e2
ENCODING 42978 
SWIDTH 96 0
DWIDTH 24 0
BBX 24 24 0 -2
BITMAP 
000038
000018
000018
000018
000018
000018
d9f1d8
e51a38
c01a18
c0fa18
c19a18
c19a3b
c0eddc
000030
0000c0
000300
000c00
0033e0
00c610
030600
0c03e0
300030
c00430
0003e0
ENDCHAR
STARTCHAR a7e3
ENCODING 42979 
SWIDTH 96 0
DWIDTH 24 0
BBX 24 24 0 -2
BITMAP 
000038
000018
000018
000018
000018
000018
d9f1d8
e51a38
c01a18
c0fa18
c19a18
c19a3b
c0edcc
00001e
000071
000191
000602
001fc8
00663f
018600
0603e0
180030
600430
8003e0
ENDCHAR
STARTCHAR a7e4
ENCODING 42980 
SWIDTH 96 0
DWIDTH 24 0
BBX 24 24 0 -2
BITMAP 
000000
000000
000000
000000
000000
000000
000000
000000
000000
1e0800
310ce0
618d30
618e38
600c10
600c00
300c00
1c0c00
070c00
018c00
00cc00
60cc00
60cc00
218c00
1f1e00
ENDCHAR
STARTCHAR a7e5
ENCODING 42981 
SWIDTH 96 0
DWIDTH 24 0
BBX 24 24 0 -2
BITMAP 
000000
000000
ef0000
798000
60c000
60c000
606000
606000
606000
606380
606460
60cc30
70cc30
718030
6f0030
6003f0
600630
600c30
601830
601830
601830
600870
f0079c
000000
ENDCHAR
STARTCHAR a7e6
ENCODING 42982 
SWIDTH 96 0
DWIDTH 24 0
BBX 24 24 0 -2
BITMAP 
f0fe00
606300
606180
606180
6060c0
6060c0
6060c0
6060c0
6f6180
666180
647300
647ce0
686118
68630c
70630c
70600c
7860fc
68618c
68630c
64660c
66660c
63660c
63631c
f7f1e7
ENDCHAR
STARTCHAR a7e7
ENCODING 42983 
SWIDTH 96 0
DWIDTH 24 0
BBX 24 24 0 -2
BITMAP 
000000
000000
f1ff80
60d8c0
71d860
71d860
6ad860
6ad860
6ad860
6ad860
6ad860
6ad8c0
6ad9bc
6ede46
64d8c6
64d806
64d87e
64d886
64d986
60d986
60d986
60d886
f1fc79
000000
ENDCHAR
STARTCHAR a7e8
ENCODING 42984 
SWIDTH 96 0
DWIDTH 24 0
BBX 24 24 0 -2
BITMAP 
000000
3dfe00
436300
c36180
c160c0
c160c0
c060c0
c060c0
c06180
c06180
c07370
c07c8c
c06186
cf6186
c36006
c36006
c3607e
c360c6
c36186
c36306
c36306
c76306
4b618e
33f0f3
ENDCHAR
STARTCHAR a7e9
ENCODING 42985 
SWIDTH 96 0
DWIDTH 24 0
BBX 24 24 0 -2
BITMAP 
000000
f1e3e0
60c160
60c160
60c160
60c160
60c160
60c160
60c160
31626e
316273
316263
316263
316263
1a3463
1a3463
1a3463
1a3463
1a3463
0c1863
0c1863
0c1866
0c185c
000000
ENDCHAR
STARTCHAR a7ea
ENCODING 42986 
SWIDTH 96 0
DWIDTH 24 0
BBX 24 24 0 -2
BITMAP 
000000
3c0000
180000
180000
180000
180000
180000
180000
180000
180000
181860
18bcf0
186318
186318
186318
186318
186318
186318
186318
186318
186318
186318
3cf7bc
000000
ENDCHAR
STARTCHAR a7eb
ENCODING 42987 
SWIDTH 96 0
DWIDTH 24 0
BBX 24 24 0 -2
BITMAP 
000000
1e0000
0c0000
0c0000
0c0000
0c0000
0c0000
0c0000
0c0000
0c0000
0c0000
0c3c38
0c1810
0c0c20
0c0c40
0c0680
0c0300
0c0300
0c0380
0c04c0
0c0860
0c1030
1e3878
000000
ENDCHAR
STARTCHAR a7ec
ENCODING 42988 
SWIDTH 96 0
DWIDTH 24 0
BBX 24 24 0 -2
BITMAP 
000000
ff0000
618000
60c000
606000
603000
6030f7
60319e
603306
606306
608606
7f0606
608606
604606
602306
60330e
60319e
6030f6
603006
603006
606006
60c006
ff8006
00000f
ENDCHAR
STARTCHAR a7ed
ENCODING 42989 
SWIDTH 96 0
DWIDTH 24 0
BBX 24 24 0 -2
BITMAP 
000000
078000
18c000
306000
603000
607000
c07800
c03000
c00f0e
c00604
c00304
c0f308
c03308
c03188
c03190
6030d0
307060
307040
0fb040
000080
000080
001900
003d00
001e00
ENDCHAR
STARTCHAR a7ee
ENCODING 42990 
SWIDTH 96 0
DWIDTH 24 0
BBX 24 24 0 -2
BITMAP 
000000
07c800
183800
301800
600800
600000
600000
600000
300000
0c0f07
03c602
003202
001b06
000d04
000d84
000c8c
200ccc
300c48
301868
283030
07e030
000000
000000
000000
ENDCHAR
STARTCHAR a7ef
ENCODING 42991 
SWIDTH 96 0
DWIDTH 24 0
BBX 24 24 0 -2
BITMAP 
1e0000
210000
600003
60000c
600030
6100c0
610300
3e0c00
003000
00c000
03603b
0c606c
3060c6
c067c6
00627c
006460
0068fc
0071c6
007983
006d83
0066c3
006366
00f7bc
000000
ENDCHAR
STARTCHAR a1f0
ENCODING 41456 
SWIDTH 96 0
DWIDTH 24 0
BBX 24 24 0 -2
BITMAP 
000000
000000
000000
000000
000000
000000
0380e0
0c6318
101404
200800
200800
200800
200800
200800
200800
101404
0c6318
0380e0
000000
000000
000000
000000
000000
000000
ENDCHAR
STARTCHAR a1f1
ENCODING 41457 
SWIDTH 96 0
DWIDTH 24 0
BBX 24 24 0 -2
BITMAP 
000000
000000
000000
000000
30000c
78001e
78001e
30000c
000000
000000
000000
000000
000000
000000
000000
000000
000000
000000
001800
003c00
003c00
001800
000000
000000
ENDCHAR
STARTCHAR a1f2
ENCODING 41458 
SWIDTH 96 0
DWIDTH 24 0
BBX 24 24 0 -2
BITMAP 
001800
002400
004200
004000
004000
004000
002000
002000
002000
001000
001000
001000
000800
000800
000800
000400
000400
000400
000200
000200
000200
004200
002400
001800
ENDCHAR
STARTCHAR a1f3
ENCODING 41459 
SWIDTH 96 0
DWIDTH 24 0
BBX 24 24 0 -2
BITMAP 
0300c0
048120
084210
080200
080200
080200
040100
040100
040100
020080
020080
020080
010040
010040
010040
008020
008020
008020
004010
004010
004010
084210
048120
0300c0
ENDCHAR
STARTCHAR a1f4
ENCODING 41460 
SWIDTH 96 0
DWIDTH 24 0
BBX 24 24 0 -2
BITMAP 
000000
000000
000000
000000
007ff0
018000
020000
040000
040000
080000
080000
0ffff0
080000
080000
040000
040000
020000
018000
007ff0
000000
000000
000000
000000
000000
ENDCHAR
STARTCHAR a1f5
ENCODING 41461 
SWIDTH 96 0
DWIDTH 24 0
BBX 24 24 0 -2
BITMAP 
000000
000000
000000
000000
0ffe00
000180
000040
000020
000020
000010
000010
0ffff0
000010
000010
000020
000020
000040
000180
0ffe00
000000
000000
000000
000000
000000
ENDCHAR
STARTCHAR a1f6
ENCODING 41462 
SWIDTH 96 0
DWIDTH 24 0
BBX 24 24 0 -2
BITMAP 
000000
000000
000000
01fff8
060000
080000
080000
100000
100000
100000
100000
100000
080000
080000
060000
01fff8
000000
000000
000000
1ffff8
000000
000000
000000
000000
ENDCHAR
STARTCHAR a1f7
ENCODING 41463 
SWIDTH 96 0
DWIDTH 24 0
BBX 24 24 0 -2
BITMAP 
000000
000000
000000
1fff80
000060
000010
000010
000008
000008
000008
000008
000008
000010
000010
000060
1fff80
000000
000000
000000
1ffff8
000000
000000
000000
000000
ENDCHAR
STARTCHAR a1f8
ENCODING 41464 
SWIDTH 96 0
DWIDTH 24 0
BBX 24 24 0 -2
BITMAP 
000000
000000
000000
000000
00fff8
030000
040000
080000
080000
100000
100000
100000
100000
100000
100000
080000
080000
040000
030000
00fff8
000000
000000
000000
000000
ENDCHAR
STARTCHAR a1f9
ENCODING 41465 
SWIDTH 96 0
DWIDTH 24 0
BBX 24 24 0 -2
BITMAP 
000000
000000
000000
000000
1fff00
0000c0
000020
000010
000010
000008
000008
000008
000008
000008
000008
000010
000010
000020
0000c0
1fff00
000000
000000
000000
000000
ENDCHAR
STARTCHAR a1fa
ENCODING 41466 
SWIDTH 96 0
DWIDTH 24 0
BBX 24 24 0 -2
BITMAP 
000000
000000
000000
080010
080010
080010
080010
080010
080010
080010
080010
080010
080010
080010
080010
080010
040020
040020
020040
018180
007e00
000000
000000
000000
ENDCHAR
STARTCHAR a1fb
ENCODING 41467 
SWIDTH 96 0
DWIDTH 24 0
BBX 24 24 0 -2
BITMAP 
000000
000000
000000
007e00
018180
020040
040020
040020
080010
080010
080010
080010
080010
080010
080010
080010
080010
080010
080010
080010
080010
000000
000000
000000
ENDCHAR
STARTCHAR a1fc
ENCODING 41468 
SWIDTH 96 0
DWIDTH 24 0
BBX 24 24 0 -2
BITMAP 
000000
000000
000000
001000
001000
002800
002800
004400
004400
008200
008200
010100
010100
020080
020080
040040
040040
080020
080020
100010
100010
000000
000000
000000
ENDCHAR
STARTCHAR a1fd
ENCODING 41469 
SWIDTH 96 0
DWIDTH 24 0
BBX 24 24 0 -2
BITMAP 
000000
000000
000000
100010
100010
080020
080020
040040
040040
020080
020080
010100
010100
008200
008200
004400
004400
002800
002800
001000
001000
000000
000000
000000
ENDCHAR
STARTCHAR a2a1
ENCODING 41633 
SWIDTH 96 0
DWIDTH 24 0
BBX 24 24 0 -2
BITMAP 
000000
000000
000000
000000
000080
000040
000020
000010
fffff8
000004
000002
000001
000002
000004
fffff8
000010
000020
000040
000080
000000
000000
000000
000000
000000
ENDCHAR
STARTCHAR a2a2
ENCODING 41634 
SWIDTH 96 0
DWIDTH 24 0
BBX 24 24 0 -2
BITMAP 
000000
000000
000000
000000
010080
020040
040020
080010
1ffff8
200004
400002
800001
400002
200004
1ffff8
080010
040020
020040
010080
000000
000000
000000
000000
000000
ENDCHAR
STARTCHAR a2a3
ENCODING 41635 
SWIDTH 96 0
DWIDTH 24 0
BBX 24 24 0 -2
BITMAP 
000000
000000
200008
200008
100010
100010
080020
080020
07ffc0
040040
020080
020080
010100
010100
008200
008200
004400
004400
002800
002800
001000
001000
000000
000000
ENDCHAR
STARTCHAR a2a4
ENCODING 41636 
SWIDTH 96 0
DWIDTH 24 0
BBX 24 24 0 -2
BITMAP 
000000
000000
000000
0fffc0
000040
000040
000040
000040
000040
000040
000040
0fffc0
000040
000040
000040
000040
000040
000040
000040
0fffc0
000000
000000
000000
000000
ENDCHAR
STARTCHAR a2a5
ENCODING 41637 
SWIDTH 96 0
DWIDTH 24 0
BBX 24 24 0 -2
BITMAP 
000600
000f00
003800
00e000
000000
000000
000000
000000
000000
000000
000000
000000
000000
000000
000000
000000
000000
000000
000000
000000
000000
000000
000000
000000
ENDCHAR
STARTCHAR a2a6
ENCODING 41638 
SWIDTH 96 0
DWIDTH 24 0
BBX 24 24 0 -2
BITMAP 
000000
000000
000000
000000
01e020
021840
040780
000000
000000
000000
000000
000000
000000
000000
000000
000000
000000
000000
000000
000000
000000
000000
000000
000000
ENDCHAR
STARTCHAR a2a7
ENCODING 41639 
SWIDTH 96 0
DWIDTH 24 0
BBX 24 24 0 -2
BITMAP 
000000
010080
018180
00c300
006600
003c00
001800
000000
000000
000000
000000
000000
000000
000000
000000
000000
000000
000000
000000
000000
000000
000000
000000
000000
ENDCHAR
STARTCHAR a2a8
ENCODING 41640 
SWIDTH 96 0
DWIDTH 24 0
BBX 24 24 0 -2
BITMAP 
000000
020080
030180
018300
00fe00
007c00
000000
000000
000000
000000
000000
000000
000000
000000
000000
000000
000000
000000
000000
000000
000000
000000
000000
000000
ENDCHAR
STARTCHAR a2a9
ENCODING 41641 
SWIDTH 96 0
DWIDTH 24 0
BBX 24 24 0 -2
BITMAP 
000000
330000
330000
330000
660000
660000
440000
880000
000000
000000
000000
000000
000000
000000
000000
000000
000000
000000
000000
000000
000000
000000
000000
000000
ENDCHAR
STARTCHAR a2aa
ENCODING 41642 
SWIDTH 96 0
DWIDTH 24 0
BBX 24 24 0 -2
BITMAP 
00f000
010800
020400
020400
020400
020400
010800
00f000
000000
000000
000000
000000
000000
000000
000000
000000
000000
000000
000000
000000
000000
000000
000000
000000
ENDCHAR
STARTCHAR a2ab
ENCODING 41643 
SWIDTH 96 0
DWIDTH 24 0
BBX 24 24 0 -2
BITMAP 
007000
00f800
00f800
00f800
007000
000000
000000
000000
000000
000000
000000
000000
000000
000000
000000
000000
000000
000000
000000
000000
000000
000000
000000
000000
ENDCHAR
STARTCHAR a2ac
ENCODING 41644 
SWIDTH 96 0
DWIDTH 24 0
BBX 24 24 0 -2
BITMAP 
000000
000000
000000
000000
000000
000000
000000
000000
000000
000000
000000
000000
000000
001000
003800
003000
001000
000800
000400
000600
000600
004e00
003c00
000000
ENDCHAR
STARTCHAR a2ad
ENCODING 41645 
SWIDTH 96 0
DWIDTH 24 0
BBX 24 24 0 -2
BITMAP 
000000
000000
000000
000000
000000
000000
000000
000000
000000
000000
000000
000000
000000
000000
000000
001000
001000
002000
006000
00e100
00e700
007e00
003800
000000
ENDCHAR
STARTCHAR a2ae
ENCODING 41646 
SWIDTH 96 0
DWIDTH 24 0
BBX 24 24 0 -2
BITMAP 
000000
001c00
003e00
001c00
000000
000800
000800
000800
000800
001c00
001c00
001c00
001c00
001c00
001c00
001c00
001c00
001c00
001c00
001c00
001c00
001c00
000800
000000
ENDCHAR
STARTCHAR a2af
ENCODING 41647 
SWIDTH 96 0
DWIDTH 24 0
BBX 24 24 0 -2
BITMAP 
000000
001800
003c00
001800
000000
000800
000800
000800
000800
001800
003000
00e000
01c000
038000
038000
0780c0
0781e0
0380c0
03c040
01c080
00e100
007e00
000000
000000
ENDCHAR
STARTCHAR a2b0
ENCODING 41648 
SWIDTH 96 0
DWIDTH 24 0
BBX 24 24 0 -2
BITMAP 
000000
000000
000000
000000
000000
000000
007e00
007e00
003c00
001800
000000
000000
000000
001800
003c00
007e00
007e00
000000
000000
000000
000000
000000
000000
000000
ENDCHAR
STARTCHAR a2b1
ENCODING 41649 
SWIDTH 96 0
DWIDTH 24 0
BBX 24 24 0 -2
BITMAP 
000000
000700
000b80
001180
001000
001000
001000
001000
003800
005400
005400
005400
003800
001000
001000
001000
001000
001000
001000
031000
03a000
01c000
000000
000000
ENDCHAR
STARTCHAR a2b2
ENCODING 41650 
SWIDTH 96 0
DWIDTH 24 0
BBX 24 24 0 -2
BITMAP 
000000
3ffffc
180078
180018
0c0008
060008
030000
018000
00c000
00e000
007000
007000
00e000
00c000
018000
030000
060008
0c0008
180018
180038
3ffffc
000000
000000
000000
ENDCHAR
STARTCHAR a2b3
ENCODING 41651 
SWIDTH 96 0
DWIDTH 24 0
BBX 24 24 0 -2
BITMAP 
000000
000000
3ffffc
3ffffc
0300c0
0300c0
0300c0
0300c0
0300c0
0300c0
0300c0
0300c0
0300c0
0300c0
0300c0
0300c0
0300c0
0300c0
0300c0
0300c0
0300c0
0300c0
000000
000000
ENDCHAR
STARTCHAR a2b4
ENCODING 41652 
SWIDTH 96 0
DWIDTH 24 0
BBX 24 24 0 -2
BITMAP 
000000
000000
000000
000000
020040
010080
00ff00
018180
0300c0
060060
060060
060060
060060
0300c0
018180
00ff00
010080
020040
000000
000000
000000
000000
000000
000000
ENDCHAR
STARTCHAR a2b5
ENCODING 41653 
SWIDTH 96 0
DWIDTH 24 0
BBX 24 24 0 -2
BITMAP 
000000
1cfffc
22c018
22c018
1cc008
00c000
00c000
00c040
00c0c0
00c0c0
00ffc0
00c0c0
00c0c0
00c040
00c000
00c000
00c000
00c000
00c000
00c000
00c000
01f000
03f800
000000
ENDCHAR
STARTCHAR a2b6
ENCODING 41654 
SWIDTH 96 0
DWIDTH 24 0
BBX 24 24 0 -2
BITMAP 
000000
000000
0c0200
120200
210400
210800
210800
211000
212000
212000
124000
0c8000
009818
012424
024242
024242
044242
084242
084242
104242
202424
201818
000000
000000
ENDCHAR
STARTCHAR a2b7
ENCODING 41655 
SWIDTH 96 0
DWIDTH 24 0
BBX 24 24 0 -2
BITMAP 
000000
000000
000004
00000c
000034
0000c4
000304
000c04
003004
00c004
030004
0c0004
300004
0c0004
030004
00c004
003004
000c04
000304
0000c4
000034
00000c
000004
000000
ENDCHAR
STARTCHAR a2b8
ENCODING 41656 
SWIDTH 96 0
DWIDTH 24 0
BBX 24 24 0 -2
BITMAP 
000000
000000
000004
00000c
00003c
0000fc
0003fc
000ffc
003ffc
00fffc
03fffc
0ffffc
3ffffc
0ffffc
03fffc
00fffc
003ffc
000ffc
0003fc
0000fc
00003c
00000c
000004
000000
ENDCHAR
STARTCHAR a2b9
ENCODING 41657 
SWIDTH 96 0
DWIDTH 24 0
BBX 24 24 0 -2
BITMAP 
000000
000000
200000
300000
2c0000
230000
20c000
203000
200c00
200300
2000c0
200030
20000c
200030
2000c0
200300
200c00
203000
20c000
230000
2c0000
300000
200000
000000
ENDCHAR
STARTCHAR a2ba
ENCODING 41658 
SWIDTH 96 0
DWIDTH 24 0
BBX 24 24 0 -2
BITMAP 
000000
000000
200000
300000
3c0000
3f0000
3fc000
3ff000
3ffc00
3fff00
3fffc0
3ffff0
3ffffc
3ffff0
3fffc0
3fff00
3ffc00
3ff000
3fc000
3f0000
3c0000
300000
200000
000000
ENDCHAR
STARTCHAR a2bb
ENCODING 41659 
SWIDTH 96 0
DWIDTH 24 0
BBX 24 24 0 -2
BITMAP 
000000
000800
000800
000800
001400
006300
008080
030060
040010
18000c
100004
200002
200002
200002
200002
200802
201c02
102a04
0fc9f8
000800
000800
000800
000000
000000
ENDCHAR
STARTCHAR a2bc
ENCODING 41660 
SWIDTH 96 0
DWIDTH 24 0
BBX 24 24 0 -2
BITMAP 
000000
000800
000800
000800
001c00
007f00
00ff80
03ffe0
07fff0
1ffffc
1ffffc
3ffffe
3ffffe
3ffffe
3ffffe
3ffffe
3ffffe
1febfc
0fc9f8
000800
000800
000800
000000
000000
ENDCHAR
STARTCHAR a2bd
ENCODING 41661 
SWIDTH 96 0
DWIDTH 24 0
BBX 24 24 0 -2
BITMAP 
000000
000000
01c1c0
022220
0c1418
100804
200002
200002
200002
200002
200002
200002
18000c
040010
030060
008080
006300
001400
001c00
000800
000800
000800
000000
000000
ENDCHAR
STARTCHAR a2be
ENCODING 41662 
SWIDTH 96 0
DWIDTH 24 0
BBX 24 24 0 -2
BITMAP 
000000
000000
01c1c0
03e3e0
0ff7f8
1ffffe
1ffffe
1ffffe
1ffffe
1ffffe
1ffffe
1ffffc
07fff0
03ffe0
00ff80
007f00
001c00
001c00
001c00
000800
000800
000800
000000
000000
ENDCHAR
STARTCHAR a2bf
ENCODING 41663 
SWIDTH 96 0
DWIDTH 24 0
BBX 24 24 0 -2
BITMAP 
000000
000000
003c00
00c300
010080
010080
020040
010080
010080
048120
1bc3d8
20e704
206604
400002
401802
401802
403c02
205a04
209904
1b18d8
041820
001800
000000
000000
ENDCHAR
STARTCHAR a2c0
ENCODING 41664 
SWIDTH 96 0
DWIDTH 24 0
BBX 24 24 0 -2
BITMAP 
000000
000000
003c00
00ff00
01ff80
01ff80
03ffc0
01ff80
01ff80
04ff20
1ffff8
3ffffc
3ffffc
7ffffe
7ffffe
7ffffe
7ffffe
3fdbfc
3f99fc
1f18f8
041820
001800
000000
000000
ENDCHAR
STARTCHAR a2c1
ENCODING 41665 
SWIDTH 96 0
DWIDTH 24 0
BBX 24 24 0 -2
BITMAP 
000000
000000
007e00
01c380
070060
080010
100008
30000c
200004
400002
401802
403c02
403c02
401802
400002
200004
30000c
100008
080010
060060
018180
007e00
000000
000000
ENDCHAR
STARTCHAR a2c2
ENCODING 41666 
SWIDTH 96 0
DWIDTH 24 0
BBX 24 24 0 -2
BITMAP 
000000
001800
003c00
006600
00c300
018180
0300c0
061860
0c3c30
187e18
30ff0c
61ff86
61ff86
20ff0c
187e18
0c3c30
061860
0300c0
018180
00c300
006600
003c00
001800
000000
ENDCHAR
STARTCHAR a2c3
ENCODING 41667 
SWIDTH 96 0
DWIDTH 24 0
BBX 24 24 0 -2
BITMAP 
000000
000000
3ffffc
200004
200004
200004
200004
21ff84
21ff84
21ff84
21ff84
21ff84
21ff84
21ff84
21ff84
21ff84
21ff84
200004
200004
200004
200004
3ffffc
000000
000000
ENDCHAR
STARTCHAR a2c4
ENCODING 41668 
SWIDTH 96 0
DWIDTH 24 0
BBX 24 24 0 -2
BITMAP 
000000
000000
007e00
01f180
07f060
0ff010
1ff008
3ff00c
3ff004
7ff002
7ff002
7ff002
7ff002
7ff002
7ff002
3ff004
3ff00c
1ff008
0ff010
07f060
01f180
007e00
000000
000000
ENDCHAR
STARTCHAR a2c5
ENCODING 41669 
SWIDTH 96 0
DWIDTH 24 0
BBX 24 24 0 -2
BITMAP 
000000
000000
007e00
018f80
060fe0
080ff0
100ff8
300ffc
200ffc
400ffe
400ffe
400ffe
400ffe
400ffe
400ffe
200ffc
300ffc
100ff8
080ff0
060fe0
018f80
007e00
000000
000000
ENDCHAR
STARTCHAR a2c6
ENCODING 41670 
SWIDTH 96 0
DWIDTH 24 0
BBX 24 24 0 -2
BITMAP 
000000
000000
3ffffc
200004
282084
220014
202204
240044
208004
201214
200004
208084
201214
240004
204904
220024
208204
200084
281004
210114
200004
3ffffc
000000
000000
ENDCHAR
STARTCHAR a2c7
ENCODING 41671 
SWIDTH 96 0
DWIDTH 24 0
BBX 24 24 0 -2
BITMAP 
000000
000000
3ffffc
200004
200004
200004
200004
3ffffc
200004
200004
200004
200004
3ffffc
200004
200004
200004
200004
3ffffc
200004
200004
200004
3ffffc
000000
000000
ENDCHAR
STARTCHAR a2c8
ENCODING 41672 
SWIDTH 96 0
DWIDTH 24 0
BBX 24 24 0 -2
BITMAP 
000000
000000
3ffffc
210844
210844
210844
210844
210844
210844
210844
210844
210844
210844
210844
210844
210844
210844
210844
210844
210844
210844
3ffffc
000000
000000
ENDCHAR
STARTCHAR a2c9
ENCODING 41673 
SWIDTH 96 0
DWIDTH 24 0
BBX 24 24 0 -2
BITMAP 
000000
000000
3ffffc
20100c
202014
204024
208044
210084
220104
240204
280404
30080c
201014
202024
204044
208084
210104
220204
240404
280804
301004
3ffffc
000000
000000
ENDCHAR
STARTCHAR a2ca
ENCODING 41674 
SWIDTH 96 0
DWIDTH 24 0
BBX 24 24 0 -2
BITMAP 
000000
000000
3ffffc
301004
280804
240404
220204
210104
208084
204044
202024
301014
28080c
240404
220204
210104
208084
204044
202024
201014
20080c
3ffffc
000000
000000
ENDCHAR
STARTCHAR a2cb
ENCODING 41675 
SWIDTH 96 0
DWIDTH 24 0
BBX 24 24 0 -2
BITMAP 
000000
000000
7ffffc
421084
421084
421084
421084
7ffffc
421084
421084
421084
421084
7ffffc
421084
421084
421084
421084
7ffffc
421084
421084
421084
421084
7ffffc
000000
ENDCHAR
STARTCHAR a2cc
ENCODING 41676 
SWIDTH 96 0
DWIDTH 24 0
BBX 24 24 0 -2
BITMAP 
000000
000000
3ffffc
30180c
282414
244224
228144
210084
228144
244224
282414
30180c
301814
282424
244244
228184
210184
228244
244424
282814
30100c
3ffffc
000000
000000
ENDCHAR
STARTCHAR a2cd
ENCODING 41677 
SWIDTH 96 0
DWIDTH 24 0
BBX 24 24 0 -2
BITMAP 
000000
000000
000000
000000
004900
004900
009200
009200
012400
012400
012400
009200
004900
004900
0c2498
18248c
302486
304906
304906
300006
18000c
0ffff8
03ffe0
000000
ENDCHAR
STARTCHAR a2ce
ENCODING 41678 
SWIDTH 96 0
DWIDTH 24 0
BBX 24 24 0 -2
BITMAP 
07ffe0
180018
200004
400002
800001
800001
81ff81
810081
810081
fe007f
040010
043c10
084210
109908
212484
412482
811881
808101
804201
803c01
800001
800001
800001
7ffffe
ENDCHAR
STARTCHAR a2cf
ENCODING 41679 
SWIDTH 96 0
DWIDTH 24 0
BBX 24 24 0 -2
BITMAP 
07fff0
1ffff8
3ffffc
7ffffe
ffffff
ffffff
ffffff
ffffff
ffffff
ffffff
07ffe0
07ffe0
0fc3f0
1f99f8
3f3cfc
7f3cfe
ff18ff
ff85ff
ffc3ff
ffffff
ffffff
ffffff
ffffff
7ffffe
ENDCHAR
STARTCHAR a2d0
ENCODING 41680 
SWIDTH 96 0
DWIDTH 24 0
BBX 24 24 0 -2
BITMAP 
000000
000000
000000
000003
7fffc3
80003f
800003
7ffe03
004003
008003
007e03
002003
004003
003e03
001007
00200b
001ff3
000000
000000
000000
000000
000000
000000
000000
ENDCHAR
STARTCHAR a2d1
ENCODING 41681 
SWIDTH 96 0
DWIDTH 24 0
BBX 24 24 0 -2
BITMAP 
000000
000000
000000
c00000
c1fffe
fe0001
c00001
c01ffe
c00040
c00020
c01fc0
c00080
c00040
c01f80
e00100
d00080
cfff00
000000
000000
000000
000000
000000
000000
000000
ENDCHAR
STARTCHAR a2d2
ENCODING 41682 
SWIDTH 96 0
DWIDTH 24 0
BBX 24 24 0 -2
BITMAP 
000198
0fff98
1c0198
300198
600198
600198
300198
1c0198
0fff98
000198
000198
000198
000198
000198
000198
000198
000198
000198
000198
000198
000198
000198
000000
000000
ENDCHAR
STARTCHAR a2d3
ENCODING 41683 
SWIDTH 96 0
DWIDTH 24 0
BBX 24 24 0 -2
BITMAP 
000000
001000
001000
001000
001000
001000
1ffff0
001000
001000
001000
001000
001000
001000
001000
001000
001000
001000
001000
001000
001000
001000
001000
000000
000000
ENDCHAR
STARTCHAR a2d4
ENCODING 41684 
SWIDTH 96 0
DWIDTH 24 0
BBX 24 24 0 -2
BITMAP 
000000
000800
000800
000800
000800
000800
1ffff8
1ffff8
000800
000800
000800
1ffff8
1ffff8
000800
000800
000800
000800
000800
000800
000800
000800
000800
000800
000000
ENDCHAR
STARTCHAR a2d5
ENCODING 41685 
SWIDTH 96 0
DWIDTH 24 0
BBX 24 24 0 -2
BITMAP 
000000
001000
003800
007c00
00fe00
01ff00
001000
001000
001000
001000
001000
001000
001000
001000
001000
001000
001000
01ff00
00fe00
007c00
003800
001000
000000
000000
ENDCHAR
STARTCHAR a2d6
ENCODING 41686 
SWIDTH 96 0
DWIDTH 24 0
BBX 24 24 0 -2
BITMAP 
000000
000000
0007fc
0001fc
00003c
00003c
00007c
00008c
000104
000204
000400
000800
001000
002000
004000
008000
010000
020000
040000
080000
100000
200000
000000
000000
ENDCHAR
STARTCHAR a2d7
ENCODING 41687 
SWIDTH 96 0
DWIDTH 24 0
BBX 24 24 0 -2
BITMAP 
000000
000000
000004
000008
000010
000020
000040
000080
000100
000200
000400
000800
001000
002000
204000
208000
310000
320000
3c0000
3c0000
3f0000
3fc000
000000
000000
ENDCHAR
STARTCHAR a2d8
ENCODING 41688 
SWIDTH 96 0
DWIDTH 24 0
BBX 24 24 0 -2
BITMAP 
000000
000000
3fe000
3f8000
3c0000
3c0000
320000
310000
208000
204000
002000
001000
000800
000400
000200
000100
000080
000040
000020
000010
000008
000004
000000
000000
ENDCHAR
STARTCHAR a2d9
ENCODING 41689 
SWIDTH 96 0
DWIDTH 24 0
BBX 24 24 0 -2
BITMAP 
000000
000000
200000
100000
080000
040000
020000
010000
008000
004000
002000
001000
000800
000400
000204
000104
00008c
00004c
00003c
00003c
0001fc
0007fc
000000
000000
ENDCHAR
STARTCHAR a2da
ENCODING 41690 
SWIDTH 96 0
DWIDTH 24 0
BBX 24 24 0 -2
BITMAP 
000000
000000
010000
010000
010000
010000
010000
010000
010000
010000
010000
011800
012400
014200
018200
010200
010400
010800
011000
012000
014000
018000
000000
000000
ENDCHAR
STARTCHAR a2db
ENCODING 41691 
SWIDTH 96 0
DWIDTH 24 0
BBX 24 24 0 -2
BITMAP 
000100
000100
000100
000100
000100
000100
000100
000100
000100
000100
000100
000100
000100
000100
000100
000f00
003f00
007f00
00fe00
00fc00
007800
000000
000000
000000
ENDCHAR
STARTCHAR a2dc
ENCODING 41692 
SWIDTH 96 0
DWIDTH 24 0
BBX 24 24 0 -2
BITMAP 
001000
001000
001800
001400
001200
001100
001080
0010c0
0010c0
001080
001100
001200
001000
001000
001000
001000
00f000
03f000
07f000
0fe000
0fc000
078000
000000
000000
ENDCHAR
STARTCHAR a2dd
ENCODING 41693 
SWIDTH 96 0
DWIDTH 24 0
BBX 24 24 0 -2
BITMAP 
007ffc
004004
004004
007ffc
004004
004004
004004
004004
004004
004004
004004
004004
004004
004004
004004
004004
004004
03c03c
0fc0fc
1fc1fc
3f83f8
3f03f0
1e01e0
000000
ENDCHAR
STARTCHAR a2de
ENCODING 41694 
SWIDTH 96 0
DWIDTH 24 0
BBX 24 24 0 -2
BITMAP 
000000
00ff00
0381c0
0c0030
100008
21e1e4
60c086
40c102
80c200
80c400
80c800
fef07f
00f801
00cc01
00c601
80c301
40c182
60c0c6
21e1e4
100008
0c0030
0381c0
00ff00
000000
ENDCHAR
STARTCHAR a2df
ENCODING 41695 
SWIDTH 96 0
DWIDTH 24 0
BBX 24 24 0 -2
BITMAP 
040020
080010
100008
13ff88
210704
200e04
401c02
403802
c07603
80c381
838181
800011
9ffff9
8c1801
801801
c01803
401802
401802
201804
201804
101808
101008
080010
040020
ENDCHAR
STARTCHAR a2e0
ENCODING 41696 
SWIDTH 96 0
DWIDTH 24 0
BBX 24 24 0 -2
BITMAP 
000000
000000
e0f000
702000
702000
582000
582000
4c20e0
4c2110
462318
462208
46260c
43260c
43260c
41a60c
41a60c
41a60c
40e60c
40e208
406318
406112
e020e7
000002
000000
ENDCHAR
STARTCHAR a2e1
ENCODING 41697 
SWIDTH 96 0
DWIDTH 24 0
BBX 24 24 0 -2
BITMAP 
000000
03c800
0c3800
183800
301800
600800
600000
c00000
c000c0
c00120
c00330
c00618
c00618
c00618
c00618
c00618
600e18
600b30
301126
1820c6
07c000
000000
000000
000000
ENDCHAR
STARTCHAR a2e2
ENCODING 41698 
SWIDTH 96 0
DWIDTH 24 0
BBX 24 24 0 -2
BITMAP 
000000
000000
000000
3fde3e
36cc1c
264a2c
264a2c
060a2c
060a2c
060a2c
06094c
06094c
06094c
06094c
06088c
06088c
06080c
06080c
06080c
06080c
0f1c1e
000000
000000
000000
ENDCHAR
STARTCHAR a2e3
ENCODING 41699 
SWIDTH 96 0
DWIDTH 24 0
BBX 24 24 0 -2
BITMAP 
000000
000000
000000
000000
000000
000000
000000
7c1b70
c20c98
830c98
030c98
030c98
3f0c98
430c98
c30c98
c30c98
c30c98
c30c98
c30c98
c76c9b
7d6c9b
000000
000000
000000
ENDCHAR
STARTCHAR a2e4
ENCODING 41700 
SWIDTH 96 0
DWIDTH 24 0
BBX 24 24 0 -2
BITMAP 
000000
000000
000000
000000
000000
000000
000000
fe3770
610c98
618c98
618c98
618c98
618c98
618c98
618c98
630c98
7e0c98
600c98
600c98
60cc9b
60cc9b
600000
600000
f00000
ENDCHAR
STARTCHAR a2e5
ENCODING 41701 
SWIDTH 96 0
DWIDTH 24 0
BBX 24 24 0 -2
BITMAP 
000000
000000
ffc000
ccc000
8c4000
0c0000
0c0000
0c0000
0cff38
0c6330
0c6130
0c6030
0c6030
0c6230
0c7e30
0c6230
0c6030
0c6030
0c6030
0c6131
0c6333
1eff3f
000000
000000
ENDCHAR
STARTCHAR a3a2
ENCODING 41890 
SWIDTH 96 0
DWIDTH 24 0
BBX 24 24 0 -2
BITMAP 
000000
000000
00e380
00e380
00e380
01c700
018600
030c00
061800
000000
000000
000000
000000
000000
000000
000000
000000
000000
000000
000000
000000
000000
000000
000000
ENDCHAR
STARTCHAR aca1
ENCODING 44193 
SWIDTH 96 0
DWIDTH 24 0
BBX 24 24 0 -2
BITMAP 
000000
000000
001800
003c00
002c00
006600
004600
004600
00c300
008300
018180
010180
010180
0300c0
03ffc0
060060
040060
040060
0c0030
080030
080030
3e00fc
000000
000000
ENDCHAR
STARTCHAR aca2
ENCODING 44194 
SWIDTH 96 0
DWIDTH 24 0
BBX 24 24 0 -2
BITMAP 
000000
000000
1fff80
060180
0600c0
060040
060040
060000
060000
060000
07fe00
060380
0600c0
060060
060060
060030
060030
060060
060060
0600c0
060380
1ffe00
000000
000000
ENDCHAR
STARTCHAR aca3
ENCODING 44195 
SWIDTH 96 0
DWIDTH 24 0
BBX 24 24 0 -2
BITMAP 
000000
000000
0ffe00
030380
0300c0
030060
030060
030060
030060
0300c0
030180
03ff00
0301c0
030060
030030
030018
030018
030018
030018
030030
0300e0
0fff80
000000
000000
ENDCHAR
STARTCHAR aca4
ENCODING 44196 
SWIDTH 96 0
DWIDTH 24 0
BBX 24 24 0 -2
BITMAP 
000000
000000
0fffe0
030060
030030
030010
030010
030000
030000
030000
030000
030000
030000
030000
030000
030000
030000
030000
030000
030000
030000
0fc000
000000
000000
ENDCHAR
STARTCHAR aca5
ENCODING 44197 
SWIDTH 96 0
DWIDTH 24 0
BBX 24 24 0 -2
BITMAP 
000000
000000
01ffe0
0080c0
0080c0
0080c0
0080c0
0080c0
0080c0
0180c0
0100c0
0100c0
0100c0
0100c0
0300c0
0200c0
0200c0
0200c0
0600c0
0400c0
0400c0
3ffff8
300018
200008
ENDCHAR
STARTCHAR aca6
ENCODING 44198 
SWIDTH 96 0
DWIDTH 24 0
BBX 24 24 0 -2
BITMAP 
000000
000000
0fffe0
0300e0
030060
030020
030020
030000
030200
030200
030600
03fe00
030600
030200
030200
030000
030000
030020
030020
030060
0300e0
0fffe0
000000
000000
ENDCHAR
STARTCHAR aca7
ENCODING 44199 
SWIDTH 96 0
DWIDTH 24 0
BBX 24 24 0 -2
BITMAP 
00c300
00c300
000000
0fffe0
0300e0
030060
030020
030020
030200
030200
030600
03fe00
030600
030200
030200
030000
030000
030020
030020
030060
0300e0
0fffe0
000000
000000
ENDCHAR
STARTCHAR aca8
ENCODING 44200 
SWIDTH 96 0
DWIDTH 24 0
BBX 24 24 0 -2
BITMAP 
000000
000000
1c7e38
3e187c
1a1858
021840
021840
0318c0
011880
011880
019980
00ff00
019980
0318c0
0318c0
061860
061860
0c1830
0c1818
181818
30180c
fc7e3f
000000
000000
ENDCHAR
STARTCHAR aca9
ENCODING 44201 
SWIDTH 96 0
DWIDTH 24 0
BBX 24 24 0 -2
BITMAP 
000000
000000
00ff00
0381c0
070060
060060
040030
000030
000060
000060
0000c0
007f80
0000e0
000030
000030
000018
080018
0c0018
0e0030
0f0030
0380e0
00ff80
000000
000000
ENDCHAR
STARTCHAR acaa
ENCODING 44202 
SWIDTH 96 0
DWIDTH 24 0
BBX 24 24 0 -2
BITMAP 
000000
000000
1f81f8
060060
060060
060060
0600e0
060160
060260
060460
060460
060860
061060
062060
062060
064060
068060
070060
060060
060060
060060
1f81f8
000000
000000
ENDCHAR
STARTCHAR acab
ENCODING 44203 
SWIDTH 96 0
DWIDTH 24 0
BBX 24 24 0 -2
BITMAP 
00c300
00c300
004200
003c00
1f00f8
060060
060060
0600e0
060160
060260
060460
060460
060860
061060
062060
062060
064060
068060
070060
060060
060060
060060
1f81f8
000000
ENDCHAR
STARTCHAR acac
ENCODING 44204 
SWIDTH 96 0
DWIDTH 24 0
BBX 24 24 0 -2
BITMAP 
000000
000000
1f80e0
060130
060238
060238
060410
060400
060c00
060800
061800
07f000
061800
060c00
060600
060600
060300
060180
060180
0600c0
060060
1f81f8
000000
000000
ENDCHAR
STARTCHAR acad
ENCODING 44205 
SWIDTH 96 0
DWIDTH 24 0
BBX 24 24 0 -2
BITMAP 
000000
000000
01fff0
0040c0
0040c0
0040c0
0040c0
0040c0
0040c0
0040c0
0040c0
0040c0
0040c0
0040c0
00c0c0
0080c0
0080c0
1080c0
3880c0
3880c0
3100c0
1e03f0
000000
000000
ENDCHAR
STARTCHAR acae
ENCODING 44206 
SWIDTH 96 0
DWIDTH 24 0
BBX 24 24 0 -2
BITMAP 
000000
000000
1e00f0
0600c0
0700c0
0701e0
058160
0d8160
098160
098330
09c230
08c230
18c230
10c638
10e418
106418
106c18
30781c
20380c
20300c
20100c
f8003f
000000
000000
ENDCHAR
STARTCHAR acaf
ENCODING 44207 
SWIDTH 96 0
DWIDTH 24 0
BBX 24 24 0 -2
BITMAP 
000000
000000
1f81f8
060060
060060
060060
060060
060060
060060
060060
060060
07ffe0
060060
060060
060060
060060
060060
060060
060060
060060
060060
1f81f8
000000
000000
ENDCHAR
STARTCHAR acb0
ENCODING 44208 
SWIDTH 96 0
DWIDTH 24 0
BBX 24 24 0 -2
BITMAP 
000000
000000
00ff00
0381c0
060060
0e0070
0c0030
0c0030
1c0038
180018
180018
180018
180018
180018
180018
180018
1c0038
0c0030
0e0070
060060
0381c0
00ff00
000000
000000
ENDCHAR
STARTCHAR acb1
ENCODING 44209 
SWIDTH 96 0
DWIDTH 24 0
BBX 24 24 0 -2
BITMAP 
000000
000000
1ffff8
060060
060060
060060
060060
060060
060060
060060
060060
060060
060060
060060
060060
060060
060060
060060
060060
060060
060060
1f81f8
000000
000000
ENDCHAR
STARTCHAR acb2
ENCODING 44210 
SWIDTH 96 0
DWIDTH 24 0
BBX 24 24 0 -2
BITMAP 
000000
000000
0fff00
0301c0
030060
030060
030030
030030
030030
030060
030060
0301c0
03ff00
030000
030000
030000
030000
030000
030000
030000
030000
0fc000
000000
000000
ENDCHAR
STARTCHAR acb3
ENCODING 44211 
SWIDTH 96 0
DWIDTH 24 0
BBX 24 24 0 -2
BITMAP 
000000
000000
00ff00
0381c0
060070
060030
0c0030
0c0010
1c0000
180000
180000
180000
180000
180000
180000
1c0000
0c0010
0e0030
060030
030070
0181c0
00ff00
000000
000000
ENDCHAR
STARTCHAR acb4
ENCODING 44212 
SWIDTH 96 0
DWIDTH 24 0
BBX 24 24 0 -2
BITMAP 
000000
000000
0ffff0
0e1870
0c1830
081810
081810
001800
001800
001800
001800
001800
001800
001800
001800
001800
001800
001800
001800
001800
001800
007e00
000000
000000
ENDCHAR
STARTCHAR acb5
ENCODING 44213 
SWIDTH 96 0
DWIDTH 24 0
BBX 24 24 0 -2
BITMAP 
000000
000000
3f00fc
0c0030
0c0020
060020
070060
030040
0380c0
018080
01c180
00c100
00e300
006200
007600
003400
0c3c00
1e1800
1e1800
1c3000
0c6000
07c000
000000
000000
ENDCHAR
STARTCHAR acb6
ENCODING 44214 
SWIDTH 96 0
DWIDTH 24 0
BBX 24 24 0 -2
BITMAP 
000000
000000
007e00
001800
001800
00ff00
0799e0
0c1830
181818
181818
38181c
30180c
30180c
38181c
181818
181818
0c1830
0799e0
00ff00
001800
001800
007e00
000000
000000
ENDCHAR
STARTCHAR acb7
ENCODING 44215 
SWIDTH 96 0
DWIDTH 24 0
BBX 24 24 0 -2
BITMAP 
000000
000000
3f80f8
070020
030060
0380c0
01c080
00c180
00e100
007200
003400
003800
003c00
006c00
004e00
018700
010380
020180
0601c0
0400e0
0c0070
3f01fc
000000
000000
ENDCHAR
STARTCHAR acb8
ENCODING 44216 
SWIDTH 96 0
DWIDTH 24 0
BBX 24 24 0 -2
BITMAP 
000000
000000
1f83f0
0600c0
0600c0
0600c0
0600c0
0600c0
0600c0
0600c0
0600c0
0600c0
0600c0
0600c0
0600c0
0600c0
0600c0
0600c0
0600c0
0600c0
0600c0
1ffff8
000018
000008
ENDCHAR
STARTCHAR acb9
ENCODING 44217 
SWIDTH 96 0
DWIDTH 24 0
BBX 24 24 0 -2
BITMAP 
000000
000000
1f83f0
0600c0
0600c0
0600c0
0600c0
0600c0
0600c0
0600c0
0600c0
0600c0
0600c0
0300c0
0301c0
0187c0
00fcc0
0000c0
0000c0
0000c0
0000c0
0003f0
000000
000000
ENDCHAR
STARTCHAR acba
ENCODING 44218 
SWIDTH 96 0
DWIDTH 24 0
BBX 24 24 0 -2
BITMAP 
000000
000000
7c7e3e
181818
181818
181818
181818
181818
181818
181818
181818
181818
181818
181818
181818
181818
181818
181818
181818
181818
181818
7ffffe
000000
000000
ENDCHAR
STARTCHAR acbb
ENCODING 44219 
SWIDTH 96 0
DWIDTH 24 0
BBX 24 24 0 -2
BITMAP 
000000
000000
7c7e3e
181818
181818
181818
181818
181818
181818
181818
181818
181818
181818
181818
181818
181818
181818
181818
181818
181818
181818
ffffff
000003
000001
ENDCHAR
STARTCHAR acbc
ENCODING 44220 
SWIDTH 96 0
DWIDTH 24 0
BBX 24 24 0 -2
BITMAP 
000000
000000
3ff000
30c000
60c000
40c000
40c000
00c000
00c000
00c000
00ffc0
00c070
00c030
00c018
00c018
00c01c
00c01c
00c018
00c038
00c030
00c0e0
03ff80
000000
000000
ENDCHAR
STARTCHAR acbd
ENCODING 44221 
SWIDTH 96 0
DWIDTH 24 0
BBX 24 24 0 -2
BITMAP 
000000
000000
7e007e
180018
180018
180018
180018
180018
180018
180018
1ff818
180c18
180618
180618
180318
180318
180318
180318
180618
180618
180c18
7ff87e
000000
000000
ENDCHAR
STARTCHAR acbe
ENCODING 44222 
SWIDTH 96 0
DWIDTH 24 0
BBX 24 24 0 -2
BITMAP 
000000
000000
1f8000
060000
060000
060000
060000
060000
060000
060000
07ff00
060180
0600c0
060060
060060
060030
060030
060060
060060
0600c0
060180
1fff00
000000
000000
ENDCHAR
STARTCHAR acbf
ENCODING 44223 
SWIDTH 96 0
DWIDTH 24 0
BBX 24 24 0 -2
BITMAP 
000000
000000
00ff00
0381c0
0e00e0
0c0060
0c0030
080030
000018
000018
007818
008e18
0103f8
000198
000018
000018
080030
0c0030
060060
0200c0
0301c0
01ff00
000000
000000
ENDCHAR
STARTCHAR acc0
ENCODING 44224 
SWIDTH 96 0
DWIDTH 24 0
BBX 24 24 0 -2
BITMAP 
000000
000000
fc0f80
3038e0
306030
30e018
30c018
30c018
31c01c
31800c
31800c
3f800c
31800c
31800c
31800c
31c01c
30c018
30c018
30e038
306030
3038e0
fc0f80
000000
000000
ENDCHAR
STARTCHAR acc1
ENCODING 44225 
SWIDTH 96 0
DWIDTH 24 0
BBX 24 24 0 -2
BITMAP 
000000
000000
007ff0
01c0c0
0380c0
0300c0
0700c0
0600c0
0700c0
0300c0
0380c0
01c0c0
007fc0
0030c0
0070c0
0060c0
0060c0
00c0c0
00c0c0
0180c0
0300c0
0203f0
0c0000
000000
ENDCHAR
STARTCHAR acd1
ENCODING 44241 
SWIDTH 96 0
DWIDTH 24 0
BBX 24 24 0 -2
BITMAP 
000000
000000
000000
000000
000000
000000
000000
000000
000000
00fc00
018600
03c300
018300
000300
003f00
00e300
018300
030300
030300
030300
030720
01f9c0
000000
000000
ENDCHAR
STARTCHAR acd2
ENCODING 44242 
SWIDTH 96 0
DWIDTH 24 0
BBX 24 24 0 -2
BITMAP 
000000
000000
000000
000100
007e00
00fc00
018000
010000
030000
027e00
02c300
038180
038180
0300c0
0300c0
0300c0
0300c0
0300c0
018180
018180
00c300
007e00
000000
000000
ENDCHAR
STARTCHAR acd3
ENCODING 44243 
SWIDTH 96 0
DWIDTH 24 0
BBX 24 24 0 -2
BITMAP 
000000
000000
000000
000000
000000
000000
000000
000000
000000
03fc00
018600
018300
018300
018300
018600
01fc00
018300
018180
018180
018180
018300
03fe00
000000
000000
ENDCHAR
STARTCHAR acd4
ENCODING 44244 
SWIDTH 96 0
DWIDTH 24 0
BBX 24 24 0 -2
BITMAP 
000000
000000
000000
000000
000000
000000
000000
000000
000000
01ff00
00c300
00c180
00c080
00c000
00c000
00c000
00c000
00c000
00c000
00c000
00c000
01e000
000000
000000
ENDCHAR
STARTCHAR acd5
ENCODING 44245 
SWIDTH 96 0
DWIDTH 24 0
BBX 24 24 0 -2
BITMAP 
000000
000000
000000
000000
000000
000000
000000
000000
000000
007f80
002300
002300
002300
002300
004300
004300
004300
008300
008300
008300
010300
07ffc0
0600c0
040040
ENDCHAR
STARTCHAR acd6
ENCODING 44246 
SWIDTH 96 0
DWIDTH 24 0
BBX 24 24 0 -2
BITMAP 
000000
000000
000000
000000
000000
000000
000000
000000
000000
007e00
00c300
018180
018180
0300c0
0300c0
03ffc0
030000
030000
018000
018080
00c100
007e00
000000
000000
ENDCHAR
STARTCHAR acd7
ENCODING 44247 
SWIDTH 96 0
DWIDTH 24 0
BBX 24 24 0 -2
BITMAP 
000000
000000
000000
000000
000000
00c300
00c300
000000
000000
007e00
00c300
018180
018180
0300c0
0300c0
03ffc0
030000
030000
018000
018080
00c100
007e00
000000
000000
ENDCHAR
STARTCHAR acd8
ENCODING 44248 
SWIDTH 96 0
DWIDTH 24 0
BBX 24 24 0 -2
BITMAP 
000000
000000
000000
000000
000000
000000
000000
000000
000000
063c60
0718e0
011880
011880
019980
009900
01ff80
019980
0318c0
0318c0
061860
041820
1f3cf8
000000
000000
ENDCHAR
STARTCHAR acd9
ENCODING 44249 
SWIDTH 96 0
DWIDTH 24 0
BBX 24 24 0 -2
BITMAP 
000000
000000
000000
000000
000000
000000
000000
000000
000000
007e00
01c300
010180
000180
000180
000300
003e00
000180
0000c0
0100c0
0180c0
01c180
007f00
000000
000000
ENDCHAR
STARTCHAR acda
ENCODING 44250 
SWIDTH 96 0
DWIDTH 24 0
BBX 24 24 0 -2
BITMAP 
000000
000000
000000
000000
000000
000000
000000
000000
000000
03c3c0
018180
018180
018380
018580
018980
019980
019180
01a180
01c180
018180
018180
03c3c0
000000
000000
ENDCHAR
STARTCHAR acdb
ENCODING 44251 
SWIDTH 96 0
DWIDTH 24 0
BBX 24 24 0 -2
BITMAP 
000000
000000
000000
000000
00c300
00c300
004200
003c00
000000
0381c0
018180
018180
018380
018580
018980
019980
019180
01a180
01c180
018180
018180
03c3c0
000000
000000
ENDCHAR
STARTCHAR acdc
ENCODING 44252 
SWIDTH 96 0
DWIDTH 24 0
BBX 24 24 0 -2
BITMAP 
000000
000000
000000
000000
000000
000000
000000
000000
000000
01e1e0
00c080
00c100
00c200
00c400
00c800
00d800
00fc00
00e600
00c300
00c180
00c0c0
01e1e0
000000
000000
ENDCHAR
STARTCHAR acdd
ENCODING 44253 
SWIDTH 96 0
DWIDTH 24 0
BBX 24 24 0 -2
BITMAP 
000000
000000
000000
000000
000000
000000
000000
000000
000000
007f80
002300
002300
002300
002300
002300
002300
004300
004300
064300
064300
048300
030780
000000
000000
ENDCHAR
STARTCHAR acde
ENCODING 44254 
SWIDTH 96 0
DWIDTH 24 0
BBX 24 24 0 -2
BITMAP 
000000
000000
000000
000000
000000
000000
000000
000000
000000
0700e0
0381c0
0381c0
02c2c0
02c2c0
02c2c0
0264c0
0264c0
0268c0
0238c0
0210c0
0210c0
0701e0
000000
000000
ENDCHAR
STARTCHAR acdf
ENCODING 44255 
SWIDTH 96 0
DWIDTH 24 0
BBX 24 24 0 -2
BITMAP 
000000
000000
000000
000000
000000
000000
000000
000000
000000
03c3c0
018180
018180
018180
018180
018180
01ff80
018180
018180
018180
018180
018180
03c3c0
000000
000000
ENDCHAR
ENDFONT
